<?xml version="1.0" encoding="utf-8" standalone="no"?>
<!DOCTYPE svg PUBLIC "-//W3C//DTD SVG 1.1//EN"
  "http://www.w3.org/Graphics/SVG/1.1/DTD/svg11.dtd">
<!-- Created with matplotlib (https://matplotlib.org/) -->
<svg height="202.029375pt" version="1.1" viewBox="0 0 448.200866 202.029375" width="448.200866pt" xmlns="http://www.w3.org/2000/svg" xmlns:xlink="http://www.w3.org/1999/xlink">
 <metadata>
  <rdf:RDF xmlns:cc="http://creativecommons.org/ns#" xmlns:dc="http://purl.org/dc/elements/1.1/" xmlns:rdf="http://www.w3.org/1999/02/22-rdf-syntax-ns#">
   <cc:Work>
    <dc:type rdf:resource="http://purl.org/dc/dcmitype/StillImage"/>
    <dc:date>2022-08-14T22:39:05.006958</dc:date>
    <dc:format>image/svg+xml</dc:format>
    <dc:creator>
     <cc:Agent>
      <dc:title>Matplotlib v3.3.3, https://matplotlib.org/</dc:title>
     </cc:Agent>
    </dc:creator>
   </cc:Work>
  </rdf:RDF>
 </metadata>
 <defs>
  <style type="text/css">*{stroke-linecap:butt;stroke-linejoin:round;}</style>
 </defs>
 <g id="figure_1">
  <g id="patch_1">
   <path d="M 0 202.029375 
L 448.200866 202.029375 
L 448.200866 0 
L 0 0 
z
" style="fill:#ffffff;"/>
  </g>
  <g id="axes_1">
   <g id="patch_2">
    <path d="M 70.020866 170.28 
L 321.120866 170.28 
L 321.120866 7.2 
L 70.020866 7.2 
z
" style="fill:#ffffff;"/>
   </g>
   <g id="patch_3">
    <path clip-path="url(#pdb90558d07)" d="M 70.020866 165.75 
L 74.19233 165.75 
L 74.19233 156.69 
L 70.020866 156.69 
z
" style="fill:#135eae;"/>
   </g>
   <g id="patch_4">
    <path clip-path="url(#pdb90558d07)" d="M 70.020866 147.63 
L 74.216479 147.63 
L 74.216479 138.57 
L 70.020866 138.57 
z
" style="fill:#135eae;"/>
   </g>
   <g id="patch_5">
    <path clip-path="url(#pdb90558d07)" d="M 70.020866 129.51 
L 70.904444 129.51 
L 70.904444 120.45 
L 70.020866 120.45 
z
" style="fill:#135eae;"/>
   </g>
   <g id="patch_6">
    <path clip-path="url(#pdb90558d07)" d="M 70.020866 111.39 
L 78.696392 111.39 
L 78.696392 102.33 
L 70.020866 102.33 
z
" style="fill:#135eae;"/>
   </g>
   <g id="patch_7">
    <path clip-path="url(#pdb90558d07)" d="M 70.020866 93.27 
L 77.922763 93.27 
L 77.922763 84.21 
L 70.020866 84.21 
z
" style="fill:#135eae;"/>
   </g>
   <g id="patch_8">
    <path clip-path="url(#pdb90558d07)" d="M 70.020866 75.15 
L 71.861034 75.15 
L 71.861034 66.09 
L 70.020866 66.09 
z
" style="fill:#135eae;"/>
   </g>
   <g id="patch_9">
    <path clip-path="url(#pdb90558d07)" d="M 70.020866 57.03 
L 71.160442 57.03 
L 71.160442 47.97 
L 70.020866 47.97 
z
" style="fill:#135eae;"/>
   </g>
   <g id="patch_10">
    <path clip-path="url(#pdb90558d07)" d="M 70.020866 38.91 
L 71.745446 38.91 
L 71.745446 29.85 
L 70.020866 29.85 
z
" style="fill:#135eae;"/>
   </g>
   <g id="patch_11">
    <path clip-path="url(#pdb90558d07)" d="M 70.020866 20.79 
L 75.076002 20.79 
L 75.076002 11.73 
L 70.020866 11.73 
z
" style="fill:#135eae;"/>
   </g>
   <g id="patch_12">
    <path clip-path="url(#pdb90558d07)" d="M 74.19233 165.75 
L 79.65931 165.75 
L 79.65931 156.69 
L 74.19233 156.69 
z
" style="fill:#d37295;"/>
   </g>
   <g id="patch_13">
    <path clip-path="url(#pdb90558d07)" d="M 74.216479 147.63 
L 74.466949 147.63 
L 74.466949 138.57 
L 74.216479 138.57 
z
" style="fill:#d37295;"/>
   </g>
   <g id="patch_14">
    <path clip-path="url(#pdb90558d07)" d="M 70.904444 129.51 
L 71.407117 129.51 
L 71.407117 120.45 
L 70.904444 120.45 
z
" style="fill:#d37295;"/>
   </g>
   <g id="patch_15">
    <path clip-path="url(#pdb90558d07)" d="M 78.696392 111.39 
L 84.378853 111.39 
L 84.378853 102.33 
L 78.696392 102.33 
z
" style="fill:#d37295;"/>
   </g>
   <g id="patch_16">
    <path clip-path="url(#pdb90558d07)" d="M 77.922763 93.27 
L 78.641017 93.27 
L 78.641017 84.21 
L 77.922763 84.21 
z
" style="fill:#d37295;"/>
   </g>
   <g id="patch_17">
    <path clip-path="url(#pdb90558d07)" d="M 71.861034 75.15 
L 90.714959 75.15 
L 90.714959 66.09 
L 71.861034 66.09 
z
" style="fill:#d37295;"/>
   </g>
   <g id="patch_18">
    <path clip-path="url(#pdb90558d07)" d="M 71.160442 57.03 
L 71.699352 57.03 
L 71.699352 47.97 
L 71.160442 47.97 
z
" style="fill:#d37295;"/>
   </g>
   <g id="patch_19">
    <path clip-path="url(#pdb90558d07)" d="M 71.745446 38.91 
L 88.919508 38.91 
L 88.919508 29.85 
L 71.745446 29.85 
z
" style="fill:#d37295;"/>
   </g>
   <g id="patch_20">
    <path clip-path="url(#pdb90558d07)" d="M 75.076002 20.79 
L 75.517682 20.79 
L 75.517682 11.73 
L 75.076002 11.73 
z
" style="fill:#d37295;"/>
   </g>
   <g id="patch_21">
    <path clip-path="url(#pdb90558d07)" d="M 79.65931 165.75 
L 85.535514 165.75 
L 85.535514 156.69 
L 79.65931 156.69 
z
" style="fill:#79706e;"/>
   </g>
   <g id="patch_22">
    <path clip-path="url(#pdb90558d07)" d="M 74.466949 147.63 
L 81.592535 147.63 
L 81.592535 138.57 
L 74.466949 138.57 
z
" style="fill:#79706e;"/>
   </g>
   <g id="patch_23">
    <path clip-path="url(#pdb90558d07)" d="M 71.407117 129.51 
L 75.253812 129.51 
L 75.253812 120.45 
L 71.407117 120.45 
z
" style="fill:#79706e;"/>
   </g>
   <g id="patch_24">
    <path clip-path="url(#pdb90558d07)" d="M 84.378853 111.39 
L 88.862397 111.39 
L 88.862397 102.33 
L 84.378853 102.33 
z
" style="fill:#79706e;"/>
   </g>
   <g id="patch_25">
    <path clip-path="url(#pdb90558d07)" d="M 78.641017 93.27 
L 84.349886 93.27 
L 84.349886 84.21 
L 78.641017 84.21 
z
" style="fill:#79706e;"/>
   </g>
   <g id="patch_26">
    <path clip-path="url(#pdb90558d07)" d="M 90.714959 75.15 
L 100.685253 75.15 
L 100.685253 66.09 
L 90.714959 66.09 
z
" style="fill:#79706e;"/>
   </g>
   <g id="patch_27">
    <path clip-path="url(#pdb90558d07)" d="M 71.699352 57.03 
L 75.537169 57.03 
L 75.537169 47.97 
L 71.699352 47.97 
z
" style="fill:#79706e;"/>
   </g>
   <g id="patch_28">
    <path clip-path="url(#pdb90558d07)" d="M 88.919508 38.91 
L 95.284884 38.91 
L 95.284884 29.85 
L 88.919508 29.85 
z
" style="fill:#79706e;"/>
   </g>
   <g id="patch_29">
    <path clip-path="url(#pdb90558d07)" d="M 75.517682 20.79 
L 80.019814 20.79 
L 80.019814 11.73 
L 75.517682 11.73 
z
" style="fill:#79706e;"/>
   </g>
   <g id="patch_30">
    <path clip-path="url(#pdb90558d07)" d="M 85.535514 165.75 
L 116.840736 165.75 
L 116.840736 156.69 
L 85.535514 156.69 
z
" style="fill:#489894;"/>
   </g>
   <g id="patch_31">
    <path clip-path="url(#pdb90558d07)" d="M 81.592535 147.63 
L 95.061721 147.63 
L 95.061721 138.57 
L 81.592535 138.57 
z
" style="fill:#489894;"/>
   </g>
   <g id="patch_32">
    <path clip-path="url(#pdb90558d07)" d="M 75.253812 129.51 
L 102.824112 129.51 
L 102.824112 120.45 
L 75.253812 120.45 
z
" style="fill:#489894;"/>
   </g>
   <g id="patch_33">
    <path clip-path="url(#pdb90558d07)" d="M 88.862397 111.39 
L 143.53524 111.39 
L 143.53524 102.33 
L 88.862397 102.33 
z
" style="fill:#489894;"/>
   </g>
   <g id="patch_34">
    <path clip-path="url(#pdb90558d07)" d="M 84.349886 93.27 
L 127.634352 93.27 
L 127.634352 84.21 
L 84.349886 84.21 
z
" style="fill:#489894;"/>
   </g>
   <g id="patch_35">
    <path clip-path="url(#pdb90558d07)" d="M 100.685253 75.15 
L 132.97811 75.15 
L 132.97811 66.09 
L 100.685253 66.09 
z
" style="fill:#489894;"/>
   </g>
   <g id="patch_36">
    <path clip-path="url(#pdb90558d07)" d="M 75.537169 57.03 
L 103.615264 57.03 
L 103.615264 47.97 
L 75.537169 47.97 
z
" style="fill:#489894;"/>
   </g>
   <g id="patch_37">
    <path clip-path="url(#pdb90558d07)" d="M 95.284884 38.91 
L 125.686696 38.91 
L 125.686696 29.85 
L 95.284884 29.85 
z
" style="fill:#489894;"/>
   </g>
   <g id="patch_38">
    <path clip-path="url(#pdb90558d07)" d="M 80.019814 20.79 
L 107.604459 20.79 
L 107.604459 11.73 
L 80.019814 11.73 
z
" style="fill:#489894;"/>
   </g>
   <g id="patch_39">
    <path clip-path="url(#pdb90558d07)" d="M 116.840736 165.75 
L 124.214143 165.75 
L 124.214143 156.69 
L 116.840736 156.69 
z
" style="fill:#e15759;"/>
   </g>
   <g id="patch_40">
    <path clip-path="url(#pdb90558d07)" d="M 95.061721 147.63 
L 98.839343 147.63 
L 98.839343 138.57 
L 95.061721 138.57 
z
" style="fill:#e15759;"/>
   </g>
   <g id="patch_41">
    <path clip-path="url(#pdb90558d07)" d="M 102.824112 129.51 
L 109.762695 129.51 
L 109.762695 120.45 
L 102.824112 120.45 
z
" style="fill:#e15759;"/>
   </g>
   <g id="patch_42">
    <path clip-path="url(#pdb90558d07)" d="M 143.53524 111.39 
L 151.204244 111.39 
L 151.204244 102.33 
L 143.53524 102.33 
z
" style="fill:#e15759;"/>
   </g>
   <g id="patch_43">
    <path clip-path="url(#pdb90558d07)" d="M 127.634352 93.27 
L 134.837848 93.27 
L 134.837848 84.21 
L 127.634352 84.21 
z
" style="fill:#e15759;"/>
   </g>
   <g id="patch_44">
    <path clip-path="url(#pdb90558d07)" d="M 132.97811 75.15 
L 143.86154 75.15 
L 143.86154 66.09 
L 132.97811 66.09 
z
" style="fill:#e15759;"/>
   </g>
   <g id="patch_45">
    <path clip-path="url(#pdb90558d07)" d="M 103.615264 57.03 
L 110.68164 57.03 
L 110.68164 47.97 
L 103.615264 47.97 
z
" style="fill:#e15759;"/>
   </g>
   <g id="patch_46">
    <path clip-path="url(#pdb90558d07)" d="M 125.686696 38.91 
L 135.54738 38.91 
L 135.54738 29.85 
L 125.686696 29.85 
z
" style="fill:#e15759;"/>
   </g>
   <g id="patch_47">
    <path clip-path="url(#pdb90558d07)" d="M 107.604459 20.79 
L 113.512512 20.79 
L 113.512512 11.73 
L 107.604459 11.73 
z
" style="fill:#e15759;"/>
   </g>
   <g id="patch_48">
    <path clip-path="url(#pdb90558d07)" d="M 124.214143 165.75 
L 159.932475 165.75 
L 159.932475 156.69 
L 124.214143 156.69 
z
" style="fill:#b6992e;"/>
   </g>
   <g id="patch_49">
    <path clip-path="url(#pdb90558d07)" d="M 98.839343 147.63 
L 149.851626 147.63 
L 149.851626 138.57 
L 98.839343 138.57 
z
" style="fill:#b6992e;"/>
   </g>
   <g id="patch_50">
    <path clip-path="url(#pdb90558d07)" d="M 109.762695 129.51 
L 142.645529 129.51 
L 142.645529 120.45 
L 109.762695 120.45 
z
" style="fill:#b6992e;"/>
   </g>
   <g id="patch_51">
    <path clip-path="url(#pdb90558d07)" d="M 151.204244 111.39 
L 182.345326 111.39 
L 182.345326 102.33 
L 151.204244 102.33 
z
" style="fill:#b6992e;"/>
   </g>
   <g id="patch_52">
    <path clip-path="url(#pdb90558d07)" d="M 134.837848 93.27 
L 169.099642 93.27 
L 169.099642 84.21 
L 134.837848 84.21 
z
" style="fill:#b6992e;"/>
   </g>
   <g id="patch_53">
    <path clip-path="url(#pdb90558d07)" d="M 143.86154 75.15 
L 174.88886 75.15 
L 174.88886 66.09 
L 143.86154 66.09 
z
" style="fill:#b6992e;"/>
   </g>
   <g id="patch_54">
    <path clip-path="url(#pdb90558d07)" d="M 110.68164 57.03 
L 145.298358 57.03 
L 145.298358 47.97 
L 110.68164 47.97 
z
" style="fill:#b6992e;"/>
   </g>
   <g id="patch_55">
    <path clip-path="url(#pdb90558d07)" d="M 135.54738 38.91 
L 170.62347 38.91 
L 170.62347 29.85 
L 135.54738 29.85 
z
" style="fill:#b6992e;"/>
   </g>
   <g id="patch_56">
    <path clip-path="url(#pdb90558d07)" d="M 113.512512 20.79 
L 153.279437 20.79 
L 153.279437 11.73 
L 113.512512 11.73 
z
" style="fill:#b6992e;"/>
   </g>
   <g id="patch_57">
    <path clip-path="url(#pdb90558d07)" d="M 159.932475 165.75 
L 181.88183 165.75 
L 181.88183 156.69 
L 159.932475 156.69 
z
" style="fill:#f1ce63;"/>
   </g>
   <g id="patch_58">
    <path clip-path="url(#pdb90558d07)" d="M 149.851626 147.63 
L 172.160382 147.63 
L 172.160382 138.57 
L 149.851626 138.57 
z
" style="fill:#f1ce63;"/>
   </g>
   <g id="patch_59">
    <path clip-path="url(#pdb90558d07)" d="M 142.645529 129.51 
L 165.178926 129.51 
L 165.178926 120.45 
L 142.645529 120.45 
z
" style="fill:#f1ce63;"/>
   </g>
   <g id="patch_60">
    <path clip-path="url(#pdb90558d07)" d="M 182.345326 111.39 
L 203.695763 111.39 
L 203.695763 102.33 
L 182.345326 102.33 
z
" style="fill:#f1ce63;"/>
   </g>
   <g id="patch_61">
    <path clip-path="url(#pdb90558d07)" d="M 169.099642 93.27 
L 190.807459 93.27 
L 190.807459 84.21 
L 169.099642 84.21 
z
" style="fill:#f1ce63;"/>
   </g>
   <g id="patch_62">
    <path clip-path="url(#pdb90558d07)" d="M 174.88886 75.15 
L 194.759276 75.15 
L 194.759276 66.09 
L 174.88886 66.09 
z
" style="fill:#f1ce63;"/>
   </g>
   <g id="patch_63">
    <path clip-path="url(#pdb90558d07)" d="M 145.298358 57.03 
L 165.746875 57.03 
L 165.746875 47.97 
L 145.298358 47.97 
z
" style="fill:#f1ce63;"/>
   </g>
   <g id="patch_64">
    <path clip-path="url(#pdb90558d07)" d="M 170.62347 38.91 
L 195.85857 38.91 
L 195.85857 29.85 
L 170.62347 29.85 
z
" style="fill:#f1ce63;"/>
   </g>
   <g id="patch_65">
    <path clip-path="url(#pdb90558d07)" d="M 153.279437 20.79 
L 176.148221 20.79 
L 176.148221 11.73 
L 153.279437 11.73 
z
" style="fill:#f1ce63;"/>
   </g>
   <g id="patch_66">
    <path clip-path="url(#pdb90558d07)" d="M 181.88183 165.75 
L 218.955634 165.75 
L 218.955634 156.69 
L 181.88183 156.69 
z
" style="fill:#59a14f;"/>
   </g>
   <g id="patch_67">
    <path clip-path="url(#pdb90558d07)" d="M 172.160382 147.63 
L 224.281763 147.63 
L 224.281763 138.57 
L 172.160382 138.57 
z
" style="fill:#59a14f;"/>
   </g>
   <g id="patch_68">
    <path clip-path="url(#pdb90558d07)" d="M 165.178926 129.51 
L 193.708977 129.51 
L 193.708977 120.45 
L 165.178926 120.45 
z
" style="fill:#59a14f;"/>
   </g>
   <g id="patch_69">
    <path clip-path="url(#pdb90558d07)" d="M 203.695763 111.39 
L 231.961744 111.39 
L 231.961744 102.33 
L 203.695763 102.33 
z
" style="fill:#59a14f;"/>
   </g>
   <g id="patch_70">
    <path clip-path="url(#pdb90558d07)" d="M 190.807459 93.27 
L 231.282487 93.27 
L 231.282487 84.21 
L 190.807459 84.21 
z
" style="fill:#59a14f;"/>
   </g>
   <g id="patch_71">
    <path clip-path="url(#pdb90558d07)" d="M 194.759276 75.15 
L 227.6389 75.15 
L 227.6389 66.09 
L 194.759276 66.09 
z
" style="fill:#59a14f;"/>
   </g>
   <g id="patch_72">
    <path clip-path="url(#pdb90558d07)" d="M 165.746875 57.03 
L 204.27174 57.03 
L 204.27174 47.97 
L 165.746875 47.97 
z
" style="fill:#59a14f;"/>
   </g>
   <g id="patch_73">
    <path clip-path="url(#pdb90558d07)" d="M 195.85857 38.91 
L 227.994707 38.91 
L 227.994707 29.85 
L 195.85857 29.85 
z
" style="fill:#59a14f;"/>
   </g>
   <g id="patch_74">
    <path clip-path="url(#pdb90558d07)" d="M 176.148221 20.79 
L 223.823015 20.79 
L 223.823015 11.73 
L 176.148221 11.73 
z
" style="fill:#59a14f;"/>
   </g>
   <g id="patch_75">
    <path clip-path="url(#pdb90558d07)" d="M 218.955634 165.75 
L 233.735872 165.75 
L 233.735872 156.69 
L 218.955634 156.69 
z
" style="fill:#ffbe7e;"/>
   </g>
   <g id="patch_76">
    <path clip-path="url(#pdb90558d07)" d="M 224.281763 147.63 
L 235.825593 147.63 
L 235.825593 138.57 
L 224.281763 138.57 
z
" style="fill:#ffbe7e;"/>
   </g>
   <g id="patch_77">
    <path clip-path="url(#pdb90558d07)" d="M 193.708977 129.51 
L 212.823447 129.51 
L 212.823447 120.45 
L 193.708977 120.45 
z
" style="fill:#ffbe7e;"/>
   </g>
   <g id="patch_78">
    <path clip-path="url(#pdb90558d07)" d="M 231.961744 111.39 
L 244.779423 111.39 
L 244.779423 102.33 
L 231.961744 102.33 
z
" style="fill:#ffbe7e;"/>
   </g>
   <g id="patch_79">
    <path clip-path="url(#pdb90558d07)" d="M 231.282487 93.27 
L 245.445512 93.27 
L 245.445512 84.21 
L 231.282487 84.21 
z
" style="fill:#ffbe7e;"/>
   </g>
   <g id="patch_80">
    <path clip-path="url(#pdb90558d07)" d="M 227.6389 75.15 
L 242.336027 75.15 
L 242.336027 66.09 
L 227.6389 66.09 
z
" style="fill:#ffbe7e;"/>
   </g>
   <g id="patch_81">
    <path clip-path="url(#pdb90558d07)" d="M 204.27174 57.03 
L 221.068909 57.03 
L 221.068909 47.97 
L 204.27174 47.97 
z
" style="fill:#ffbe7e;"/>
   </g>
   <g id="patch_82">
    <path clip-path="url(#pdb90558d07)" d="M 227.994707 38.91 
L 240.795045 38.91 
L 240.795045 29.85 
L 227.994707 29.85 
z
" style="fill:#ffbe7e;"/>
   </g>
   <g id="patch_83">
    <path clip-path="url(#pdb90558d07)" d="M 223.823015 20.79 
L 237.772675 20.79 
L 237.772675 11.73 
L 223.823015 11.73 
z
" style="fill:#ffbe7e;"/>
   </g>
   <g id="patch_84">
    <path clip-path="url(#pdb90558d07)" d="M 233.735872 165.75 
L 266.59227 165.75 
L 266.59227 156.69 
L 233.735872 156.69 
z
" style="fill:#f28e2c;"/>
   </g>
   <g id="patch_85">
    <path clip-path="url(#pdb90558d07)" d="M 235.825593 147.63 
L 257.462268 147.63 
L 257.462268 138.57 
L 235.825593 138.57 
z
" style="fill:#f28e2c;"/>
   </g>
   <g id="patch_86">
    <path clip-path="url(#pdb90558d07)" d="M 212.823447 129.51 
L 266.55628 129.51 
L 266.55628 120.45 
L 212.823447 120.45 
z
" style="fill:#f28e2c;"/>
   </g>
   <g id="patch_87">
    <path clip-path="url(#pdb90558d07)" d="M 244.779423 111.39 
L 271.397149 111.39 
L 271.397149 102.33 
L 244.779423 102.33 
z
" style="fill:#f28e2c;"/>
   </g>
   <g id="patch_88">
    <path clip-path="url(#pdb90558d07)" d="M 245.445512 93.27 
L 270.724235 93.27 
L 270.724235 84.21 
L 245.445512 84.21 
z
" style="fill:#f28e2c;"/>
   </g>
   <g id="patch_89">
    <path clip-path="url(#pdb90558d07)" d="M 242.336027 75.15 
L 268.089079 75.15 
L 268.089079 66.09 
L 242.336027 66.09 
z
" style="fill:#f28e2c;"/>
   </g>
   <g id="patch_90">
    <path clip-path="url(#pdb90558d07)" d="M 221.068909 57.03 
L 263.874636 57.03 
L 263.874636 47.97 
L 221.068909 47.97 
z
" style="fill:#f28e2c;"/>
   </g>
   <g id="patch_91">
    <path clip-path="url(#pdb90558d07)" d="M 240.795045 38.91 
L 264.585614 38.91 
L 264.585614 29.85 
L 240.795045 29.85 
z
" style="fill:#f28e2c;"/>
   </g>
   <g id="patch_92">
    <path clip-path="url(#pdb90558d07)" d="M 237.772675 20.79 
L 266.14313 20.79 
L 266.14313 11.73 
L 237.772675 11.73 
z
" style="fill:#f28e2c;"/>
   </g>
   <g id="patch_93">
    <path clip-path="url(#pdb90558d07)" d="M 266.59227 165.75 
L 323.246052 165.75 
L 323.246052 156.69 
L 266.59227 156.69 
z
" style="fill:#a0cbe8;"/>
   </g>
   <g id="patch_94">
    <path clip-path="url(#pdb90558d07)" d="M 257.462268 147.63 
L 323.70904 147.63 
L 323.70904 138.57 
L 257.462268 138.57 
z
" style="fill:#a0cbe8;"/>
   </g>
   <g id="patch_95">
    <path clip-path="url(#pdb90558d07)" d="M 266.55628 129.51 
L 322.257575 129.51 
L 322.257575 120.45 
L 266.55628 120.45 
z
" style="fill:#a0cbe8;"/>
   </g>
   <g id="patch_96">
    <path clip-path="url(#pdb90558d07)" d="M 271.397149 111.39 
L 323.502457 111.39 
L 323.502457 102.33 
L 271.397149 102.33 
z
" style="fill:#a0cbe8;"/>
   </g>
   <g id="patch_97">
    <path clip-path="url(#pdb90558d07)" d="M 270.724235 93.27 
L 323.533547 93.27 
L 323.533547 84.21 
L 270.724235 84.21 
z
" style="fill:#a0cbe8;"/>
   </g>
   <g id="patch_98">
    <path clip-path="url(#pdb90558d07)" d="M 268.089079 75.15 
L 322.379699 75.15 
L 322.379699 66.09 
L 268.089079 66.09 
z
" style="fill:#a0cbe8;"/>
   </g>
   <g id="patch_99">
    <path clip-path="url(#pdb90558d07)" d="M 263.874636 57.03 
L 323.09034 57.03 
L 323.09034 47.97 
L 263.874636 47.97 
z
" style="fill:#a0cbe8;"/>
   </g>
   <g id="patch_100">
    <path clip-path="url(#pdb90558d07)" d="M 264.585614 38.91 
L 323.669313 38.91 
L 323.669313 29.85 
L 264.585614 29.85 
z
" style="fill:#a0cbe8;"/>
   </g>
   <g id="patch_101">
    <path clip-path="url(#pdb90558d07)" d="M 266.14313 20.79 
L 323.261138 20.79 
L 323.261138 11.73 
L 266.14313 11.73 
z
" style="fill:#a0cbe8;"/>
   </g>
   <g id="matplotlib.axis_1">
    <g id="xtick_1">
     <g id="line2d_1">
      <defs>
       <path d="M 0 0 
L 0 3.5 
" id="m21d4209699" style="stroke:#000000;stroke-width:0.8;"/>
      </defs>
      <g>
       <use style="stroke:#000000;stroke-width:0.8;" x="70.020866" xlink:href="#m21d4209699" y="170.28"/>
      </g>
     </g>
     <g id="text_1">
      <!-- 0% -->
      <g transform="translate(64.468445 182.598906)scale(0.07 -0.07)">
       <defs>
        <path d="M 31.78125 66.40625 
Q 24.171875 66.40625 20.328125 58.90625 
Q 16.5 51.421875 16.5 36.375 
Q 16.5 21.390625 20.328125 13.890625 
Q 24.171875 6.390625 31.78125 6.390625 
Q 39.453125 6.390625 43.28125 13.890625 
Q 47.125 21.390625 47.125 36.375 
Q 47.125 51.421875 43.28125 58.90625 
Q 39.453125 66.40625 31.78125 66.40625 
z
M 31.78125 74.21875 
Q 44.046875 74.21875 50.515625 64.515625 
Q 56.984375 54.828125 56.984375 36.375 
Q 56.984375 17.96875 50.515625 8.265625 
Q 44.046875 -1.421875 31.78125 -1.421875 
Q 19.53125 -1.421875 13.0625 8.265625 
Q 6.59375 17.96875 6.59375 36.375 
Q 6.59375 54.828125 13.0625 64.515625 
Q 19.53125 74.21875 31.78125 74.21875 
z
" id="DejaVuSans-48"/>
        <path d="M 72.703125 32.078125 
Q 68.453125 32.078125 66.03125 28.46875 
Q 63.625 24.859375 63.625 18.40625 
Q 63.625 12.0625 66.03125 8.421875 
Q 68.453125 4.78125 72.703125 4.78125 
Q 76.859375 4.78125 79.265625 8.421875 
Q 81.6875 12.0625 81.6875 18.40625 
Q 81.6875 24.8125 79.265625 28.4375 
Q 76.859375 32.078125 72.703125 32.078125 
z
M 72.703125 38.28125 
Q 80.421875 38.28125 84.953125 32.90625 
Q 89.5 27.546875 89.5 18.40625 
Q 89.5 9.28125 84.9375 3.921875 
Q 80.375 -1.421875 72.703125 -1.421875 
Q 64.890625 -1.421875 60.34375 3.921875 
Q 55.8125 9.28125 55.8125 18.40625 
Q 55.8125 27.59375 60.375 32.9375 
Q 64.9375 38.28125 72.703125 38.28125 
z
M 22.3125 68.015625 
Q 18.109375 68.015625 15.6875 64.375 
Q 13.28125 60.75 13.28125 54.390625 
Q 13.28125 47.953125 15.671875 44.328125 
Q 18.0625 40.71875 22.3125 40.71875 
Q 26.5625 40.71875 28.96875 44.328125 
Q 31.390625 47.953125 31.390625 54.390625 
Q 31.390625 60.6875 28.953125 64.34375 
Q 26.515625 68.015625 22.3125 68.015625 
z
M 66.40625 74.21875 
L 74.21875 74.21875 
L 28.609375 -1.421875 
L 20.796875 -1.421875 
z
M 22.3125 74.21875 
Q 30.03125 74.21875 34.609375 68.875 
Q 39.203125 63.53125 39.203125 54.390625 
Q 39.203125 45.171875 34.640625 39.84375 
Q 30.078125 34.515625 22.3125 34.515625 
Q 14.546875 34.515625 10.03125 39.859375 
Q 5.515625 45.21875 5.515625 54.390625 
Q 5.515625 63.484375 10.046875 68.84375 
Q 14.59375 74.21875 22.3125 74.21875 
z
" id="DejaVuSans-37"/>
       </defs>
       <use xlink:href="#DejaVuSans-48"/>
       <use x="63.623047" xlink:href="#DejaVuSans-37"/>
      </g>
     </g>
    </g>
    <g id="xtick_2">
     <g id="line2d_2">
      <g>
       <use style="stroke:#000000;stroke-width:0.8;" x="120.748139" xlink:href="#m21d4209699" y="170.28"/>
      </g>
     </g>
     <g id="text_2">
      <!-- 20% -->
      <g transform="translate(112.968842 182.598906)scale(0.07 -0.07)">
       <defs>
        <path d="M 19.1875 8.296875 
L 53.609375 8.296875 
L 53.609375 0 
L 7.328125 0 
L 7.328125 8.296875 
Q 12.9375 14.109375 22.625 23.890625 
Q 32.328125 33.6875 34.8125 36.53125 
Q 39.546875 41.84375 41.421875 45.53125 
Q 43.3125 49.21875 43.3125 52.78125 
Q 43.3125 58.59375 39.234375 62.25 
Q 35.15625 65.921875 28.609375 65.921875 
Q 23.96875 65.921875 18.8125 64.3125 
Q 13.671875 62.703125 7.8125 59.421875 
L 7.8125 69.390625 
Q 13.765625 71.78125 18.9375 73 
Q 24.125 74.21875 28.421875 74.21875 
Q 39.75 74.21875 46.484375 68.546875 
Q 53.21875 62.890625 53.21875 53.421875 
Q 53.21875 48.921875 51.53125 44.890625 
Q 49.859375 40.875 45.40625 35.40625 
Q 44.1875 33.984375 37.640625 27.21875 
Q 31.109375 20.453125 19.1875 8.296875 
z
" id="DejaVuSans-50"/>
       </defs>
       <use xlink:href="#DejaVuSans-50"/>
       <use x="63.623047" xlink:href="#DejaVuSans-48"/>
       <use x="127.246094" xlink:href="#DejaVuSans-37"/>
      </g>
     </g>
    </g>
    <g id="xtick_3">
     <g id="line2d_3">
      <g>
       <use style="stroke:#000000;stroke-width:0.8;" x="171.475412" xlink:href="#m21d4209699" y="170.28"/>
      </g>
     </g>
     <g id="text_3">
      <!-- 40% -->
      <g transform="translate(163.696115 182.598906)scale(0.07 -0.07)">
       <defs>
        <path d="M 37.796875 64.3125 
L 12.890625 25.390625 
L 37.796875 25.390625 
z
M 35.203125 72.90625 
L 47.609375 72.90625 
L 47.609375 25.390625 
L 58.015625 25.390625 
L 58.015625 17.1875 
L 47.609375 17.1875 
L 47.609375 0 
L 37.796875 0 
L 37.796875 17.1875 
L 4.890625 17.1875 
L 4.890625 26.703125 
z
" id="DejaVuSans-52"/>
       </defs>
       <use xlink:href="#DejaVuSans-52"/>
       <use x="63.623047" xlink:href="#DejaVuSans-48"/>
       <use x="127.246094" xlink:href="#DejaVuSans-37"/>
      </g>
     </g>
    </g>
    <g id="xtick_4">
     <g id="line2d_4">
      <g>
       <use style="stroke:#000000;stroke-width:0.8;" x="222.202685" xlink:href="#m21d4209699" y="170.28"/>
      </g>
     </g>
     <g id="text_4">
      <!-- 60% -->
      <g transform="translate(214.423388 182.598906)scale(0.07 -0.07)">
       <defs>
        <path d="M 33.015625 40.375 
Q 26.375 40.375 22.484375 35.828125 
Q 18.609375 31.296875 18.609375 23.390625 
Q 18.609375 15.53125 22.484375 10.953125 
Q 26.375 6.390625 33.015625 6.390625 
Q 39.65625 6.390625 43.53125 10.953125 
Q 47.40625 15.53125 47.40625 23.390625 
Q 47.40625 31.296875 43.53125 35.828125 
Q 39.65625 40.375 33.015625 40.375 
z
M 52.59375 71.296875 
L 52.59375 62.3125 
Q 48.875 64.0625 45.09375 64.984375 
Q 41.3125 65.921875 37.59375 65.921875 
Q 27.828125 65.921875 22.671875 59.328125 
Q 17.53125 52.734375 16.796875 39.40625 
Q 19.671875 43.65625 24.015625 45.921875 
Q 28.375 48.1875 33.59375 48.1875 
Q 44.578125 48.1875 50.953125 41.515625 
Q 57.328125 34.859375 57.328125 23.390625 
Q 57.328125 12.15625 50.6875 5.359375 
Q 44.046875 -1.421875 33.015625 -1.421875 
Q 20.359375 -1.421875 13.671875 8.265625 
Q 6.984375 17.96875 6.984375 36.375 
Q 6.984375 53.65625 15.1875 63.9375 
Q 23.390625 74.21875 37.203125 74.21875 
Q 40.921875 74.21875 44.703125 73.484375 
Q 48.484375 72.75 52.59375 71.296875 
z
" id="DejaVuSans-54"/>
       </defs>
       <use xlink:href="#DejaVuSans-54"/>
       <use x="63.623047" xlink:href="#DejaVuSans-48"/>
       <use x="127.246094" xlink:href="#DejaVuSans-37"/>
      </g>
     </g>
    </g>
    <g id="xtick_5">
     <g id="line2d_5">
      <g>
       <use style="stroke:#000000;stroke-width:0.8;" x="272.929957" xlink:href="#m21d4209699" y="170.28"/>
      </g>
     </g>
     <g id="text_5">
      <!-- 80% -->
      <g transform="translate(265.150661 182.598906)scale(0.07 -0.07)">
       <defs>
        <path d="M 31.78125 34.625 
Q 24.75 34.625 20.71875 30.859375 
Q 16.703125 27.09375 16.703125 20.515625 
Q 16.703125 13.921875 20.71875 10.15625 
Q 24.75 6.390625 31.78125 6.390625 
Q 38.8125 6.390625 42.859375 10.171875 
Q 46.921875 13.96875 46.921875 20.515625 
Q 46.921875 27.09375 42.890625 30.859375 
Q 38.875 34.625 31.78125 34.625 
z
M 21.921875 38.8125 
Q 15.578125 40.375 12.03125 44.71875 
Q 8.5 49.078125 8.5 55.328125 
Q 8.5 64.0625 14.71875 69.140625 
Q 20.953125 74.21875 31.78125 74.21875 
Q 42.671875 74.21875 48.875 69.140625 
Q 55.078125 64.0625 55.078125 55.328125 
Q 55.078125 49.078125 51.53125 44.71875 
Q 48 40.375 41.703125 38.8125 
Q 48.828125 37.15625 52.796875 32.3125 
Q 56.78125 27.484375 56.78125 20.515625 
Q 56.78125 9.90625 50.3125 4.234375 
Q 43.84375 -1.421875 31.78125 -1.421875 
Q 19.734375 -1.421875 13.25 4.234375 
Q 6.78125 9.90625 6.78125 20.515625 
Q 6.78125 27.484375 10.78125 32.3125 
Q 14.796875 37.15625 21.921875 38.8125 
z
M 18.3125 54.390625 
Q 18.3125 48.734375 21.84375 45.5625 
Q 25.390625 42.390625 31.78125 42.390625 
Q 38.140625 42.390625 41.71875 45.5625 
Q 45.3125 48.734375 45.3125 54.390625 
Q 45.3125 60.0625 41.71875 63.234375 
Q 38.140625 66.40625 31.78125 66.40625 
Q 25.390625 66.40625 21.84375 63.234375 
Q 18.3125 60.0625 18.3125 54.390625 
z
" id="DejaVuSans-56"/>
       </defs>
       <use xlink:href="#DejaVuSans-56"/>
       <use x="63.623047" xlink:href="#DejaVuSans-48"/>
       <use x="127.246094" xlink:href="#DejaVuSans-37"/>
      </g>
     </g>
    </g>
    <g id="text_6">
     <!-- Percentage -->
     <g transform="translate(175.885007 193.373594)scale(0.07 -0.07)">
      <defs>
       <path d="M 19.671875 64.796875 
L 19.671875 37.40625 
L 32.078125 37.40625 
Q 38.96875 37.40625 42.71875 40.96875 
Q 46.484375 44.53125 46.484375 51.125 
Q 46.484375 57.671875 42.71875 61.234375 
Q 38.96875 64.796875 32.078125 64.796875 
z
M 9.8125 72.90625 
L 32.078125 72.90625 
Q 44.34375 72.90625 50.609375 67.359375 
Q 56.890625 61.8125 56.890625 51.125 
Q 56.890625 40.328125 50.609375 34.8125 
Q 44.34375 29.296875 32.078125 29.296875 
L 19.671875 29.296875 
L 19.671875 0 
L 9.8125 0 
z
" id="DejaVuSans-80"/>
       <path d="M 56.203125 29.59375 
L 56.203125 25.203125 
L 14.890625 25.203125 
Q 15.484375 15.921875 20.484375 11.0625 
Q 25.484375 6.203125 34.421875 6.203125 
Q 39.59375 6.203125 44.453125 7.46875 
Q 49.3125 8.734375 54.109375 11.28125 
L 54.109375 2.78125 
Q 49.265625 0.734375 44.1875 -0.34375 
Q 39.109375 -1.421875 33.890625 -1.421875 
Q 20.796875 -1.421875 13.15625 6.1875 
Q 5.515625 13.8125 5.515625 26.8125 
Q 5.515625 40.234375 12.765625 48.109375 
Q 20.015625 56 32.328125 56 
Q 43.359375 56 49.78125 48.890625 
Q 56.203125 41.796875 56.203125 29.59375 
z
M 47.21875 32.234375 
Q 47.125 39.59375 43.09375 43.984375 
Q 39.0625 48.390625 32.421875 48.390625 
Q 24.90625 48.390625 20.390625 44.140625 
Q 15.875 39.890625 15.1875 32.171875 
z
" id="DejaVuSans-101"/>
       <path d="M 41.109375 46.296875 
Q 39.59375 47.171875 37.8125 47.578125 
Q 36.03125 48 33.890625 48 
Q 26.265625 48 22.1875 43.046875 
Q 18.109375 38.09375 18.109375 28.8125 
L 18.109375 0 
L 9.078125 0 
L 9.078125 54.6875 
L 18.109375 54.6875 
L 18.109375 46.1875 
Q 20.953125 51.171875 25.484375 53.578125 
Q 30.03125 56 36.53125 56 
Q 37.453125 56 38.578125 55.875 
Q 39.703125 55.765625 41.0625 55.515625 
z
" id="DejaVuSans-114"/>
       <path d="M 48.78125 52.59375 
L 48.78125 44.1875 
Q 44.96875 46.296875 41.140625 47.34375 
Q 37.3125 48.390625 33.40625 48.390625 
Q 24.65625 48.390625 19.8125 42.84375 
Q 14.984375 37.3125 14.984375 27.296875 
Q 14.984375 17.28125 19.8125 11.734375 
Q 24.65625 6.203125 33.40625 6.203125 
Q 37.3125 6.203125 41.140625 7.25 
Q 44.96875 8.296875 48.78125 10.40625 
L 48.78125 2.09375 
Q 45.015625 0.34375 40.984375 -0.53125 
Q 36.96875 -1.421875 32.421875 -1.421875 
Q 20.0625 -1.421875 12.78125 6.34375 
Q 5.515625 14.109375 5.515625 27.296875 
Q 5.515625 40.671875 12.859375 48.328125 
Q 20.21875 56 33.015625 56 
Q 37.15625 56 41.109375 55.140625 
Q 45.0625 54.296875 48.78125 52.59375 
z
" id="DejaVuSans-99"/>
       <path d="M 54.890625 33.015625 
L 54.890625 0 
L 45.90625 0 
L 45.90625 32.71875 
Q 45.90625 40.484375 42.875 44.328125 
Q 39.84375 48.1875 33.796875 48.1875 
Q 26.515625 48.1875 22.3125 43.546875 
Q 18.109375 38.921875 18.109375 30.90625 
L 18.109375 0 
L 9.078125 0 
L 9.078125 54.6875 
L 18.109375 54.6875 
L 18.109375 46.1875 
Q 21.34375 51.125 25.703125 53.5625 
Q 30.078125 56 35.796875 56 
Q 45.21875 56 50.046875 50.171875 
Q 54.890625 44.34375 54.890625 33.015625 
z
" id="DejaVuSans-110"/>
       <path d="M 18.3125 70.21875 
L 18.3125 54.6875 
L 36.8125 54.6875 
L 36.8125 47.703125 
L 18.3125 47.703125 
L 18.3125 18.015625 
Q 18.3125 11.328125 20.140625 9.421875 
Q 21.96875 7.515625 27.59375 7.515625 
L 36.8125 7.515625 
L 36.8125 0 
L 27.59375 0 
Q 17.1875 0 13.234375 3.875 
Q 9.28125 7.765625 9.28125 18.015625 
L 9.28125 47.703125 
L 2.6875 47.703125 
L 2.6875 54.6875 
L 9.28125 54.6875 
L 9.28125 70.21875 
z
" id="DejaVuSans-116"/>
       <path d="M 34.28125 27.484375 
Q 23.390625 27.484375 19.1875 25 
Q 14.984375 22.515625 14.984375 16.5 
Q 14.984375 11.71875 18.140625 8.90625 
Q 21.296875 6.109375 26.703125 6.109375 
Q 34.1875 6.109375 38.703125 11.40625 
Q 43.21875 16.703125 43.21875 25.484375 
L 43.21875 27.484375 
z
M 52.203125 31.203125 
L 52.203125 0 
L 43.21875 0 
L 43.21875 8.296875 
Q 40.140625 3.328125 35.546875 0.953125 
Q 30.953125 -1.421875 24.3125 -1.421875 
Q 15.921875 -1.421875 10.953125 3.296875 
Q 6 8.015625 6 15.921875 
Q 6 25.140625 12.171875 29.828125 
Q 18.359375 34.515625 30.609375 34.515625 
L 43.21875 34.515625 
L 43.21875 35.40625 
Q 43.21875 41.609375 39.140625 45 
Q 35.0625 48.390625 27.6875 48.390625 
Q 23 48.390625 18.546875 47.265625 
Q 14.109375 46.140625 10.015625 43.890625 
L 10.015625 52.203125 
Q 14.9375 54.109375 19.578125 55.046875 
Q 24.21875 56 28.609375 56 
Q 40.484375 56 46.34375 49.84375 
Q 52.203125 43.703125 52.203125 31.203125 
z
" id="DejaVuSans-97"/>
       <path d="M 45.40625 27.984375 
Q 45.40625 37.75 41.375 43.109375 
Q 37.359375 48.484375 30.078125 48.484375 
Q 22.859375 48.484375 18.828125 43.109375 
Q 14.796875 37.75 14.796875 27.984375 
Q 14.796875 18.265625 18.828125 12.890625 
Q 22.859375 7.515625 30.078125 7.515625 
Q 37.359375 7.515625 41.375 12.890625 
Q 45.40625 18.265625 45.40625 27.984375 
z
M 54.390625 6.78125 
Q 54.390625 -7.171875 48.1875 -13.984375 
Q 42 -20.796875 29.203125 -20.796875 
Q 24.46875 -20.796875 20.265625 -20.09375 
Q 16.0625 -19.390625 12.109375 -17.921875 
L 12.109375 -9.1875 
Q 16.0625 -11.328125 19.921875 -12.34375 
Q 23.78125 -13.375 27.78125 -13.375 
Q 36.625 -13.375 41.015625 -8.765625 
Q 45.40625 -4.15625 45.40625 5.171875 
L 45.40625 9.625 
Q 42.625 4.78125 38.28125 2.390625 
Q 33.9375 0 27.875 0 
Q 17.828125 0 11.671875 7.65625 
Q 5.515625 15.328125 5.515625 27.984375 
Q 5.515625 40.671875 11.671875 48.328125 
Q 17.828125 56 27.875 56 
Q 33.9375 56 38.28125 53.609375 
Q 42.625 51.21875 45.40625 46.390625 
L 45.40625 54.6875 
L 54.390625 54.6875 
z
" id="DejaVuSans-103"/>
      </defs>
      <use xlink:href="#DejaVuSans-80"/>
      <use x="56.677734" xlink:href="#DejaVuSans-101"/>
      <use x="118.201172" xlink:href="#DejaVuSans-114"/>
      <use x="157.064453" xlink:href="#DejaVuSans-99"/>
      <use x="212.044922" xlink:href="#DejaVuSans-101"/>
      <use x="273.568359" xlink:href="#DejaVuSans-110"/>
      <use x="336.947266" xlink:href="#DejaVuSans-116"/>
      <use x="376.15625" xlink:href="#DejaVuSans-97"/>
      <use x="437.435547" xlink:href="#DejaVuSans-103"/>
      <use x="500.912109" xlink:href="#DejaVuSans-101"/>
     </g>
    </g>
   </g>
   <g id="matplotlib.axis_2">
    <g id="ytick_1">
     <g id="line2d_6">
      <defs>
       <path d="M 0 0 
L -3.5 0 
" id="m9fd4d7e786" style="stroke:#000000;stroke-width:0.8;"/>
      </defs>
      <g>
       <use style="stroke:#000000;stroke-width:0.8;" x="70.020866" xlink:href="#m9fd4d7e786" y="161.22"/>
      </g>
     </g>
     <g id="text_7">
      <!-- MSA Average -->
      <g transform="translate(16.64696 163.879453)scale(0.07 -0.07)">
       <defs>
        <path d="M 9.8125 72.90625 
L 24.515625 72.90625 
L 43.109375 23.296875 
L 61.8125 72.90625 
L 76.515625 72.90625 
L 76.515625 0 
L 66.890625 0 
L 66.890625 64.015625 
L 48.09375 14.015625 
L 38.1875 14.015625 
L 19.390625 64.015625 
L 19.390625 0 
L 9.8125 0 
z
" id="DejaVuSans-77"/>
        <path d="M 53.515625 70.515625 
L 53.515625 60.890625 
Q 47.90625 63.578125 42.921875 64.890625 
Q 37.9375 66.21875 33.296875 66.21875 
Q 25.25 66.21875 20.875 63.09375 
Q 16.5 59.96875 16.5 54.203125 
Q 16.5 49.359375 19.40625 46.890625 
Q 22.3125 44.4375 30.421875 42.921875 
L 36.375 41.703125 
Q 47.40625 39.59375 52.65625 34.296875 
Q 57.90625 29 57.90625 20.125 
Q 57.90625 9.515625 50.796875 4.046875 
Q 43.703125 -1.421875 29.984375 -1.421875 
Q 24.8125 -1.421875 18.96875 -0.25 
Q 13.140625 0.921875 6.890625 3.21875 
L 6.890625 13.375 
Q 12.890625 10.015625 18.65625 8.296875 
Q 24.421875 6.59375 29.984375 6.59375 
Q 38.421875 6.59375 43.015625 9.90625 
Q 47.609375 13.234375 47.609375 19.390625 
Q 47.609375 24.75 44.3125 27.78125 
Q 41.015625 30.8125 33.5 32.328125 
L 27.484375 33.5 
Q 16.453125 35.6875 11.515625 40.375 
Q 6.59375 45.0625 6.59375 53.421875 
Q 6.59375 63.09375 13.40625 68.65625 
Q 20.21875 74.21875 32.171875 74.21875 
Q 37.3125 74.21875 42.625 73.28125 
Q 47.953125 72.359375 53.515625 70.515625 
z
" id="DejaVuSans-83"/>
        <path d="M 34.1875 63.1875 
L 20.796875 26.90625 
L 47.609375 26.90625 
z
M 28.609375 72.90625 
L 39.796875 72.90625 
L 67.578125 0 
L 57.328125 0 
L 50.6875 18.703125 
L 17.828125 18.703125 
L 11.1875 0 
L 0.78125 0 
z
" id="DejaVuSans-65"/>
        <path id="DejaVuSans-32"/>
        <path d="M 2.984375 54.6875 
L 12.5 54.6875 
L 29.59375 8.796875 
L 46.6875 54.6875 
L 56.203125 54.6875 
L 35.6875 0 
L 23.484375 0 
z
" id="DejaVuSans-118"/>
       </defs>
       <use xlink:href="#DejaVuSans-77"/>
       <use x="86.279297" xlink:href="#DejaVuSans-83"/>
       <use x="151.630859" xlink:href="#DejaVuSans-65"/>
       <use x="220.039062" xlink:href="#DejaVuSans-32"/>
       <use x="251.826172" xlink:href="#DejaVuSans-65"/>
       <use x="314.359375" xlink:href="#DejaVuSans-118"/>
       <use x="373.539062" xlink:href="#DejaVuSans-101"/>
       <use x="435.0625" xlink:href="#DejaVuSans-114"/>
       <use x="476.175781" xlink:href="#DejaVuSans-97"/>
       <use x="537.455078" xlink:href="#DejaVuSans-103"/>
       <use x="600.931641" xlink:href="#DejaVuSans-101"/>
      </g>
     </g>
    </g>
    <g id="ytick_2">
     <g id="line2d_7">
      <g>
       <use style="stroke:#000000;stroke-width:0.8;" x="70.020866" xlink:href="#m9fd4d7e786" y="143.1"/>
      </g>
     </g>
     <g id="text_8">
      <!-- Cluster VIII -->
      <g transform="translate(24.96821 145.759453)scale(0.07 -0.07)">
       <defs>
        <path d="M 64.40625 67.28125 
L 64.40625 56.890625 
Q 59.421875 61.53125 53.78125 63.8125 
Q 48.140625 66.109375 41.796875 66.109375 
Q 29.296875 66.109375 22.65625 58.46875 
Q 16.015625 50.828125 16.015625 36.375 
Q 16.015625 21.96875 22.65625 14.328125 
Q 29.296875 6.6875 41.796875 6.6875 
Q 48.140625 6.6875 53.78125 8.984375 
Q 59.421875 11.28125 64.40625 15.921875 
L 64.40625 5.609375 
Q 59.234375 2.09375 53.4375 0.328125 
Q 47.65625 -1.421875 41.21875 -1.421875 
Q 24.65625 -1.421875 15.125 8.703125 
Q 5.609375 18.84375 5.609375 36.375 
Q 5.609375 53.953125 15.125 64.078125 
Q 24.65625 74.21875 41.21875 74.21875 
Q 47.75 74.21875 53.53125 72.484375 
Q 59.328125 70.75 64.40625 67.28125 
z
" id="DejaVuSans-67"/>
        <path d="M 9.421875 75.984375 
L 18.40625 75.984375 
L 18.40625 0 
L 9.421875 0 
z
" id="DejaVuSans-108"/>
        <path d="M 8.5 21.578125 
L 8.5 54.6875 
L 17.484375 54.6875 
L 17.484375 21.921875 
Q 17.484375 14.15625 20.5 10.265625 
Q 23.53125 6.390625 29.59375 6.390625 
Q 36.859375 6.390625 41.078125 11.03125 
Q 45.3125 15.671875 45.3125 23.6875 
L 45.3125 54.6875 
L 54.296875 54.6875 
L 54.296875 0 
L 45.3125 0 
L 45.3125 8.40625 
Q 42.046875 3.421875 37.71875 1 
Q 33.40625 -1.421875 27.6875 -1.421875 
Q 18.265625 -1.421875 13.375 4.4375 
Q 8.5 10.296875 8.5 21.578125 
z
M 31.109375 56 
z
" id="DejaVuSans-117"/>
        <path d="M 44.28125 53.078125 
L 44.28125 44.578125 
Q 40.484375 46.53125 36.375 47.5 
Q 32.28125 48.484375 27.875 48.484375 
Q 21.1875 48.484375 17.84375 46.4375 
Q 14.5 44.390625 14.5 40.28125 
Q 14.5 37.15625 16.890625 35.375 
Q 19.28125 33.59375 26.515625 31.984375 
L 29.59375 31.296875 
Q 39.15625 29.25 43.1875 25.515625 
Q 47.21875 21.78125 47.21875 15.09375 
Q 47.21875 7.46875 41.1875 3.015625 
Q 35.15625 -1.421875 24.609375 -1.421875 
Q 20.21875 -1.421875 15.453125 -0.5625 
Q 10.6875 0.296875 5.421875 2 
L 5.421875 11.28125 
Q 10.40625 8.6875 15.234375 7.390625 
Q 20.0625 6.109375 24.8125 6.109375 
Q 31.15625 6.109375 34.5625 8.28125 
Q 37.984375 10.453125 37.984375 14.40625 
Q 37.984375 18.0625 35.515625 20.015625 
Q 33.0625 21.96875 24.703125 23.78125 
L 21.578125 24.515625 
Q 13.234375 26.265625 9.515625 29.90625 
Q 5.8125 33.546875 5.8125 39.890625 
Q 5.8125 47.609375 11.28125 51.796875 
Q 16.75 56 26.8125 56 
Q 31.78125 56 36.171875 55.265625 
Q 40.578125 54.546875 44.28125 53.078125 
z
" id="DejaVuSans-115"/>
        <path d="M 28.609375 0 
L 0.78125 72.90625 
L 11.078125 72.90625 
L 34.1875 11.53125 
L 57.328125 72.90625 
L 67.578125 72.90625 
L 39.796875 0 
z
" id="DejaVuSans-86"/>
        <path d="M 9.8125 72.90625 
L 19.671875 72.90625 
L 19.671875 0 
L 9.8125 0 
z
" id="DejaVuSans-73"/>
       </defs>
       <use xlink:href="#DejaVuSans-67"/>
       <use x="69.824219" xlink:href="#DejaVuSans-108"/>
       <use x="97.607422" xlink:href="#DejaVuSans-117"/>
       <use x="160.986328" xlink:href="#DejaVuSans-115"/>
       <use x="213.085938" xlink:href="#DejaVuSans-116"/>
       <use x="252.294922" xlink:href="#DejaVuSans-101"/>
       <use x="313.818359" xlink:href="#DejaVuSans-114"/>
       <use x="354.931641" xlink:href="#DejaVuSans-32"/>
       <use x="386.71875" xlink:href="#DejaVuSans-86"/>
       <use x="455.126953" xlink:href="#DejaVuSans-73"/>
       <use x="484.619141" xlink:href="#DejaVuSans-73"/>
       <use x="514.111328" xlink:href="#DejaVuSans-73"/>
      </g>
     </g>
    </g>
    <g id="ytick_3">
     <g id="line2d_8">
      <g>
       <use style="stroke:#000000;stroke-width:0.8;" x="70.020866" xlink:href="#m9fd4d7e786" y="124.98"/>
      </g>
     </g>
     <g id="text_9">
      <!-- Cluster VII -->
      <g transform="translate(27.03321 127.639453)scale(0.07 -0.07)">
       <use xlink:href="#DejaVuSans-67"/>
       <use x="69.824219" xlink:href="#DejaVuSans-108"/>
       <use x="97.607422" xlink:href="#DejaVuSans-117"/>
       <use x="160.986328" xlink:href="#DejaVuSans-115"/>
       <use x="213.085938" xlink:href="#DejaVuSans-116"/>
       <use x="252.294922" xlink:href="#DejaVuSans-101"/>
       <use x="313.818359" xlink:href="#DejaVuSans-114"/>
       <use x="354.931641" xlink:href="#DejaVuSans-32"/>
       <use x="386.71875" xlink:href="#DejaVuSans-86"/>
       <use x="455.126953" xlink:href="#DejaVuSans-73"/>
       <use x="484.619141" xlink:href="#DejaVuSans-73"/>
      </g>
     </g>
    </g>
    <g id="ytick_4">
     <g id="line2d_9">
      <g>
       <use style="stroke:#000000;stroke-width:0.8;" x="70.020866" xlink:href="#m9fd4d7e786" y="106.86"/>
      </g>
     </g>
     <g id="text_10">
      <!-- Cluster VI -->
      <g transform="translate(29.09821 109.519453)scale(0.07 -0.07)">
       <use xlink:href="#DejaVuSans-67"/>
       <use x="69.824219" xlink:href="#DejaVuSans-108"/>
       <use x="97.607422" xlink:href="#DejaVuSans-117"/>
       <use x="160.986328" xlink:href="#DejaVuSans-115"/>
       <use x="213.085938" xlink:href="#DejaVuSans-116"/>
       <use x="252.294922" xlink:href="#DejaVuSans-101"/>
       <use x="313.818359" xlink:href="#DejaVuSans-114"/>
       <use x="354.931641" xlink:href="#DejaVuSans-32"/>
       <use x="386.71875" xlink:href="#DejaVuSans-86"/>
       <use x="455.126953" xlink:href="#DejaVuSans-73"/>
      </g>
     </g>
    </g>
    <g id="ytick_5">
     <g id="line2d_10">
      <g>
       <use style="stroke:#000000;stroke-width:0.8;" x="70.020866" xlink:href="#m9fd4d7e786" y="88.74"/>
      </g>
     </g>
     <g id="text_11">
      <!-- Cluster V -->
      <g transform="translate(31.16321 91.399453)scale(0.07 -0.07)">
       <use xlink:href="#DejaVuSans-67"/>
       <use x="69.824219" xlink:href="#DejaVuSans-108"/>
       <use x="97.607422" xlink:href="#DejaVuSans-117"/>
       <use x="160.986328" xlink:href="#DejaVuSans-115"/>
       <use x="213.085938" xlink:href="#DejaVuSans-116"/>
       <use x="252.294922" xlink:href="#DejaVuSans-101"/>
       <use x="313.818359" xlink:href="#DejaVuSans-114"/>
       <use x="354.931641" xlink:href="#DejaVuSans-32"/>
       <use x="386.71875" xlink:href="#DejaVuSans-86"/>
      </g>
     </g>
    </g>
    <g id="ytick_6">
     <g id="line2d_11">
      <g>
       <use style="stroke:#000000;stroke-width:0.8;" x="70.020866" xlink:href="#m9fd4d7e786" y="70.62"/>
      </g>
     </g>
     <g id="text_12">
      <!-- Cluster IV -->
      <g transform="translate(29.09821 73.279453)scale(0.07 -0.07)">
       <use xlink:href="#DejaVuSans-67"/>
       <use x="69.824219" xlink:href="#DejaVuSans-108"/>
       <use x="97.607422" xlink:href="#DejaVuSans-117"/>
       <use x="160.986328" xlink:href="#DejaVuSans-115"/>
       <use x="213.085938" xlink:href="#DejaVuSans-116"/>
       <use x="252.294922" xlink:href="#DejaVuSans-101"/>
       <use x="313.818359" xlink:href="#DejaVuSans-114"/>
       <use x="354.931641" xlink:href="#DejaVuSans-32"/>
       <use x="386.71875" xlink:href="#DejaVuSans-73"/>
       <use x="416.210938" xlink:href="#DejaVuSans-86"/>
      </g>
     </g>
    </g>
    <g id="ytick_7">
     <g id="line2d_12">
      <g>
       <use style="stroke:#000000;stroke-width:0.8;" x="70.020866" xlink:href="#m9fd4d7e786" y="52.5"/>
      </g>
     </g>
     <g id="text_13">
      <!-- Cluster III -->
      <g transform="translate(29.756648 55.159453)scale(0.07 -0.07)">
       <use xlink:href="#DejaVuSans-67"/>
       <use x="69.824219" xlink:href="#DejaVuSans-108"/>
       <use x="97.607422" xlink:href="#DejaVuSans-117"/>
       <use x="160.986328" xlink:href="#DejaVuSans-115"/>
       <use x="213.085938" xlink:href="#DejaVuSans-116"/>
       <use x="252.294922" xlink:href="#DejaVuSans-101"/>
       <use x="313.818359" xlink:href="#DejaVuSans-114"/>
       <use x="354.931641" xlink:href="#DejaVuSans-32"/>
       <use x="386.71875" xlink:href="#DejaVuSans-73"/>
       <use x="416.210938" xlink:href="#DejaVuSans-73"/>
       <use x="445.703125" xlink:href="#DejaVuSans-73"/>
      </g>
     </g>
    </g>
    <g id="ytick_8">
     <g id="line2d_13">
      <g>
       <use style="stroke:#000000;stroke-width:0.8;" x="70.020866" xlink:href="#m9fd4d7e786" y="34.38"/>
      </g>
     </g>
     <g id="text_14">
      <!-- Cluster II -->
      <g transform="translate(31.821648 37.039453)scale(0.07 -0.07)">
       <use xlink:href="#DejaVuSans-67"/>
       <use x="69.824219" xlink:href="#DejaVuSans-108"/>
       <use x="97.607422" xlink:href="#DejaVuSans-117"/>
       <use x="160.986328" xlink:href="#DejaVuSans-115"/>
       <use x="213.085938" xlink:href="#DejaVuSans-116"/>
       <use x="252.294922" xlink:href="#DejaVuSans-101"/>
       <use x="313.818359" xlink:href="#DejaVuSans-114"/>
       <use x="354.931641" xlink:href="#DejaVuSans-32"/>
       <use x="386.71875" xlink:href="#DejaVuSans-73"/>
       <use x="416.210938" xlink:href="#DejaVuSans-73"/>
      </g>
     </g>
    </g>
    <g id="ytick_9">
     <g id="line2d_14">
      <g>
       <use style="stroke:#000000;stroke-width:0.8;" x="70.020866" xlink:href="#m9fd4d7e786" y="16.26"/>
      </g>
     </g>
     <g id="text_15">
      <!-- Cluster I -->
      <g transform="translate(33.886648 18.919453)scale(0.07 -0.07)">
       <use xlink:href="#DejaVuSans-67"/>
       <use x="69.824219" xlink:href="#DejaVuSans-108"/>
       <use x="97.607422" xlink:href="#DejaVuSans-117"/>
       <use x="160.986328" xlink:href="#DejaVuSans-115"/>
       <use x="213.085938" xlink:href="#DejaVuSans-116"/>
       <use x="252.294922" xlink:href="#DejaVuSans-101"/>
       <use x="313.818359" xlink:href="#DejaVuSans-114"/>
       <use x="354.931641" xlink:href="#DejaVuSans-32"/>
       <use x="386.71875" xlink:href="#DejaVuSans-73"/>
      </g>
     </g>
    </g>
   </g>
   <g id="patch_102">
    <path d="M 70.020866 170.28 
L 70.020866 7.2 
" style="fill:none;stroke:#000000;stroke-linecap:square;stroke-linejoin:miter;stroke-width:0.5;"/>
   </g>
   <g id="patch_103">
    <path d="M 321.120866 170.28 
L 321.120866 7.2 
" style="fill:none;stroke:#000000;stroke-linecap:square;stroke-linejoin:miter;stroke-width:0.5;"/>
   </g>
   <g id="patch_104">
    <path d="M 70.020866 170.28 
L 321.120866 170.28 
" style="fill:none;stroke:#000000;stroke-linecap:square;stroke-linejoin:miter;stroke-width:0.5;"/>
   </g>
   <g id="patch_105">
    <path d="M 70.020866 7.2 
L 321.120866 7.2 
" style="fill:none;stroke:#000000;stroke-linecap:square;stroke-linejoin:miter;stroke-width:0.5;"/>
   </g>
   <g id="text_16">
    <!--     Low -->
    <g transform="translate(12.518906 41.628)rotate(-90)scale(0.07 -0.07)">
     <defs>
      <path d="M 9.8125 72.90625 
L 19.671875 72.90625 
L 19.671875 8.296875 
L 55.171875 8.296875 
L 55.171875 0 
L 9.8125 0 
z
" id="DejaVuSans-76"/>
      <path d="M 30.609375 48.390625 
Q 23.390625 48.390625 19.1875 42.75 
Q 14.984375 37.109375 14.984375 27.296875 
Q 14.984375 17.484375 19.15625 11.84375 
Q 23.34375 6.203125 30.609375 6.203125 
Q 37.796875 6.203125 41.984375 11.859375 
Q 46.1875 17.53125 46.1875 27.296875 
Q 46.1875 37.015625 41.984375 42.703125 
Q 37.796875 48.390625 30.609375 48.390625 
z
M 30.609375 56 
Q 42.328125 56 49.015625 48.375 
Q 55.71875 40.765625 55.71875 27.296875 
Q 55.71875 13.875 49.015625 6.21875 
Q 42.328125 -1.421875 30.609375 -1.421875 
Q 18.84375 -1.421875 12.171875 6.21875 
Q 5.515625 13.875 5.515625 27.296875 
Q 5.515625 40.765625 12.171875 48.375 
Q 18.84375 56 30.609375 56 
z
" id="DejaVuSans-111"/>
      <path d="M 4.203125 54.6875 
L 13.1875 54.6875 
L 24.421875 12.015625 
L 35.59375 54.6875 
L 46.1875 54.6875 
L 57.421875 12.015625 
L 68.609375 54.6875 
L 77.59375 54.6875 
L 63.28125 0 
L 52.6875 0 
L 40.921875 44.828125 
L 29.109375 0 
L 18.5 0 
z
" id="DejaVuSans-119"/>
     </defs>
     <use xlink:href="#DejaVuSans-32"/>
     <use x="31.787109" xlink:href="#DejaVuSans-32"/>
     <use x="63.574219" xlink:href="#DejaVuSans-32"/>
     <use x="95.361328" xlink:href="#DejaVuSans-32"/>
     <use x="127.148438" xlink:href="#DejaVuSans-76"/>
     <use x="181.111328" xlink:href="#DejaVuSans-111"/>
     <use x="242.292969" xlink:href="#DejaVuSans-119"/>
    </g>
    <!-- incidence -->
    <g transform="translate(20.357375 41.628)rotate(-90)scale(0.07 -0.07)">
     <defs>
      <path d="M 9.421875 54.6875 
L 18.40625 54.6875 
L 18.40625 0 
L 9.421875 0 
z
M 9.421875 75.984375 
L 18.40625 75.984375 
L 18.40625 64.59375 
L 9.421875 64.59375 
z
" id="DejaVuSans-105"/>
      <path d="M 45.40625 46.390625 
L 45.40625 75.984375 
L 54.390625 75.984375 
L 54.390625 0 
L 45.40625 0 
L 45.40625 8.203125 
Q 42.578125 3.328125 38.25 0.953125 
Q 33.9375 -1.421875 27.875 -1.421875 
Q 17.96875 -1.421875 11.734375 6.484375 
Q 5.515625 14.40625 5.515625 27.296875 
Q 5.515625 40.1875 11.734375 48.09375 
Q 17.96875 56 27.875 56 
Q 33.9375 56 38.25 53.625 
Q 42.578125 51.265625 45.40625 46.390625 
z
M 14.796875 27.296875 
Q 14.796875 17.390625 18.875 11.75 
Q 22.953125 6.109375 30.078125 6.109375 
Q 37.203125 6.109375 41.296875 11.75 
Q 45.40625 17.390625 45.40625 27.296875 
Q 45.40625 37.203125 41.296875 42.84375 
Q 37.203125 48.484375 30.078125 48.484375 
Q 22.953125 48.484375 18.875 42.84375 
Q 14.796875 37.203125 14.796875 27.296875 
z
" id="DejaVuSans-100"/>
     </defs>
     <use xlink:href="#DejaVuSans-105"/>
     <use x="27.783203" xlink:href="#DejaVuSans-110"/>
     <use x="91.162109" xlink:href="#DejaVuSans-99"/>
     <use x="146.142578" xlink:href="#DejaVuSans-105"/>
     <use x="173.925781" xlink:href="#DejaVuSans-100"/>
     <use x="237.402344" xlink:href="#DejaVuSans-101"/>
     <use x="298.925781" xlink:href="#DejaVuSans-110"/>
     <use x="362.304688" xlink:href="#DejaVuSans-99"/>
     <use x="417.285156" xlink:href="#DejaVuSans-101"/>
    </g>
   </g>
   <g id="text_17">
    <!--  Medium -->
    <g transform="translate(12.518906 84.21)rotate(-90)scale(0.07 -0.07)">
     <defs>
      <path d="M 52 44.1875 
Q 55.375 50.25 60.0625 53.125 
Q 64.75 56 71.09375 56 
Q 79.640625 56 84.28125 50.015625 
Q 88.921875 44.046875 88.921875 33.015625 
L 88.921875 0 
L 79.890625 0 
L 79.890625 32.71875 
Q 79.890625 40.578125 77.09375 44.375 
Q 74.3125 48.1875 68.609375 48.1875 
Q 61.625 48.1875 57.5625 43.546875 
Q 53.515625 38.921875 53.515625 30.90625 
L 53.515625 0 
L 44.484375 0 
L 44.484375 32.71875 
Q 44.484375 40.625 41.703125 44.40625 
Q 38.921875 48.1875 33.109375 48.1875 
Q 26.21875 48.1875 22.15625 43.53125 
Q 18.109375 38.875 18.109375 30.90625 
L 18.109375 0 
L 9.078125 0 
L 9.078125 54.6875 
L 18.109375 54.6875 
L 18.109375 46.1875 
Q 21.1875 51.21875 25.484375 53.609375 
Q 29.78125 56 35.6875 56 
Q 41.65625 56 45.828125 52.96875 
Q 50 49.953125 52 44.1875 
z
" id="DejaVuSans-109"/>
     </defs>
     <use xlink:href="#DejaVuSans-32"/>
     <use x="31.787109" xlink:href="#DejaVuSans-77"/>
     <use x="118.066406" xlink:href="#DejaVuSans-101"/>
     <use x="179.589844" xlink:href="#DejaVuSans-100"/>
     <use x="243.066406" xlink:href="#DejaVuSans-105"/>
     <use x="270.849609" xlink:href="#DejaVuSans-117"/>
     <use x="334.228516" xlink:href="#DejaVuSans-109"/>
    </g>
    <!-- incidence -->
    <g transform="translate(20.357375 84.21)rotate(-90)scale(0.07 -0.07)">
     <use xlink:href="#DejaVuSans-105"/>
     <use x="27.783203" xlink:href="#DejaVuSans-110"/>
     <use x="91.162109" xlink:href="#DejaVuSans-99"/>
     <use x="146.142578" xlink:href="#DejaVuSans-105"/>
     <use x="173.925781" xlink:href="#DejaVuSans-100"/>
     <use x="237.402344" xlink:href="#DejaVuSans-101"/>
     <use x="298.925781" xlink:href="#DejaVuSans-110"/>
     <use x="362.304688" xlink:href="#DejaVuSans-99"/>
     <use x="417.285156" xlink:href="#DejaVuSans-101"/>
    </g>
   </g>
   <g id="text_18">
    <!--     High -->
    <g transform="translate(12.518906 138.57)rotate(-90)scale(0.07 -0.07)">
     <defs>
      <path d="M 9.8125 72.90625 
L 19.671875 72.90625 
L 19.671875 43.015625 
L 55.515625 43.015625 
L 55.515625 72.90625 
L 65.375 72.90625 
L 65.375 0 
L 55.515625 0 
L 55.515625 34.71875 
L 19.671875 34.71875 
L 19.671875 0 
L 9.8125 0 
z
" id="DejaVuSans-72"/>
      <path d="M 54.890625 33.015625 
L 54.890625 0 
L 45.90625 0 
L 45.90625 32.71875 
Q 45.90625 40.484375 42.875 44.328125 
Q 39.84375 48.1875 33.796875 48.1875 
Q 26.515625 48.1875 22.3125 43.546875 
Q 18.109375 38.921875 18.109375 30.90625 
L 18.109375 0 
L 9.078125 0 
L 9.078125 75.984375 
L 18.109375 75.984375 
L 18.109375 46.1875 
Q 21.34375 51.125 25.703125 53.5625 
Q 30.078125 56 35.796875 56 
Q 45.21875 56 50.046875 50.171875 
Q 54.890625 44.34375 54.890625 33.015625 
z
" id="DejaVuSans-104"/>
     </defs>
     <use xlink:href="#DejaVuSans-32"/>
     <use x="31.787109" xlink:href="#DejaVuSans-32"/>
     <use x="63.574219" xlink:href="#DejaVuSans-32"/>
     <use x="95.361328" xlink:href="#DejaVuSans-32"/>
     <use x="127.148438" xlink:href="#DejaVuSans-72"/>
     <use x="202.34375" xlink:href="#DejaVuSans-105"/>
     <use x="230.126953" xlink:href="#DejaVuSans-103"/>
     <use x="293.603516" xlink:href="#DejaVuSans-104"/>
    </g>
    <!-- incidence -->
    <g transform="translate(20.357375 138.57)rotate(-90)scale(0.07 -0.07)">
     <use xlink:href="#DejaVuSans-105"/>
     <use x="27.783203" xlink:href="#DejaVuSans-110"/>
     <use x="91.162109" xlink:href="#DejaVuSans-99"/>
     <use x="146.142578" xlink:href="#DejaVuSans-105"/>
     <use x="173.925781" xlink:href="#DejaVuSans-100"/>
     <use x="237.402344" xlink:href="#DejaVuSans-101"/>
     <use x="298.925781" xlink:href="#DejaVuSans-110"/>
     <use x="362.304688" xlink:href="#DejaVuSans-99"/>
     <use x="417.285156" xlink:href="#DejaVuSans-101"/>
    </g>
   </g>
  </g>
  <g id="axes_2">
   <g id="patch_106">
    <path d="M 327.600866 169.2 
L 441.000866 169.2 
L 441.000866 7.2 
L 327.600866 7.2 
z
" style="fill:#ffffff;"/>
   </g>
   <g id="matplotlib.axis_3"/>
   <g id="matplotlib.axis_4"/>
   <g id="line2d_15">
    <path clip-path="url(#pc0b5758ce8)" d="M 338.940866 15.3 
L 344.610866 15.3 
" style="fill:none;stroke:#135eae;stroke-linecap:square;stroke-width:10;"/>
   </g>
   <g id="line2d_16">
    <path clip-path="url(#pc0b5758ce8)" d="M 338.940866 29.88 
L 344.610866 29.88 
" style="fill:none;stroke:#d37295;stroke-linecap:square;stroke-width:10;"/>
   </g>
   <g id="line2d_17">
    <path clip-path="url(#pc0b5758ce8)" d="M 338.940866 44.46 
L 344.610866 44.46 
" style="fill:none;stroke:#79706e;stroke-linecap:square;stroke-width:10;"/>
   </g>
   <g id="line2d_18">
    <path clip-path="url(#pc0b5758ce8)" d="M 338.940866 59.04 
L 344.610866 59.04 
" style="fill:none;stroke:#489894;stroke-linecap:square;stroke-width:10;"/>
   </g>
   <g id="line2d_19">
    <path clip-path="url(#pc0b5758ce8)" d="M 338.940866 73.62 
L 344.610866 73.62 
" style="fill:none;stroke:#e15759;stroke-linecap:square;stroke-width:10;"/>
   </g>
   <g id="line2d_20">
    <path clip-path="url(#pc0b5758ce8)" d="M 338.940866 88.2 
L 344.610866 88.2 
" style="fill:none;stroke:#b6992e;stroke-linecap:square;stroke-width:10;"/>
   </g>
   <g id="line2d_21">
    <path clip-path="url(#pc0b5758ce8)" d="M 338.940866 102.78 
L 344.610866 102.78 
" style="fill:none;stroke:#f1ce63;stroke-linecap:square;stroke-width:10;"/>
   </g>
   <g id="line2d_22">
    <path clip-path="url(#pc0b5758ce8)" d="M 338.940866 117.36 
L 344.610866 117.36 
" style="fill:none;stroke:#59a14f;stroke-linecap:square;stroke-width:10;"/>
   </g>
   <g id="line2d_23">
    <path clip-path="url(#pc0b5758ce8)" d="M 338.940866 131.94 
L 344.610866 131.94 
" style="fill:none;stroke:#ffbe7e;stroke-linecap:square;stroke-width:10;"/>
   </g>
   <g id="line2d_24">
    <path clip-path="url(#pc0b5758ce8)" d="M 338.940866 146.52 
L 344.610866 146.52 
" style="fill:none;stroke:#f28e2c;stroke-linecap:square;stroke-width:10;"/>
   </g>
   <g id="line2d_25">
    <path clip-path="url(#pc0b5758ce8)" d="M 338.940866 161.1 
L 344.610866 161.1 
" style="fill:none;stroke:#a0cbe8;stroke-linecap:square;stroke-width:10;"/>
   </g>
   <g id="patch_107">
    <path d="M 327.600866 169.2 
L 327.600866 7.2 
" style="fill:none;stroke:#000000;stroke-linecap:square;stroke-linejoin:miter;stroke-width:0.5;"/>
   </g>
   <g id="patch_108">
    <path d="M 441.000866 169.2 
L 441.000866 7.2 
" style="fill:none;stroke:#000000;stroke-linecap:square;stroke-linejoin:miter;stroke-width:0.5;"/>
   </g>
   <g id="patch_109">
    <path d="M 327.600866 169.2 
L 441.000866 169.2 
" style="fill:none;stroke:#000000;stroke-linecap:square;stroke-linejoin:miter;stroke-width:0.5;"/>
   </g>
   <g id="patch_110">
    <path d="M 327.600866 7.2 
L 441.000866 7.2 
" style="fill:none;stroke:#000000;stroke-linecap:square;stroke-linejoin:miter;stroke-width:0.5;"/>
   </g>
   <g id="text_19">
    <!-- Agriculture/Forestry -->
    <g transform="translate(353.115866 16.92)scale(0.07 -0.07)">
     <defs>
      <path d="M 25.390625 72.90625 
L 33.6875 72.90625 
L 8.296875 -9.28125 
L 0 -9.28125 
z
" id="DejaVuSans-47"/>
      <path d="M 9.8125 72.90625 
L 51.703125 72.90625 
L 51.703125 64.59375 
L 19.671875 64.59375 
L 19.671875 43.109375 
L 48.578125 43.109375 
L 48.578125 34.8125 
L 19.671875 34.8125 
L 19.671875 0 
L 9.8125 0 
z
" id="DejaVuSans-70"/>
      <path d="M 32.171875 -5.078125 
Q 28.375 -14.84375 24.75 -17.8125 
Q 21.140625 -20.796875 15.09375 -20.796875 
L 7.90625 -20.796875 
L 7.90625 -13.28125 
L 13.1875 -13.28125 
Q 16.890625 -13.28125 18.9375 -11.515625 
Q 21 -9.765625 23.484375 -3.21875 
L 25.09375 0.875 
L 2.984375 54.6875 
L 12.5 54.6875 
L 29.59375 11.921875 
L 46.6875 54.6875 
L 56.203125 54.6875 
z
" id="DejaVuSans-121"/>
     </defs>
     <use xlink:href="#DejaVuSans-65"/>
     <use x="68.408203" xlink:href="#DejaVuSans-103"/>
     <use x="131.884766" xlink:href="#DejaVuSans-114"/>
     <use x="172.998047" xlink:href="#DejaVuSans-105"/>
     <use x="200.78125" xlink:href="#DejaVuSans-99"/>
     <use x="255.761719" xlink:href="#DejaVuSans-117"/>
     <use x="319.140625" xlink:href="#DejaVuSans-108"/>
     <use x="346.923828" xlink:href="#DejaVuSans-116"/>
     <use x="386.132812" xlink:href="#DejaVuSans-117"/>
     <use x="449.511719" xlink:href="#DejaVuSans-114"/>
     <use x="488.375" xlink:href="#DejaVuSans-101"/>
     <use x="549.898438" xlink:href="#DejaVuSans-47"/>
     <use x="583.589844" xlink:href="#DejaVuSans-70"/>
     <use x="637.484375" xlink:href="#DejaVuSans-111"/>
     <use x="698.666016" xlink:href="#DejaVuSans-114"/>
     <use x="737.529297" xlink:href="#DejaVuSans-101"/>
     <use x="799.052734" xlink:href="#DejaVuSans-115"/>
     <use x="851.152344" xlink:href="#DejaVuSans-116"/>
     <use x="890.361328" xlink:href="#DejaVuSans-114"/>
     <use x="931.474609" xlink:href="#DejaVuSans-121"/>
    </g>
   </g>
   <g id="text_20">
    <!-- Mining -->
    <g transform="translate(353.115866 31.5)scale(0.07 -0.07)">
     <use xlink:href="#DejaVuSans-77"/>
     <use x="86.279297" xlink:href="#DejaVuSans-105"/>
     <use x="114.0625" xlink:href="#DejaVuSans-110"/>
     <use x="177.441406" xlink:href="#DejaVuSans-105"/>
     <use x="205.224609" xlink:href="#DejaVuSans-110"/>
     <use x="268.603516" xlink:href="#DejaVuSans-103"/>
    </g>
   </g>
   <g id="text_21">
    <!-- Utilities -->
    <g transform="translate(353.115866 46.89)scale(0.07 -0.07)">
     <defs>
      <path d="M 8.6875 72.90625 
L 18.609375 72.90625 
L 18.609375 28.609375 
Q 18.609375 16.890625 22.84375 11.734375 
Q 27.09375 6.59375 36.625 6.59375 
Q 46.09375 6.59375 50.34375 11.734375 
Q 54.59375 16.890625 54.59375 28.609375 
L 54.59375 72.90625 
L 64.5 72.90625 
L 64.5 27.390625 
Q 64.5 13.140625 57.4375 5.859375 
Q 50.390625 -1.421875 36.625 -1.421875 
Q 22.796875 -1.421875 15.734375 5.859375 
Q 8.6875 13.140625 8.6875 27.390625 
z
" id="DejaVuSans-85"/>
     </defs>
     <use xlink:href="#DejaVuSans-85"/>
     <use x="73.193359" xlink:href="#DejaVuSans-116"/>
     <use x="112.402344" xlink:href="#DejaVuSans-105"/>
     <use x="140.185547" xlink:href="#DejaVuSans-108"/>
     <use x="167.96875" xlink:href="#DejaVuSans-105"/>
     <use x="195.751953" xlink:href="#DejaVuSans-116"/>
     <use x="234.960938" xlink:href="#DejaVuSans-105"/>
     <use x="262.744141" xlink:href="#DejaVuSans-101"/>
     <use x="324.267578" xlink:href="#DejaVuSans-115"/>
    </g>
   </g>
   <g id="text_22">
    <!-- Manufacturing -->
    <g transform="translate(353.115866 61.47)scale(0.07 -0.07)">
     <defs>
      <path d="M 37.109375 75.984375 
L 37.109375 68.5 
L 28.515625 68.5 
Q 23.6875 68.5 21.796875 66.546875 
Q 19.921875 64.59375 19.921875 59.515625 
L 19.921875 54.6875 
L 34.71875 54.6875 
L 34.71875 47.703125 
L 19.921875 47.703125 
L 19.921875 0 
L 10.890625 0 
L 10.890625 47.703125 
L 2.296875 47.703125 
L 2.296875 54.6875 
L 10.890625 54.6875 
L 10.890625 58.5 
Q 10.890625 67.625 15.140625 71.796875 
Q 19.390625 75.984375 28.609375 75.984375 
z
" id="DejaVuSans-102"/>
     </defs>
     <use xlink:href="#DejaVuSans-77"/>
     <use x="86.279297" xlink:href="#DejaVuSans-97"/>
     <use x="147.558594" xlink:href="#DejaVuSans-110"/>
     <use x="210.9375" xlink:href="#DejaVuSans-117"/>
     <use x="274.316406" xlink:href="#DejaVuSans-102"/>
     <use x="309.521484" xlink:href="#DejaVuSans-97"/>
     <use x="370.800781" xlink:href="#DejaVuSans-99"/>
     <use x="425.78125" xlink:href="#DejaVuSans-116"/>
     <use x="464.990234" xlink:href="#DejaVuSans-117"/>
     <use x="528.369141" xlink:href="#DejaVuSans-114"/>
     <use x="569.482422" xlink:href="#DejaVuSans-105"/>
     <use x="597.265625" xlink:href="#DejaVuSans-110"/>
     <use x="660.644531" xlink:href="#DejaVuSans-103"/>
    </g>
   </g>
   <g id="text_23">
    <!-- Transportation/ -->
    <g transform="translate(353.115866 71.705312)scale(0.07 -0.07)">
     <defs>
      <path d="M -0.296875 72.90625 
L 61.375 72.90625 
L 61.375 64.59375 
L 35.5 64.59375 
L 35.5 0 
L 25.59375 0 
L 25.59375 64.59375 
L -0.296875 64.59375 
z
" id="DejaVuSans-84"/>
      <path d="M 18.109375 8.203125 
L 18.109375 -20.796875 
L 9.078125 -20.796875 
L 9.078125 54.6875 
L 18.109375 54.6875 
L 18.109375 46.390625 
Q 20.953125 51.265625 25.265625 53.625 
Q 29.59375 56 35.59375 56 
Q 45.5625 56 51.78125 48.09375 
Q 58.015625 40.1875 58.015625 27.296875 
Q 58.015625 14.40625 51.78125 6.484375 
Q 45.5625 -1.421875 35.59375 -1.421875 
Q 29.59375 -1.421875 25.265625 0.953125 
Q 20.953125 3.328125 18.109375 8.203125 
z
M 48.6875 27.296875 
Q 48.6875 37.203125 44.609375 42.84375 
Q 40.53125 48.484375 33.40625 48.484375 
Q 26.265625 48.484375 22.1875 42.84375 
Q 18.109375 37.203125 18.109375 27.296875 
Q 18.109375 17.390625 22.1875 11.75 
Q 26.265625 6.109375 33.40625 6.109375 
Q 40.53125 6.109375 44.609375 11.75 
Q 48.6875 17.390625 48.6875 27.296875 
z
" id="DejaVuSans-112"/>
     </defs>
     <use xlink:href="#DejaVuSans-84"/>
     <use x="46.333984" xlink:href="#DejaVuSans-114"/>
     <use x="87.447266" xlink:href="#DejaVuSans-97"/>
     <use x="148.726562" xlink:href="#DejaVuSans-110"/>
     <use x="212.105469" xlink:href="#DejaVuSans-115"/>
     <use x="264.205078" xlink:href="#DejaVuSans-112"/>
     <use x="327.681641" xlink:href="#DejaVuSans-111"/>
     <use x="388.863281" xlink:href="#DejaVuSans-114"/>
     <use x="429.976562" xlink:href="#DejaVuSans-116"/>
     <use x="469.185547" xlink:href="#DejaVuSans-97"/>
     <use x="530.464844" xlink:href="#DejaVuSans-116"/>
     <use x="569.673828" xlink:href="#DejaVuSans-105"/>
     <use x="597.457031" xlink:href="#DejaVuSans-111"/>
     <use x="658.638672" xlink:href="#DejaVuSans-110"/>
     <use x="722.017578" xlink:href="#DejaVuSans-47"/>
    </g>
    <!-- Warehousing -->
    <g transform="translate(353.115866 79.543781)scale(0.07 -0.07)">
     <defs>
      <path d="M 3.328125 72.90625 
L 13.28125 72.90625 
L 28.609375 11.28125 
L 43.890625 72.90625 
L 54.984375 72.90625 
L 70.3125 11.28125 
L 85.59375 72.90625 
L 95.609375 72.90625 
L 77.296875 0 
L 64.890625 0 
L 49.515625 63.28125 
L 33.984375 0 
L 21.578125 0 
z
" id="DejaVuSans-87"/>
     </defs>
     <use xlink:href="#DejaVuSans-87"/>
     <use x="92.501953" xlink:href="#DejaVuSans-97"/>
     <use x="153.78125" xlink:href="#DejaVuSans-114"/>
     <use x="192.644531" xlink:href="#DejaVuSans-101"/>
     <use x="254.167969" xlink:href="#DejaVuSans-104"/>
     <use x="317.546875" xlink:href="#DejaVuSans-111"/>
     <use x="378.728516" xlink:href="#DejaVuSans-117"/>
     <use x="442.107422" xlink:href="#DejaVuSans-115"/>
     <use x="494.207031" xlink:href="#DejaVuSans-105"/>
     <use x="521.990234" xlink:href="#DejaVuSans-110"/>
     <use x="585.369141" xlink:href="#DejaVuSans-103"/>
    </g>
   </g>
   <g id="text_24">
    <!-- Real estate/Leasing -->
    <g transform="translate(353.115866 89.82)scale(0.07 -0.07)">
     <defs>
      <path d="M 44.390625 34.1875 
Q 47.5625 33.109375 50.5625 29.59375 
Q 53.5625 26.078125 56.59375 19.921875 
L 66.609375 0 
L 56 0 
L 46.6875 18.703125 
Q 43.0625 26.03125 39.671875 28.421875 
Q 36.28125 30.8125 30.421875 30.8125 
L 19.671875 30.8125 
L 19.671875 0 
L 9.8125 0 
L 9.8125 72.90625 
L 32.078125 72.90625 
Q 44.578125 72.90625 50.734375 67.671875 
Q 56.890625 62.453125 56.890625 51.90625 
Q 56.890625 45.015625 53.6875 40.46875 
Q 50.484375 35.9375 44.390625 34.1875 
z
M 19.671875 64.796875 
L 19.671875 38.921875 
L 32.078125 38.921875 
Q 39.203125 38.921875 42.84375 42.21875 
Q 46.484375 45.515625 46.484375 51.90625 
Q 46.484375 58.296875 42.84375 61.546875 
Q 39.203125 64.796875 32.078125 64.796875 
z
" id="DejaVuSans-82"/>
     </defs>
     <use xlink:href="#DejaVuSans-82"/>
     <use x="64.982422" xlink:href="#DejaVuSans-101"/>
     <use x="126.505859" xlink:href="#DejaVuSans-97"/>
     <use x="187.785156" xlink:href="#DejaVuSans-108"/>
     <use x="215.568359" xlink:href="#DejaVuSans-32"/>
     <use x="247.355469" xlink:href="#DejaVuSans-101"/>
     <use x="308.878906" xlink:href="#DejaVuSans-115"/>
     <use x="360.978516" xlink:href="#DejaVuSans-116"/>
     <use x="400.1875" xlink:href="#DejaVuSans-97"/>
     <use x="461.466797" xlink:href="#DejaVuSans-116"/>
     <use x="500.675781" xlink:href="#DejaVuSans-101"/>
     <use x="562.199219" xlink:href="#DejaVuSans-47"/>
     <use x="595.890625" xlink:href="#DejaVuSans-76"/>
     <use x="649.853516" xlink:href="#DejaVuSans-101"/>
     <use x="711.376953" xlink:href="#DejaVuSans-97"/>
     <use x="772.65625" xlink:href="#DejaVuSans-115"/>
     <use x="824.755859" xlink:href="#DejaVuSans-105"/>
     <use x="852.539062" xlink:href="#DejaVuSans-110"/>
     <use x="915.917969" xlink:href="#DejaVuSans-103"/>
    </g>
   </g>
   <g id="text_25">
    <!-- Health/Social -->
    <g transform="translate(353.115866 99.245312)scale(0.07 -0.07)">
     <use xlink:href="#DejaVuSans-72"/>
     <use x="75.195312" xlink:href="#DejaVuSans-101"/>
     <use x="136.71875" xlink:href="#DejaVuSans-97"/>
     <use x="197.998047" xlink:href="#DejaVuSans-108"/>
     <use x="225.78125" xlink:href="#DejaVuSans-116"/>
     <use x="264.990234" xlink:href="#DejaVuSans-104"/>
     <use x="328.369141" xlink:href="#DejaVuSans-47"/>
     <use x="362.060547" xlink:href="#DejaVuSans-83"/>
     <use x="425.537109" xlink:href="#DejaVuSans-111"/>
     <use x="486.71875" xlink:href="#DejaVuSans-99"/>
     <use x="541.699219" xlink:href="#DejaVuSans-105"/>
     <use x="569.482422" xlink:href="#DejaVuSans-97"/>
     <use x="630.761719" xlink:href="#DejaVuSans-108"/>
    </g>
    <!-- assistance -->
    <g transform="translate(353.115866 107.083781)scale(0.07 -0.07)">
     <use xlink:href="#DejaVuSans-97"/>
     <use x="61.279297" xlink:href="#DejaVuSans-115"/>
     <use x="113.378906" xlink:href="#DejaVuSans-115"/>
     <use x="165.478516" xlink:href="#DejaVuSans-105"/>
     <use x="193.261719" xlink:href="#DejaVuSans-115"/>
     <use x="245.361328" xlink:href="#DejaVuSans-116"/>
     <use x="284.570312" xlink:href="#DejaVuSans-97"/>
     <use x="345.849609" xlink:href="#DejaVuSans-110"/>
     <use x="409.228516" xlink:href="#DejaVuSans-99"/>
     <use x="464.208984" xlink:href="#DejaVuSans-101"/>
    </g>
   </g>
   <g id="text_26">
    <!-- Public administration -->
    <g transform="translate(353.115866 118.98)scale(0.07 -0.07)">
     <defs>
      <path d="M 48.6875 27.296875 
Q 48.6875 37.203125 44.609375 42.84375 
Q 40.53125 48.484375 33.40625 48.484375 
Q 26.265625 48.484375 22.1875 42.84375 
Q 18.109375 37.203125 18.109375 27.296875 
Q 18.109375 17.390625 22.1875 11.75 
Q 26.265625 6.109375 33.40625 6.109375 
Q 40.53125 6.109375 44.609375 11.75 
Q 48.6875 17.390625 48.6875 27.296875 
z
M 18.109375 46.390625 
Q 20.953125 51.265625 25.265625 53.625 
Q 29.59375 56 35.59375 56 
Q 45.5625 56 51.78125 48.09375 
Q 58.015625 40.1875 58.015625 27.296875 
Q 58.015625 14.40625 51.78125 6.484375 
Q 45.5625 -1.421875 35.59375 -1.421875 
Q 29.59375 -1.421875 25.265625 0.953125 
Q 20.953125 3.328125 18.109375 8.203125 
L 18.109375 0 
L 9.078125 0 
L 9.078125 75.984375 
L 18.109375 75.984375 
z
" id="DejaVuSans-98"/>
     </defs>
     <use xlink:href="#DejaVuSans-80"/>
     <use x="58.552734" xlink:href="#DejaVuSans-117"/>
     <use x="121.931641" xlink:href="#DejaVuSans-98"/>
     <use x="185.408203" xlink:href="#DejaVuSans-108"/>
     <use x="213.191406" xlink:href="#DejaVuSans-105"/>
     <use x="240.974609" xlink:href="#DejaVuSans-99"/>
     <use x="295.955078" xlink:href="#DejaVuSans-32"/>
     <use x="327.742188" xlink:href="#DejaVuSans-97"/>
     <use x="389.021484" xlink:href="#DejaVuSans-100"/>
     <use x="452.498047" xlink:href="#DejaVuSans-109"/>
     <use x="549.910156" xlink:href="#DejaVuSans-105"/>
     <use x="577.693359" xlink:href="#DejaVuSans-110"/>
     <use x="641.072266" xlink:href="#DejaVuSans-105"/>
     <use x="668.855469" xlink:href="#DejaVuSans-115"/>
     <use x="720.955078" xlink:href="#DejaVuSans-116"/>
     <use x="760.164062" xlink:href="#DejaVuSans-114"/>
     <use x="801.277344" xlink:href="#DejaVuSans-97"/>
     <use x="862.556641" xlink:href="#DejaVuSans-116"/>
     <use x="901.765625" xlink:href="#DejaVuSans-105"/>
     <use x="929.548828" xlink:href="#DejaVuSans-111"/>
     <use x="990.730469" xlink:href="#DejaVuSans-110"/>
    </g>
   </g>
   <g id="text_27">
    <!-- Management, Admin.,  -->
    <g transform="translate(353.115866 130.835312)scale(0.07 -0.07)">
     <defs>
      <path d="M 11.71875 12.40625 
L 22.015625 12.40625 
L 22.015625 4 
L 14.015625 -11.625 
L 7.71875 -11.625 
L 11.71875 4 
z
" id="DejaVuSans-44"/>
      <path d="M 10.6875 12.40625 
L 21 12.40625 
L 21 0 
L 10.6875 0 
z
" id="DejaVuSans-46"/>
     </defs>
     <use xlink:href="#DejaVuSans-77"/>
     <use x="86.279297" xlink:href="#DejaVuSans-97"/>
     <use x="147.558594" xlink:href="#DejaVuSans-110"/>
     <use x="210.9375" xlink:href="#DejaVuSans-97"/>
     <use x="272.216797" xlink:href="#DejaVuSans-103"/>
     <use x="335.693359" xlink:href="#DejaVuSans-101"/>
     <use x="397.216797" xlink:href="#DejaVuSans-109"/>
     <use x="494.628906" xlink:href="#DejaVuSans-101"/>
     <use x="556.152344" xlink:href="#DejaVuSans-110"/>
     <use x="619.53125" xlink:href="#DejaVuSans-116"/>
     <use x="658.740234" xlink:href="#DejaVuSans-44"/>
     <use x="690.527344" xlink:href="#DejaVuSans-32"/>
     <use x="722.314453" xlink:href="#DejaVuSans-65"/>
     <use x="788.972656" xlink:href="#DejaVuSans-100"/>
     <use x="852.449219" xlink:href="#DejaVuSans-109"/>
     <use x="949.861328" xlink:href="#DejaVuSans-105"/>
     <use x="977.644531" xlink:href="#DejaVuSans-110"/>
     <use x="1041.023438" xlink:href="#DejaVuSans-46"/>
     <use x="1072.810547" xlink:href="#DejaVuSans-44"/>
     <use x="1104.597656" xlink:href="#DejaVuSans-32"/>
    </g>
    <!-- and Edu. (MAE) service -->
    <g transform="translate(353.115866 138.673781)scale(0.07 -0.07)">
     <defs>
      <path d="M 9.8125 72.90625 
L 55.90625 72.90625 
L 55.90625 64.59375 
L 19.671875 64.59375 
L 19.671875 43.015625 
L 54.390625 43.015625 
L 54.390625 34.71875 
L 19.671875 34.71875 
L 19.671875 8.296875 
L 56.78125 8.296875 
L 56.78125 0 
L 9.8125 0 
z
" id="DejaVuSans-69"/>
      <path d="M 31 75.875 
Q 24.46875 64.65625 21.28125 53.65625 
Q 18.109375 42.671875 18.109375 31.390625 
Q 18.109375 20.125 21.3125 9.0625 
Q 24.515625 -2 31 -13.1875 
L 23.1875 -13.1875 
Q 15.875 -1.703125 12.234375 9.375 
Q 8.59375 20.453125 8.59375 31.390625 
Q 8.59375 42.28125 12.203125 53.3125 
Q 15.828125 64.359375 23.1875 75.875 
z
" id="DejaVuSans-40"/>
      <path d="M 8.015625 75.875 
L 15.828125 75.875 
Q 23.140625 64.359375 26.78125 53.3125 
Q 30.421875 42.28125 30.421875 31.390625 
Q 30.421875 20.453125 26.78125 9.375 
Q 23.140625 -1.703125 15.828125 -13.1875 
L 8.015625 -13.1875 
Q 14.5 -2 17.703125 9.0625 
Q 20.90625 20.125 20.90625 31.390625 
Q 20.90625 42.671875 17.703125 53.65625 
Q 14.5 64.65625 8.015625 75.875 
z
" id="DejaVuSans-41"/>
     </defs>
     <use xlink:href="#DejaVuSans-97"/>
     <use x="61.279297" xlink:href="#DejaVuSans-110"/>
     <use x="124.658203" xlink:href="#DejaVuSans-100"/>
     <use x="188.134766" xlink:href="#DejaVuSans-32"/>
     <use x="219.921875" xlink:href="#DejaVuSans-69"/>
     <use x="283.105469" xlink:href="#DejaVuSans-100"/>
     <use x="346.582031" xlink:href="#DejaVuSans-117"/>
     <use x="409.960938" xlink:href="#DejaVuSans-46"/>
     <use x="441.748047" xlink:href="#DejaVuSans-32"/>
     <use x="473.535156" xlink:href="#DejaVuSans-40"/>
     <use x="512.548828" xlink:href="#DejaVuSans-77"/>
     <use x="598.828125" xlink:href="#DejaVuSans-65"/>
     <use x="667.236328" xlink:href="#DejaVuSans-69"/>
     <use x="730.419922" xlink:href="#DejaVuSans-41"/>
     <use x="769.433594" xlink:href="#DejaVuSans-32"/>
     <use x="801.220703" xlink:href="#DejaVuSans-115"/>
     <use x="853.320312" xlink:href="#DejaVuSans-101"/>
     <use x="914.84375" xlink:href="#DejaVuSans-114"/>
     <use x="955.957031" xlink:href="#DejaVuSans-118"/>
     <use x="1015.136719" xlink:href="#DejaVuSans-105"/>
     <use x="1042.919922" xlink:href="#DejaVuSans-99"/>
     <use x="1097.900391" xlink:href="#DejaVuSans-101"/>
    </g>
   </g>
   <g id="text_28">
    <!-- High-end services -->
    <g transform="translate(353.115866 148.95)scale(0.07 -0.07)">
     <defs>
      <path d="M 4.890625 31.390625 
L 31.203125 31.390625 
L 31.203125 23.390625 
L 4.890625 23.390625 
z
" id="DejaVuSans-45"/>
     </defs>
     <use xlink:href="#DejaVuSans-72"/>
     <use x="75.195312" xlink:href="#DejaVuSans-105"/>
     <use x="102.978516" xlink:href="#DejaVuSans-103"/>
     <use x="166.455078" xlink:href="#DejaVuSans-104"/>
     <use x="229.833984" xlink:href="#DejaVuSans-45"/>
     <use x="265.917969" xlink:href="#DejaVuSans-101"/>
     <use x="327.441406" xlink:href="#DejaVuSans-110"/>
     <use x="390.820312" xlink:href="#DejaVuSans-100"/>
     <use x="454.296875" xlink:href="#DejaVuSans-32"/>
     <use x="486.083984" xlink:href="#DejaVuSans-115"/>
     <use x="538.183594" xlink:href="#DejaVuSans-101"/>
     <use x="599.707031" xlink:href="#DejaVuSans-114"/>
     <use x="640.820312" xlink:href="#DejaVuSans-118"/>
     <use x="700" xlink:href="#DejaVuSans-105"/>
     <use x="727.783203" xlink:href="#DejaVuSans-99"/>
     <use x="782.763672" xlink:href="#DejaVuSans-101"/>
     <use x="844.287109" xlink:href="#DejaVuSans-115"/>
    </g>
   </g>
   <g id="text_29">
    <!-- Other categories -->
    <g transform="translate(353.115866 162.72)scale(0.07 -0.07)">
     <defs>
      <path d="M 39.40625 66.21875 
Q 28.65625 66.21875 22.328125 58.203125 
Q 16.015625 50.203125 16.015625 36.375 
Q 16.015625 22.609375 22.328125 14.59375 
Q 28.65625 6.59375 39.40625 6.59375 
Q 50.140625 6.59375 56.421875 14.59375 
Q 62.703125 22.609375 62.703125 36.375 
Q 62.703125 50.203125 56.421875 58.203125 
Q 50.140625 66.21875 39.40625 66.21875 
z
M 39.40625 74.21875 
Q 54.734375 74.21875 63.90625 63.9375 
Q 73.09375 53.65625 73.09375 36.375 
Q 73.09375 19.140625 63.90625 8.859375 
Q 54.734375 -1.421875 39.40625 -1.421875 
Q 24.03125 -1.421875 14.8125 8.828125 
Q 5.609375 19.09375 5.609375 36.375 
Q 5.609375 53.65625 14.8125 63.9375 
Q 24.03125 74.21875 39.40625 74.21875 
z
" id="DejaVuSans-79"/>
     </defs>
     <use xlink:href="#DejaVuSans-79"/>
     <use x="78.710938" xlink:href="#DejaVuSans-116"/>
     <use x="117.919922" xlink:href="#DejaVuSans-104"/>
     <use x="181.298828" xlink:href="#DejaVuSans-101"/>
     <use x="242.822266" xlink:href="#DejaVuSans-114"/>
     <use x="283.935547" xlink:href="#DejaVuSans-32"/>
     <use x="315.722656" xlink:href="#DejaVuSans-99"/>
     <use x="370.703125" xlink:href="#DejaVuSans-97"/>
     <use x="431.982422" xlink:href="#DejaVuSans-116"/>
     <use x="471.191406" xlink:href="#DejaVuSans-101"/>
     <use x="532.714844" xlink:href="#DejaVuSans-103"/>
     <use x="596.191406" xlink:href="#DejaVuSans-111"/>
     <use x="657.373047" xlink:href="#DejaVuSans-114"/>
     <use x="698.486328" xlink:href="#DejaVuSans-105"/>
     <use x="726.269531" xlink:href="#DejaVuSans-101"/>
     <use x="787.792969" xlink:href="#DejaVuSans-115"/>
    </g>
   </g>
  </g>
 </g>
 <defs>
  <clipPath id="pdb90558d07">
   <rect height="163.08" width="251.1" x="70.020866" y="7.2"/>
  </clipPath>
  <clipPath id="pc0b5758ce8">
   <rect height="162" width="113.4" x="327.600866" y="7.2"/>
  </clipPath>
 </defs>
</svg>
