<?xml version="1.0" encoding="utf-8" standalone="no"?>
<!DOCTYPE svg PUBLIC "-//W3C//DTD SVG 1.1//EN"
  "http://www.w3.org/Graphics/SVG/1.1/DTD/svg11.dtd">
<!-- Created with matplotlib (https://matplotlib.org/) -->
<svg height="252.965123pt" version="1.1" viewBox="0 0 423.723317 252.965123" width="423.723317pt" xmlns="http://www.w3.org/2000/svg" xmlns:xlink="http://www.w3.org/1999/xlink">
 <metadata>
  <rdf:RDF xmlns:cc="http://creativecommons.org/ns#" xmlns:dc="http://purl.org/dc/elements/1.1/" xmlns:rdf="http://www.w3.org/1999/02/22-rdf-syntax-ns#">
   <cc:Work>
    <dc:type rdf:resource="http://purl.org/dc/dcmitype/StillImage"/>
    <dc:date>2022-08-14T23:35:19.189707</dc:date>
    <dc:format>image/svg+xml</dc:format>
    <dc:creator>
     <cc:Agent>
      <dc:title>Matplotlib v3.3.3, https://matplotlib.org/</dc:title>
     </cc:Agent>
    </dc:creator>
   </cc:Work>
  </rdf:RDF>
 </metadata>
 <defs>
  <style type="text/css">*{stroke-linecap:butt;stroke-linejoin:round;}</style>
 </defs>
 <g id="figure_1">
  <g id="patch_1">
   <path d="M 0 252.965123 
L 423.723317 252.965123 
L 423.723317 0 
L 0 0 
z
" style="fill:none;"/>
  </g>
  <g id="axes_1">
   <g id="patch_2">
    <path d="M 43.05875 221.215748 
L 416.523317 221.215748 
L 416.523317 7.2 
L 43.05875 7.2 
z
" style="fill:#dbeef4;"/>
   </g>
   <g id="line2d_1">
    <path clip-path="url(#p112adcb4c9)" d="M -1 221.215748 
L 424.723317 221.215748 
" style="fill:none;stroke:#f8fcfd;stroke-linecap:square;stroke-width:2;"/>
   </g>
   <g id="line2d_2">
    <path clip-path="url(#p112adcb4c9)" d="M -1 195.116267 
L 424.723317 195.116267 
" style="fill:none;stroke:#f8fcfd;stroke-linecap:square;stroke-width:2;"/>
   </g>
   <g id="line2d_3">
    <path clip-path="url(#p112adcb4c9)" d="M -1 169.016785 
L 424.723317 169.016785 
" style="fill:none;stroke:#f8fcfd;stroke-linecap:square;stroke-width:2;"/>
   </g>
   <g id="line2d_4">
    <path clip-path="url(#p112adcb4c9)" d="M -1 142.917304 
L 424.723317 142.917304 
" style="fill:none;stroke:#f8fcfd;stroke-linecap:square;stroke-width:2;"/>
   </g>
   <g id="line2d_5">
    <path clip-path="url(#p112adcb4c9)" d="M -1 116.817822 
L 424.723317 116.817822 
" style="fill:none;stroke:#f8fcfd;stroke-linecap:square;stroke-width:2;"/>
   </g>
   <g id="line2d_6">
    <path clip-path="url(#p112adcb4c9)" d="M -1 90.718341 
L 424.723317 90.718341 
" style="fill:none;stroke:#f8fcfd;stroke-linecap:square;stroke-width:2;"/>
   </g>
   <g id="line2d_7">
    <path clip-path="url(#p112adcb4c9)" d="M -1 64.618859 
L 424.723317 64.618859 
" style="fill:none;stroke:#f8fcfd;stroke-linecap:square;stroke-width:2;"/>
   </g>
   <g id="line2d_8">
    <path clip-path="url(#p112adcb4c9)" d="M -1 38.519378 
L 424.723317 38.519378 
" style="fill:none;stroke:#f8fcfd;stroke-linecap:square;stroke-width:2;"/>
   </g>
   <g id="line2d_9">
    <path clip-path="url(#p112adcb4c9)" d="M -1 12.419896 
L 424.723317 12.419896 
" style="fill:none;stroke:#f8fcfd;stroke-linecap:square;stroke-width:2;"/>
   </g>
   <g id="line2d_10">
    <path clip-path="url(#p112adcb4c9)" d="M -1 126.454624 
L 424.723317 126.454624 
" style="fill:none;stroke:#b1b3b3;stroke-dasharray:2.96,1.28;stroke-dashoffset:0;stroke-width:0.8;"/>
   </g>
   <g id="matplotlib.axis_1">
    <g id="xtick_1">
     <g id="line2d_11">
      <defs>
       <path d="M 0 0 
L 0 3.5 
" id="md74a33842e" style="stroke:#000000;stroke-width:0.8;"/>
      </defs>
      <g>
       <use style="stroke:#000000;stroke-width:0.8;" x="66.400285" xlink:href="#md74a33842e" y="221.215748"/>
      </g>
     </g>
     <g id="text_1">
      <!-- I -->
      <g transform="translate(65.367785 233.534654)scale(0.07 -0.07)">
       <defs>
        <path d="M 9.8125 72.90625 
L 19.671875 72.90625 
L 19.671875 0 
L 9.8125 0 
z
" id="DejaVuSans-73"/>
       </defs>
       <use xlink:href="#DejaVuSans-73"/>
      </g>
     </g>
    </g>
    <g id="xtick_2">
     <g id="line2d_12">
      <g>
       <use style="stroke:#000000;stroke-width:0.8;" x="113.083356" xlink:href="#md74a33842e" y="221.215748"/>
      </g>
     </g>
     <g id="text_2">
      <!-- II -->
      <g transform="translate(111.018356 233.534654)scale(0.07 -0.07)">
       <use xlink:href="#DejaVuSans-73"/>
       <use x="29.492188" xlink:href="#DejaVuSans-73"/>
      </g>
     </g>
    </g>
    <g id="xtick_3">
     <g id="line2d_13">
      <g>
       <use style="stroke:#000000;stroke-width:0.8;" x="159.766427" xlink:href="#md74a33842e" y="221.215748"/>
      </g>
     </g>
     <g id="text_3">
      <!-- III -->
      <g transform="translate(156.668927 233.534654)scale(0.07 -0.07)">
       <use xlink:href="#DejaVuSans-73"/>
       <use x="29.492188" xlink:href="#DejaVuSans-73"/>
       <use x="58.984375" xlink:href="#DejaVuSans-73"/>
      </g>
     </g>
    </g>
    <g id="xtick_4">
     <g id="line2d_14">
      <g>
       <use style="stroke:#000000;stroke-width:0.8;" x="206.449498" xlink:href="#md74a33842e" y="221.215748"/>
      </g>
     </g>
     <g id="text_4">
      <!-- IV(**) -->
      <g transform="translate(196.791686 233.534654)scale(0.07 -0.07)">
       <defs>
        <path d="M 28.609375 0 
L 0.78125 72.90625 
L 11.078125 72.90625 
L 34.1875 11.53125 
L 57.328125 72.90625 
L 67.578125 72.90625 
L 39.796875 0 
z
" id="DejaVuSans-86"/>
        <path d="M 31 75.875 
Q 24.46875 64.65625 21.28125 53.65625 
Q 18.109375 42.671875 18.109375 31.390625 
Q 18.109375 20.125 21.3125 9.0625 
Q 24.515625 -2 31 -13.1875 
L 23.1875 -13.1875 
Q 15.875 -1.703125 12.234375 9.375 
Q 8.59375 20.453125 8.59375 31.390625 
Q 8.59375 42.28125 12.203125 53.3125 
Q 15.828125 64.359375 23.1875 75.875 
z
" id="DejaVuSans-40"/>
        <path d="M 47.015625 60.890625 
L 29.5 51.421875 
L 47.015625 41.890625 
L 44.1875 37.109375 
L 27.78125 47.015625 
L 27.78125 28.609375 
L 22.21875 28.609375 
L 22.21875 47.015625 
L 5.8125 37.109375 
L 2.984375 41.890625 
L 20.515625 51.421875 
L 2.984375 60.890625 
L 5.8125 65.71875 
L 22.21875 55.8125 
L 22.21875 74.21875 
L 27.78125 74.21875 
L 27.78125 55.8125 
L 44.1875 65.71875 
z
" id="DejaVuSans-42"/>
        <path d="M 8.015625 75.875 
L 15.828125 75.875 
Q 23.140625 64.359375 26.78125 53.3125 
Q 30.421875 42.28125 30.421875 31.390625 
Q 30.421875 20.453125 26.78125 9.375 
Q 23.140625 -1.703125 15.828125 -13.1875 
L 8.015625 -13.1875 
Q 14.5 -2 17.703125 9.0625 
Q 20.90625 20.125 20.90625 31.390625 
Q 20.90625 42.671875 17.703125 53.65625 
Q 14.5 64.65625 8.015625 75.875 
z
" id="DejaVuSans-41"/>
       </defs>
       <use xlink:href="#DejaVuSans-73"/>
       <use x="29.492188" xlink:href="#DejaVuSans-86"/>
       <use x="97.900391" xlink:href="#DejaVuSans-40"/>
       <use x="136.914062" xlink:href="#DejaVuSans-42"/>
       <use x="186.914062" xlink:href="#DejaVuSans-42"/>
       <use x="236.914062" xlink:href="#DejaVuSans-41"/>
      </g>
     </g>
    </g>
    <g id="xtick_5">
     <g id="line2d_15">
      <g>
       <use style="stroke:#000000;stroke-width:0.8;" x="253.132569" xlink:href="#md74a33842e" y="221.215748"/>
      </g>
     </g>
     <g id="text_5">
      <!-- V -->
      <g transform="translate(250.73835 233.534654)scale(0.07 -0.07)">
       <use xlink:href="#DejaVuSans-86"/>
      </g>
     </g>
    </g>
    <g id="xtick_6">
     <g id="line2d_16">
      <g>
       <use style="stroke:#000000;stroke-width:0.8;" x="299.81564" xlink:href="#md74a33842e" y="221.215748"/>
      </g>
     </g>
     <g id="text_6">
      <!-- VI -->
      <g transform="translate(296.388921 233.534654)scale(0.07 -0.07)">
       <use xlink:href="#DejaVuSans-86"/>
       <use x="68.408203" xlink:href="#DejaVuSans-73"/>
      </g>
     </g>
    </g>
    <g id="xtick_7">
     <g id="line2d_17">
      <g>
       <use style="stroke:#000000;stroke-width:0.8;" x="346.498711" xlink:href="#md74a33842e" y="221.215748"/>
      </g>
     </g>
     <g id="text_7">
      <!-- VII -->
      <g transform="translate(342.039492 233.534654)scale(0.07 -0.07)">
       <use xlink:href="#DejaVuSans-86"/>
       <use x="68.408203" xlink:href="#DejaVuSans-73"/>
       <use x="97.900391" xlink:href="#DejaVuSans-73"/>
      </g>
     </g>
    </g>
    <g id="xtick_8">
     <g id="line2d_18">
      <g>
       <use style="stroke:#000000;stroke-width:0.8;" x="393.181781" xlink:href="#md74a33842e" y="221.215748"/>
      </g>
     </g>
     <g id="text_8">
      <!-- VIII -->
      <g transform="translate(387.690063 233.534654)scale(0.07 -0.07)">
       <use xlink:href="#DejaVuSans-86"/>
       <use x="68.408203" xlink:href="#DejaVuSans-73"/>
       <use x="97.900391" xlink:href="#DejaVuSans-73"/>
       <use x="127.392578" xlink:href="#DejaVuSans-73"/>
      </g>
     </g>
    </g>
    <g id="text_9">
     <!-- Cluster -->
     <g transform="translate(217.368768 244.309342)scale(0.07 -0.07)">
      <defs>
       <path d="M 64.40625 67.28125 
L 64.40625 56.890625 
Q 59.421875 61.53125 53.78125 63.8125 
Q 48.140625 66.109375 41.796875 66.109375 
Q 29.296875 66.109375 22.65625 58.46875 
Q 16.015625 50.828125 16.015625 36.375 
Q 16.015625 21.96875 22.65625 14.328125 
Q 29.296875 6.6875 41.796875 6.6875 
Q 48.140625 6.6875 53.78125 8.984375 
Q 59.421875 11.28125 64.40625 15.921875 
L 64.40625 5.609375 
Q 59.234375 2.09375 53.4375 0.328125 
Q 47.65625 -1.421875 41.21875 -1.421875 
Q 24.65625 -1.421875 15.125 8.703125 
Q 5.609375 18.84375 5.609375 36.375 
Q 5.609375 53.953125 15.125 64.078125 
Q 24.65625 74.21875 41.21875 74.21875 
Q 47.75 74.21875 53.53125 72.484375 
Q 59.328125 70.75 64.40625 67.28125 
z
" id="DejaVuSans-67"/>
       <path d="M 9.421875 75.984375 
L 18.40625 75.984375 
L 18.40625 0 
L 9.421875 0 
z
" id="DejaVuSans-108"/>
       <path d="M 8.5 21.578125 
L 8.5 54.6875 
L 17.484375 54.6875 
L 17.484375 21.921875 
Q 17.484375 14.15625 20.5 10.265625 
Q 23.53125 6.390625 29.59375 6.390625 
Q 36.859375 6.390625 41.078125 11.03125 
Q 45.3125 15.671875 45.3125 23.6875 
L 45.3125 54.6875 
L 54.296875 54.6875 
L 54.296875 0 
L 45.3125 0 
L 45.3125 8.40625 
Q 42.046875 3.421875 37.71875 1 
Q 33.40625 -1.421875 27.6875 -1.421875 
Q 18.265625 -1.421875 13.375 4.4375 
Q 8.5 10.296875 8.5 21.578125 
z
M 31.109375 56 
z
" id="DejaVuSans-117"/>
       <path d="M 44.28125 53.078125 
L 44.28125 44.578125 
Q 40.484375 46.53125 36.375 47.5 
Q 32.28125 48.484375 27.875 48.484375 
Q 21.1875 48.484375 17.84375 46.4375 
Q 14.5 44.390625 14.5 40.28125 
Q 14.5 37.15625 16.890625 35.375 
Q 19.28125 33.59375 26.515625 31.984375 
L 29.59375 31.296875 
Q 39.15625 29.25 43.1875 25.515625 
Q 47.21875 21.78125 47.21875 15.09375 
Q 47.21875 7.46875 41.1875 3.015625 
Q 35.15625 -1.421875 24.609375 -1.421875 
Q 20.21875 -1.421875 15.453125 -0.5625 
Q 10.6875 0.296875 5.421875 2 
L 5.421875 11.28125 
Q 10.40625 8.6875 15.234375 7.390625 
Q 20.0625 6.109375 24.8125 6.109375 
Q 31.15625 6.109375 34.5625 8.28125 
Q 37.984375 10.453125 37.984375 14.40625 
Q 37.984375 18.0625 35.515625 20.015625 
Q 33.0625 21.96875 24.703125 23.78125 
L 21.578125 24.515625 
Q 13.234375 26.265625 9.515625 29.90625 
Q 5.8125 33.546875 5.8125 39.890625 
Q 5.8125 47.609375 11.28125 51.796875 
Q 16.75 56 26.8125 56 
Q 31.78125 56 36.171875 55.265625 
Q 40.578125 54.546875 44.28125 53.078125 
z
" id="DejaVuSans-115"/>
       <path d="M 18.3125 70.21875 
L 18.3125 54.6875 
L 36.8125 54.6875 
L 36.8125 47.703125 
L 18.3125 47.703125 
L 18.3125 18.015625 
Q 18.3125 11.328125 20.140625 9.421875 
Q 21.96875 7.515625 27.59375 7.515625 
L 36.8125 7.515625 
L 36.8125 0 
L 27.59375 0 
Q 17.1875 0 13.234375 3.875 
Q 9.28125 7.765625 9.28125 18.015625 
L 9.28125 47.703125 
L 2.6875 47.703125 
L 2.6875 54.6875 
L 9.28125 54.6875 
L 9.28125 70.21875 
z
" id="DejaVuSans-116"/>
       <path d="M 56.203125 29.59375 
L 56.203125 25.203125 
L 14.890625 25.203125 
Q 15.484375 15.921875 20.484375 11.0625 
Q 25.484375 6.203125 34.421875 6.203125 
Q 39.59375 6.203125 44.453125 7.46875 
Q 49.3125 8.734375 54.109375 11.28125 
L 54.109375 2.78125 
Q 49.265625 0.734375 44.1875 -0.34375 
Q 39.109375 -1.421875 33.890625 -1.421875 
Q 20.796875 -1.421875 13.15625 6.1875 
Q 5.515625 13.8125 5.515625 26.8125 
Q 5.515625 40.234375 12.765625 48.109375 
Q 20.015625 56 32.328125 56 
Q 43.359375 56 49.78125 48.890625 
Q 56.203125 41.796875 56.203125 29.59375 
z
M 47.21875 32.234375 
Q 47.125 39.59375 43.09375 43.984375 
Q 39.0625 48.390625 32.421875 48.390625 
Q 24.90625 48.390625 20.390625 44.140625 
Q 15.875 39.890625 15.1875 32.171875 
z
" id="DejaVuSans-101"/>
       <path d="M 41.109375 46.296875 
Q 39.59375 47.171875 37.8125 47.578125 
Q 36.03125 48 33.890625 48 
Q 26.265625 48 22.1875 43.046875 
Q 18.109375 38.09375 18.109375 28.8125 
L 18.109375 0 
L 9.078125 0 
L 9.078125 54.6875 
L 18.109375 54.6875 
L 18.109375 46.1875 
Q 20.953125 51.171875 25.484375 53.578125 
Q 30.03125 56 36.53125 56 
Q 37.453125 56 38.578125 55.875 
Q 39.703125 55.765625 41.0625 55.515625 
z
" id="DejaVuSans-114"/>
      </defs>
      <use xlink:href="#DejaVuSans-67"/>
      <use x="69.824219" xlink:href="#DejaVuSans-108"/>
      <use x="97.607422" xlink:href="#DejaVuSans-117"/>
      <use x="160.986328" xlink:href="#DejaVuSans-115"/>
      <use x="213.085938" xlink:href="#DejaVuSans-116"/>
      <use x="252.294922" xlink:href="#DejaVuSans-101"/>
      <use x="313.818359" xlink:href="#DejaVuSans-114"/>
     </g>
    </g>
   </g>
   <g id="matplotlib.axis_2">
    <g id="ytick_1">
     <g id="line2d_19">
      <defs>
       <path d="M 0 0 
L -3.5 0 
" id="m7a0a82a8a0" style="stroke:#000000;stroke-width:0.8;"/>
      </defs>
      <g>
       <use style="stroke:#000000;stroke-width:0.8;" x="43.05875" xlink:href="#m7a0a82a8a0" y="221.215748"/>
      </g>
     </g>
     <g id="text_10">
      <!-- -10% -->
      <g transform="translate(17.974688 223.875201)scale(0.07 -0.07)">
       <defs>
        <path d="M 4.890625 31.390625 
L 31.203125 31.390625 
L 31.203125 23.390625 
L 4.890625 23.390625 
z
" id="DejaVuSans-45"/>
        <path d="M 12.40625 8.296875 
L 28.515625 8.296875 
L 28.515625 63.921875 
L 10.984375 60.40625 
L 10.984375 69.390625 
L 28.421875 72.90625 
L 38.28125 72.90625 
L 38.28125 8.296875 
L 54.390625 8.296875 
L 54.390625 0 
L 12.40625 0 
z
" id="DejaVuSans-49"/>
        <path d="M 31.78125 66.40625 
Q 24.171875 66.40625 20.328125 58.90625 
Q 16.5 51.421875 16.5 36.375 
Q 16.5 21.390625 20.328125 13.890625 
Q 24.171875 6.390625 31.78125 6.390625 
Q 39.453125 6.390625 43.28125 13.890625 
Q 47.125 21.390625 47.125 36.375 
Q 47.125 51.421875 43.28125 58.90625 
Q 39.453125 66.40625 31.78125 66.40625 
z
M 31.78125 74.21875 
Q 44.046875 74.21875 50.515625 64.515625 
Q 56.984375 54.828125 56.984375 36.375 
Q 56.984375 17.96875 50.515625 8.265625 
Q 44.046875 -1.421875 31.78125 -1.421875 
Q 19.53125 -1.421875 13.0625 8.265625 
Q 6.59375 17.96875 6.59375 36.375 
Q 6.59375 54.828125 13.0625 64.515625 
Q 19.53125 74.21875 31.78125 74.21875 
z
" id="DejaVuSans-48"/>
        <path d="M 72.703125 32.078125 
Q 68.453125 32.078125 66.03125 28.46875 
Q 63.625 24.859375 63.625 18.40625 
Q 63.625 12.0625 66.03125 8.421875 
Q 68.453125 4.78125 72.703125 4.78125 
Q 76.859375 4.78125 79.265625 8.421875 
Q 81.6875 12.0625 81.6875 18.40625 
Q 81.6875 24.8125 79.265625 28.4375 
Q 76.859375 32.078125 72.703125 32.078125 
z
M 72.703125 38.28125 
Q 80.421875 38.28125 84.953125 32.90625 
Q 89.5 27.546875 89.5 18.40625 
Q 89.5 9.28125 84.9375 3.921875 
Q 80.375 -1.421875 72.703125 -1.421875 
Q 64.890625 -1.421875 60.34375 3.921875 
Q 55.8125 9.28125 55.8125 18.40625 
Q 55.8125 27.59375 60.375 32.9375 
Q 64.9375 38.28125 72.703125 38.28125 
z
M 22.3125 68.015625 
Q 18.109375 68.015625 15.6875 64.375 
Q 13.28125 60.75 13.28125 54.390625 
Q 13.28125 47.953125 15.671875 44.328125 
Q 18.0625 40.71875 22.3125 40.71875 
Q 26.5625 40.71875 28.96875 44.328125 
Q 31.390625 47.953125 31.390625 54.390625 
Q 31.390625 60.6875 28.953125 64.34375 
Q 26.515625 68.015625 22.3125 68.015625 
z
M 66.40625 74.21875 
L 74.21875 74.21875 
L 28.609375 -1.421875 
L 20.796875 -1.421875 
z
M 22.3125 74.21875 
Q 30.03125 74.21875 34.609375 68.875 
Q 39.203125 63.53125 39.203125 54.390625 
Q 39.203125 45.171875 34.640625 39.84375 
Q 30.078125 34.515625 22.3125 34.515625 
Q 14.546875 34.515625 10.03125 39.859375 
Q 5.515625 45.21875 5.515625 54.390625 
Q 5.515625 63.484375 10.046875 68.84375 
Q 14.59375 74.21875 22.3125 74.21875 
z
" id="DejaVuSans-37"/>
       </defs>
       <use xlink:href="#DejaVuSans-45"/>
       <use x="36.083984" xlink:href="#DejaVuSans-49"/>
       <use x="99.707031" xlink:href="#DejaVuSans-48"/>
       <use x="163.330078" xlink:href="#DejaVuSans-37"/>
      </g>
     </g>
    </g>
    <g id="ytick_2">
     <g id="line2d_20">
      <g>
       <use style="stroke:#000000;stroke-width:0.8;" x="43.05875" xlink:href="#m7a0a82a8a0" y="195.116267"/>
      </g>
     </g>
     <g id="text_11">
      <!-- -5% -->
      <g transform="translate(22.428438 197.77572)scale(0.07 -0.07)">
       <defs>
        <path d="M 10.796875 72.90625 
L 49.515625 72.90625 
L 49.515625 64.59375 
L 19.828125 64.59375 
L 19.828125 46.734375 
Q 21.96875 47.46875 24.109375 47.828125 
Q 26.265625 48.1875 28.421875 48.1875 
Q 40.625 48.1875 47.75 41.5 
Q 54.890625 34.8125 54.890625 23.390625 
Q 54.890625 11.625 47.5625 5.09375 
Q 40.234375 -1.421875 26.90625 -1.421875 
Q 22.3125 -1.421875 17.546875 -0.640625 
Q 12.796875 0.140625 7.71875 1.703125 
L 7.71875 11.625 
Q 12.109375 9.234375 16.796875 8.0625 
Q 21.484375 6.890625 26.703125 6.890625 
Q 35.15625 6.890625 40.078125 11.328125 
Q 45.015625 15.765625 45.015625 23.390625 
Q 45.015625 31 40.078125 35.4375 
Q 35.15625 39.890625 26.703125 39.890625 
Q 22.75 39.890625 18.8125 39.015625 
Q 14.890625 38.140625 10.796875 36.28125 
z
" id="DejaVuSans-53"/>
       </defs>
       <use xlink:href="#DejaVuSans-45"/>
       <use x="36.083984" xlink:href="#DejaVuSans-53"/>
       <use x="99.707031" xlink:href="#DejaVuSans-37"/>
      </g>
     </g>
    </g>
    <g id="ytick_3">
     <g id="line2d_21">
      <g>
       <use style="stroke:#000000;stroke-width:0.8;" x="43.05875" xlink:href="#m7a0a82a8a0" y="169.016785"/>
      </g>
     </g>
     <g id="text_12">
      <!-- 0% -->
      <g transform="translate(24.953906 171.676238)scale(0.07 -0.07)">
       <use xlink:href="#DejaVuSans-48"/>
       <use x="63.623047" xlink:href="#DejaVuSans-37"/>
      </g>
     </g>
    </g>
    <g id="ytick_4">
     <g id="line2d_22">
      <g>
       <use style="stroke:#000000;stroke-width:0.8;" x="43.05875" xlink:href="#m7a0a82a8a0" y="142.917304"/>
      </g>
     </g>
     <g id="text_13">
      <!-- 5% -->
      <g transform="translate(24.953906 145.576757)scale(0.07 -0.07)">
       <use xlink:href="#DejaVuSans-53"/>
       <use x="63.623047" xlink:href="#DejaVuSans-37"/>
      </g>
     </g>
    </g>
    <g id="ytick_5">
     <g id="line2d_23">
      <g>
       <use style="stroke:#000000;stroke-width:0.8;" x="43.05875" xlink:href="#m7a0a82a8a0" y="116.817822"/>
      </g>
     </g>
     <g id="text_14">
      <!-- 10% -->
      <g transform="translate(20.500156 119.477275)scale(0.07 -0.07)">
       <use xlink:href="#DejaVuSans-49"/>
       <use x="63.623047" xlink:href="#DejaVuSans-48"/>
       <use x="127.246094" xlink:href="#DejaVuSans-37"/>
      </g>
     </g>
    </g>
    <g id="ytick_6">
     <g id="line2d_24">
      <g>
       <use style="stroke:#000000;stroke-width:0.8;" x="43.05875" xlink:href="#m7a0a82a8a0" y="90.718341"/>
      </g>
     </g>
     <g id="text_15">
      <!-- 15% -->
      <g transform="translate(20.500156 93.377794)scale(0.07 -0.07)">
       <use xlink:href="#DejaVuSans-49"/>
       <use x="63.623047" xlink:href="#DejaVuSans-53"/>
       <use x="127.246094" xlink:href="#DejaVuSans-37"/>
      </g>
     </g>
    </g>
    <g id="ytick_7">
     <g id="line2d_25">
      <g>
       <use style="stroke:#000000;stroke-width:0.8;" x="43.05875" xlink:href="#m7a0a82a8a0" y="64.618859"/>
      </g>
     </g>
     <g id="text_16">
      <!-- 20% -->
      <g transform="translate(20.500156 67.278312)scale(0.07 -0.07)">
       <defs>
        <path d="M 19.1875 8.296875 
L 53.609375 8.296875 
L 53.609375 0 
L 7.328125 0 
L 7.328125 8.296875 
Q 12.9375 14.109375 22.625 23.890625 
Q 32.328125 33.6875 34.8125 36.53125 
Q 39.546875 41.84375 41.421875 45.53125 
Q 43.3125 49.21875 43.3125 52.78125 
Q 43.3125 58.59375 39.234375 62.25 
Q 35.15625 65.921875 28.609375 65.921875 
Q 23.96875 65.921875 18.8125 64.3125 
Q 13.671875 62.703125 7.8125 59.421875 
L 7.8125 69.390625 
Q 13.765625 71.78125 18.9375 73 
Q 24.125 74.21875 28.421875 74.21875 
Q 39.75 74.21875 46.484375 68.546875 
Q 53.21875 62.890625 53.21875 53.421875 
Q 53.21875 48.921875 51.53125 44.890625 
Q 49.859375 40.875 45.40625 35.40625 
Q 44.1875 33.984375 37.640625 27.21875 
Q 31.109375 20.453125 19.1875 8.296875 
z
" id="DejaVuSans-50"/>
       </defs>
       <use xlink:href="#DejaVuSans-50"/>
       <use x="63.623047" xlink:href="#DejaVuSans-48"/>
       <use x="127.246094" xlink:href="#DejaVuSans-37"/>
      </g>
     </g>
    </g>
    <g id="ytick_8">
     <g id="line2d_26">
      <g>
       <use style="stroke:#000000;stroke-width:0.8;" x="43.05875" xlink:href="#m7a0a82a8a0" y="38.519378"/>
      </g>
     </g>
     <g id="text_17">
      <!-- 25% -->
      <g transform="translate(20.500156 41.178831)scale(0.07 -0.07)">
       <use xlink:href="#DejaVuSans-50"/>
       <use x="63.623047" xlink:href="#DejaVuSans-53"/>
       <use x="127.246094" xlink:href="#DejaVuSans-37"/>
      </g>
     </g>
    </g>
    <g id="ytick_9">
     <g id="line2d_27">
      <g>
       <use style="stroke:#000000;stroke-width:0.8;" x="43.05875" xlink:href="#m7a0a82a8a0" y="12.419896"/>
      </g>
     </g>
     <g id="text_18">
      <!-- 30% -->
      <g transform="translate(20.500156 15.079349)scale(0.07 -0.07)">
       <defs>
        <path d="M 40.578125 39.3125 
Q 47.65625 37.796875 51.625 33 
Q 55.609375 28.21875 55.609375 21.1875 
Q 55.609375 10.40625 48.1875 4.484375 
Q 40.765625 -1.421875 27.09375 -1.421875 
Q 22.515625 -1.421875 17.65625 -0.515625 
Q 12.796875 0.390625 7.625 2.203125 
L 7.625 11.71875 
Q 11.71875 9.328125 16.59375 8.109375 
Q 21.484375 6.890625 26.8125 6.890625 
Q 36.078125 6.890625 40.9375 10.546875 
Q 45.796875 14.203125 45.796875 21.1875 
Q 45.796875 27.640625 41.28125 31.265625 
Q 36.765625 34.90625 28.71875 34.90625 
L 20.21875 34.90625 
L 20.21875 43.015625 
L 29.109375 43.015625 
Q 36.375 43.015625 40.234375 45.921875 
Q 44.09375 48.828125 44.09375 54.296875 
Q 44.09375 59.90625 40.109375 62.90625 
Q 36.140625 65.921875 28.71875 65.921875 
Q 24.65625 65.921875 20.015625 65.03125 
Q 15.375 64.15625 9.8125 62.3125 
L 9.8125 71.09375 
Q 15.4375 72.65625 20.34375 73.4375 
Q 25.25 74.21875 29.59375 74.21875 
Q 40.828125 74.21875 47.359375 69.109375 
Q 53.90625 64.015625 53.90625 55.328125 
Q 53.90625 49.265625 50.4375 45.09375 
Q 46.96875 40.921875 40.578125 39.3125 
z
" id="DejaVuSans-51"/>
       </defs>
       <use xlink:href="#DejaVuSans-51"/>
       <use x="63.623047" xlink:href="#DejaVuSans-48"/>
       <use x="127.246094" xlink:href="#DejaVuSans-37"/>
      </g>
     </g>
    </g>
    <g id="text_19">
     <!-- Residential electricity consumption variation percentage -->
     <g transform="translate(12.518906 213.325687)rotate(-90)scale(0.07 -0.07)">
      <defs>
       <path d="M 44.390625 34.1875 
Q 47.5625 33.109375 50.5625 29.59375 
Q 53.5625 26.078125 56.59375 19.921875 
L 66.609375 0 
L 56 0 
L 46.6875 18.703125 
Q 43.0625 26.03125 39.671875 28.421875 
Q 36.28125 30.8125 30.421875 30.8125 
L 19.671875 30.8125 
L 19.671875 0 
L 9.8125 0 
L 9.8125 72.90625 
L 32.078125 72.90625 
Q 44.578125 72.90625 50.734375 67.671875 
Q 56.890625 62.453125 56.890625 51.90625 
Q 56.890625 45.015625 53.6875 40.46875 
Q 50.484375 35.9375 44.390625 34.1875 
z
M 19.671875 64.796875 
L 19.671875 38.921875 
L 32.078125 38.921875 
Q 39.203125 38.921875 42.84375 42.21875 
Q 46.484375 45.515625 46.484375 51.90625 
Q 46.484375 58.296875 42.84375 61.546875 
Q 39.203125 64.796875 32.078125 64.796875 
z
" id="DejaVuSans-82"/>
       <path d="M 9.421875 54.6875 
L 18.40625 54.6875 
L 18.40625 0 
L 9.421875 0 
z
M 9.421875 75.984375 
L 18.40625 75.984375 
L 18.40625 64.59375 
L 9.421875 64.59375 
z
" id="DejaVuSans-105"/>
       <path d="M 45.40625 46.390625 
L 45.40625 75.984375 
L 54.390625 75.984375 
L 54.390625 0 
L 45.40625 0 
L 45.40625 8.203125 
Q 42.578125 3.328125 38.25 0.953125 
Q 33.9375 -1.421875 27.875 -1.421875 
Q 17.96875 -1.421875 11.734375 6.484375 
Q 5.515625 14.40625 5.515625 27.296875 
Q 5.515625 40.1875 11.734375 48.09375 
Q 17.96875 56 27.875 56 
Q 33.9375 56 38.25 53.625 
Q 42.578125 51.265625 45.40625 46.390625 
z
M 14.796875 27.296875 
Q 14.796875 17.390625 18.875 11.75 
Q 22.953125 6.109375 30.078125 6.109375 
Q 37.203125 6.109375 41.296875 11.75 
Q 45.40625 17.390625 45.40625 27.296875 
Q 45.40625 37.203125 41.296875 42.84375 
Q 37.203125 48.484375 30.078125 48.484375 
Q 22.953125 48.484375 18.875 42.84375 
Q 14.796875 37.203125 14.796875 27.296875 
z
" id="DejaVuSans-100"/>
       <path d="M 54.890625 33.015625 
L 54.890625 0 
L 45.90625 0 
L 45.90625 32.71875 
Q 45.90625 40.484375 42.875 44.328125 
Q 39.84375 48.1875 33.796875 48.1875 
Q 26.515625 48.1875 22.3125 43.546875 
Q 18.109375 38.921875 18.109375 30.90625 
L 18.109375 0 
L 9.078125 0 
L 9.078125 54.6875 
L 18.109375 54.6875 
L 18.109375 46.1875 
Q 21.34375 51.125 25.703125 53.5625 
Q 30.078125 56 35.796875 56 
Q 45.21875 56 50.046875 50.171875 
Q 54.890625 44.34375 54.890625 33.015625 
z
" id="DejaVuSans-110"/>
       <path d="M 34.28125 27.484375 
Q 23.390625 27.484375 19.1875 25 
Q 14.984375 22.515625 14.984375 16.5 
Q 14.984375 11.71875 18.140625 8.90625 
Q 21.296875 6.109375 26.703125 6.109375 
Q 34.1875 6.109375 38.703125 11.40625 
Q 43.21875 16.703125 43.21875 25.484375 
L 43.21875 27.484375 
z
M 52.203125 31.203125 
L 52.203125 0 
L 43.21875 0 
L 43.21875 8.296875 
Q 40.140625 3.328125 35.546875 0.953125 
Q 30.953125 -1.421875 24.3125 -1.421875 
Q 15.921875 -1.421875 10.953125 3.296875 
Q 6 8.015625 6 15.921875 
Q 6 25.140625 12.171875 29.828125 
Q 18.359375 34.515625 30.609375 34.515625 
L 43.21875 34.515625 
L 43.21875 35.40625 
Q 43.21875 41.609375 39.140625 45 
Q 35.0625 48.390625 27.6875 48.390625 
Q 23 48.390625 18.546875 47.265625 
Q 14.109375 46.140625 10.015625 43.890625 
L 10.015625 52.203125 
Q 14.9375 54.109375 19.578125 55.046875 
Q 24.21875 56 28.609375 56 
Q 40.484375 56 46.34375 49.84375 
Q 52.203125 43.703125 52.203125 31.203125 
z
" id="DejaVuSans-97"/>
       <path id="DejaVuSans-32"/>
       <path d="M 48.78125 52.59375 
L 48.78125 44.1875 
Q 44.96875 46.296875 41.140625 47.34375 
Q 37.3125 48.390625 33.40625 48.390625 
Q 24.65625 48.390625 19.8125 42.84375 
Q 14.984375 37.3125 14.984375 27.296875 
Q 14.984375 17.28125 19.8125 11.734375 
Q 24.65625 6.203125 33.40625 6.203125 
Q 37.3125 6.203125 41.140625 7.25 
Q 44.96875 8.296875 48.78125 10.40625 
L 48.78125 2.09375 
Q 45.015625 0.34375 40.984375 -0.53125 
Q 36.96875 -1.421875 32.421875 -1.421875 
Q 20.0625 -1.421875 12.78125 6.34375 
Q 5.515625 14.109375 5.515625 27.296875 
Q 5.515625 40.671875 12.859375 48.328125 
Q 20.21875 56 33.015625 56 
Q 37.15625 56 41.109375 55.140625 
Q 45.0625 54.296875 48.78125 52.59375 
z
" id="DejaVuSans-99"/>
       <path d="M 32.171875 -5.078125 
Q 28.375 -14.84375 24.75 -17.8125 
Q 21.140625 -20.796875 15.09375 -20.796875 
L 7.90625 -20.796875 
L 7.90625 -13.28125 
L 13.1875 -13.28125 
Q 16.890625 -13.28125 18.9375 -11.515625 
Q 21 -9.765625 23.484375 -3.21875 
L 25.09375 0.875 
L 2.984375 54.6875 
L 12.5 54.6875 
L 29.59375 11.921875 
L 46.6875 54.6875 
L 56.203125 54.6875 
z
" id="DejaVuSans-121"/>
       <path d="M 30.609375 48.390625 
Q 23.390625 48.390625 19.1875 42.75 
Q 14.984375 37.109375 14.984375 27.296875 
Q 14.984375 17.484375 19.15625 11.84375 
Q 23.34375 6.203125 30.609375 6.203125 
Q 37.796875 6.203125 41.984375 11.859375 
Q 46.1875 17.53125 46.1875 27.296875 
Q 46.1875 37.015625 41.984375 42.703125 
Q 37.796875 48.390625 30.609375 48.390625 
z
M 30.609375 56 
Q 42.328125 56 49.015625 48.375 
Q 55.71875 40.765625 55.71875 27.296875 
Q 55.71875 13.875 49.015625 6.21875 
Q 42.328125 -1.421875 30.609375 -1.421875 
Q 18.84375 -1.421875 12.171875 6.21875 
Q 5.515625 13.875 5.515625 27.296875 
Q 5.515625 40.765625 12.171875 48.375 
Q 18.84375 56 30.609375 56 
z
" id="DejaVuSans-111"/>
       <path d="M 52 44.1875 
Q 55.375 50.25 60.0625 53.125 
Q 64.75 56 71.09375 56 
Q 79.640625 56 84.28125 50.015625 
Q 88.921875 44.046875 88.921875 33.015625 
L 88.921875 0 
L 79.890625 0 
L 79.890625 32.71875 
Q 79.890625 40.578125 77.09375 44.375 
Q 74.3125 48.1875 68.609375 48.1875 
Q 61.625 48.1875 57.5625 43.546875 
Q 53.515625 38.921875 53.515625 30.90625 
L 53.515625 0 
L 44.484375 0 
L 44.484375 32.71875 
Q 44.484375 40.625 41.703125 44.40625 
Q 38.921875 48.1875 33.109375 48.1875 
Q 26.21875 48.1875 22.15625 43.53125 
Q 18.109375 38.875 18.109375 30.90625 
L 18.109375 0 
L 9.078125 0 
L 9.078125 54.6875 
L 18.109375 54.6875 
L 18.109375 46.1875 
Q 21.1875 51.21875 25.484375 53.609375 
Q 29.78125 56 35.6875 56 
Q 41.65625 56 45.828125 52.96875 
Q 50 49.953125 52 44.1875 
z
" id="DejaVuSans-109"/>
       <path d="M 18.109375 8.203125 
L 18.109375 -20.796875 
L 9.078125 -20.796875 
L 9.078125 54.6875 
L 18.109375 54.6875 
L 18.109375 46.390625 
Q 20.953125 51.265625 25.265625 53.625 
Q 29.59375 56 35.59375 56 
Q 45.5625 56 51.78125 48.09375 
Q 58.015625 40.1875 58.015625 27.296875 
Q 58.015625 14.40625 51.78125 6.484375 
Q 45.5625 -1.421875 35.59375 -1.421875 
Q 29.59375 -1.421875 25.265625 0.953125 
Q 20.953125 3.328125 18.109375 8.203125 
z
M 48.6875 27.296875 
Q 48.6875 37.203125 44.609375 42.84375 
Q 40.53125 48.484375 33.40625 48.484375 
Q 26.265625 48.484375 22.1875 42.84375 
Q 18.109375 37.203125 18.109375 27.296875 
Q 18.109375 17.390625 22.1875 11.75 
Q 26.265625 6.109375 33.40625 6.109375 
Q 40.53125 6.109375 44.609375 11.75 
Q 48.6875 17.390625 48.6875 27.296875 
z
" id="DejaVuSans-112"/>
       <path d="M 2.984375 54.6875 
L 12.5 54.6875 
L 29.59375 8.796875 
L 46.6875 54.6875 
L 56.203125 54.6875 
L 35.6875 0 
L 23.484375 0 
z
" id="DejaVuSans-118"/>
       <path d="M 45.40625 27.984375 
Q 45.40625 37.75 41.375 43.109375 
Q 37.359375 48.484375 30.078125 48.484375 
Q 22.859375 48.484375 18.828125 43.109375 
Q 14.796875 37.75 14.796875 27.984375 
Q 14.796875 18.265625 18.828125 12.890625 
Q 22.859375 7.515625 30.078125 7.515625 
Q 37.359375 7.515625 41.375 12.890625 
Q 45.40625 18.265625 45.40625 27.984375 
z
M 54.390625 6.78125 
Q 54.390625 -7.171875 48.1875 -13.984375 
Q 42 -20.796875 29.203125 -20.796875 
Q 24.46875 -20.796875 20.265625 -20.09375 
Q 16.0625 -19.390625 12.109375 -17.921875 
L 12.109375 -9.1875 
Q 16.0625 -11.328125 19.921875 -12.34375 
Q 23.78125 -13.375 27.78125 -13.375 
Q 36.625 -13.375 41.015625 -8.765625 
Q 45.40625 -4.15625 45.40625 5.171875 
L 45.40625 9.625 
Q 42.625 4.78125 38.28125 2.390625 
Q 33.9375 0 27.875 0 
Q 17.828125 0 11.671875 7.65625 
Q 5.515625 15.328125 5.515625 27.984375 
Q 5.515625 40.671875 11.671875 48.328125 
Q 17.828125 56 27.875 56 
Q 33.9375 56 38.28125 53.609375 
Q 42.625 51.21875 45.40625 46.390625 
L 45.40625 54.6875 
L 54.390625 54.6875 
z
" id="DejaVuSans-103"/>
      </defs>
      <use xlink:href="#DejaVuSans-82"/>
      <use x="64.982422" xlink:href="#DejaVuSans-101"/>
      <use x="126.505859" xlink:href="#DejaVuSans-115"/>
      <use x="178.605469" xlink:href="#DejaVuSans-105"/>
      <use x="206.388672" xlink:href="#DejaVuSans-100"/>
      <use x="269.865234" xlink:href="#DejaVuSans-101"/>
      <use x="331.388672" xlink:href="#DejaVuSans-110"/>
      <use x="394.767578" xlink:href="#DejaVuSans-116"/>
      <use x="433.976562" xlink:href="#DejaVuSans-105"/>
      <use x="461.759766" xlink:href="#DejaVuSans-97"/>
      <use x="523.039062" xlink:href="#DejaVuSans-108"/>
      <use x="550.822266" xlink:href="#DejaVuSans-32"/>
      <use x="582.609375" xlink:href="#DejaVuSans-101"/>
      <use x="644.132812" xlink:href="#DejaVuSans-108"/>
      <use x="671.916016" xlink:href="#DejaVuSans-101"/>
      <use x="733.439453" xlink:href="#DejaVuSans-99"/>
      <use x="788.419922" xlink:href="#DejaVuSans-116"/>
      <use x="827.628906" xlink:href="#DejaVuSans-114"/>
      <use x="868.742188" xlink:href="#DejaVuSans-105"/>
      <use x="896.525391" xlink:href="#DejaVuSans-99"/>
      <use x="951.505859" xlink:href="#DejaVuSans-105"/>
      <use x="979.289062" xlink:href="#DejaVuSans-116"/>
      <use x="1018.498047" xlink:href="#DejaVuSans-121"/>
      <use x="1077.677734" xlink:href="#DejaVuSans-32"/>
      <use x="1109.464844" xlink:href="#DejaVuSans-99"/>
      <use x="1164.445312" xlink:href="#DejaVuSans-111"/>
      <use x="1225.626953" xlink:href="#DejaVuSans-110"/>
      <use x="1289.005859" xlink:href="#DejaVuSans-115"/>
      <use x="1341.105469" xlink:href="#DejaVuSans-117"/>
      <use x="1404.484375" xlink:href="#DejaVuSans-109"/>
      <use x="1501.896484" xlink:href="#DejaVuSans-112"/>
      <use x="1565.373047" xlink:href="#DejaVuSans-116"/>
      <use x="1604.582031" xlink:href="#DejaVuSans-105"/>
      <use x="1632.365234" xlink:href="#DejaVuSans-111"/>
      <use x="1693.546875" xlink:href="#DejaVuSans-110"/>
      <use x="1756.925781" xlink:href="#DejaVuSans-32"/>
      <use x="1788.712891" xlink:href="#DejaVuSans-118"/>
      <use x="1847.892578" xlink:href="#DejaVuSans-97"/>
      <use x="1909.171875" xlink:href="#DejaVuSans-114"/>
      <use x="1950.285156" xlink:href="#DejaVuSans-105"/>
      <use x="1978.068359" xlink:href="#DejaVuSans-97"/>
      <use x="2039.347656" xlink:href="#DejaVuSans-116"/>
      <use x="2078.556641" xlink:href="#DejaVuSans-105"/>
      <use x="2106.339844" xlink:href="#DejaVuSans-111"/>
      <use x="2167.521484" xlink:href="#DejaVuSans-110"/>
      <use x="2230.900391" xlink:href="#DejaVuSans-32"/>
      <use x="2262.6875" xlink:href="#DejaVuSans-112"/>
      <use x="2326.164062" xlink:href="#DejaVuSans-101"/>
      <use x="2387.6875" xlink:href="#DejaVuSans-114"/>
      <use x="2426.550781" xlink:href="#DejaVuSans-99"/>
      <use x="2481.53125" xlink:href="#DejaVuSans-101"/>
      <use x="2543.054688" xlink:href="#DejaVuSans-110"/>
      <use x="2606.433594" xlink:href="#DejaVuSans-116"/>
      <use x="2645.642578" xlink:href="#DejaVuSans-97"/>
      <use x="2706.921875" xlink:href="#DejaVuSans-103"/>
      <use x="2770.398438" xlink:href="#DejaVuSans-101"/>
     </g>
    </g>
   </g>
   <g id="line2d_28">
    <path clip-path="url(#p112adcb4c9)" d="M 66.400285 149.454294 
L 66.400285 192.933808 
" style="fill:none;stroke:#3682be;stroke-linecap:square;stroke-width:2;"/>
   </g>
   <g id="line2d_29">
    <path clip-path="url(#p112adcb4c9)" d="M 66.400285 117.462855 
L 66.400285 83.971009 
" style="fill:none;stroke:#3682be;stroke-linecap:square;stroke-width:2;"/>
   </g>
   <g id="line2d_30">
    <path clip-path="url(#p112adcb4c9)" d="M 60.564902 192.933808 
L 72.235669 192.933808 
" style="fill:none;stroke:#3682be;stroke-linecap:square;stroke-width:2;"/>
   </g>
   <g id="line2d_31">
    <path clip-path="url(#p112adcb4c9)" d="M 60.564902 83.971009 
L 72.235669 83.971009 
" style="fill:none;stroke:#3682be;stroke-linecap:square;stroke-width:2;"/>
   </g>
   <g id="line2d_32">
    <defs>
     <path d="M 0 2.5 
C 0.663008 2.5 1.29895 2.236584 1.767767 1.767767 
C 2.236584 1.29895 2.5 0.663008 2.5 0 
C 2.5 -0.663008 2.236584 -1.29895 1.767767 -1.767767 
C 1.29895 -2.236584 0.663008 -2.5 0 -2.5 
C -0.663008 -2.5 -1.29895 -2.236584 -1.767767 -1.767767 
C -2.236584 -1.29895 -2.5 -0.663008 -2.5 0 
C -2.5 0.663008 -2.236584 1.29895 -1.767767 1.767767 
C -1.29895 2.236584 -0.663008 2.5 0 2.5 
z
" id="m4269d31015" style="stroke:#000000;stroke-opacity:0;"/>
    </defs>
    <g clip-path="url(#p112adcb4c9)">
     <use style="fill:#3682be;stroke:#000000;stroke-opacity:0;" x="66.400285" xlink:href="#m4269d31015" y="33.433373"/>
    </g>
   </g>
   <g id="line2d_33">
    <path clip-path="url(#p112adcb4c9)" d="M 113.083356 137.440746 
L 113.083356 168.272043 
" style="fill:none;stroke:#47a576;stroke-linecap:square;stroke-width:2;"/>
   </g>
   <g id="line2d_34">
    <path clip-path="url(#p112adcb4c9)" d="M 113.083356 116.084558 
L 113.083356 86.782578 
" style="fill:none;stroke:#47a576;stroke-linecap:square;stroke-width:2;"/>
   </g>
   <g id="line2d_35">
    <path clip-path="url(#p112adcb4c9)" d="M 107.247972 168.272043 
L 118.91874 168.272043 
" style="fill:none;stroke:#47a576;stroke-linecap:square;stroke-width:2;"/>
   </g>
   <g id="line2d_36">
    <path clip-path="url(#p112adcb4c9)" d="M 107.247972 86.782578 
L 118.91874 86.782578 
" style="fill:none;stroke:#47a576;stroke-linecap:square;stroke-width:2;"/>
   </g>
   <g id="line2d_37">
    <defs>
     <path d="M 0 2.5 
C 0.663008 2.5 1.29895 2.236584 1.767767 1.767767 
C 2.236584 1.29895 2.5 0.663008 2.5 0 
C 2.5 -0.663008 2.236584 -1.29895 1.767767 -1.767767 
C 1.29895 -2.236584 0.663008 -2.5 0 -2.5 
C -0.663008 -2.5 -1.29895 -2.236584 -1.767767 -1.767767 
C -2.236584 -1.29895 -2.5 -0.663008 -2.5 0 
C -2.5 0.663008 -2.236584 1.29895 -1.767767 1.767767 
C -1.29895 2.236584 -0.663008 2.5 0 2.5 
z
" id="m47c12e6993" style="stroke:#000000;stroke-opacity:0;"/>
    </defs>
    <g clip-path="url(#p112adcb4c9)">
     <use style="fill:#47a576;stroke:#000000;stroke-opacity:0;" x="113.083356" xlink:href="#m47c12e6993" y="175.964583"/>
     <use style="fill:#47a576;stroke:#000000;stroke-opacity:0;" x="113.083356" xlink:href="#m47c12e6993" y="80.082219"/>
    </g>
   </g>
   <g id="line2d_38">
    <path clip-path="url(#p112adcb4c9)" d="M 159.766427 165.222617 
L 159.766427 210.603514 
" style="fill:none;stroke:#f59210;stroke-linecap:square;stroke-width:2;"/>
   </g>
   <g id="line2d_39">
    <path clip-path="url(#p112adcb4c9)" d="M 159.766427 116.498589 
L 159.766427 84.335437 
" style="fill:none;stroke:#f59210;stroke-linecap:square;stroke-width:2;"/>
   </g>
   <g id="line2d_40">
    <path clip-path="url(#p112adcb4c9)" d="M 153.931043 210.603514 
L 165.601811 210.603514 
" style="fill:none;stroke:#f59210;stroke-linecap:square;stroke-width:2;"/>
   </g>
   <g id="line2d_41">
    <path clip-path="url(#p112adcb4c9)" d="M 153.931043 84.335437 
L 165.601811 84.335437 
" style="fill:none;stroke:#f59210;stroke-linecap:square;stroke-width:2;"/>
   </g>
   <g id="line2d_42">
    <defs>
     <path d="M 0 2.5 
C 0.663008 2.5 1.29895 2.236584 1.767767 1.767767 
C 2.236584 1.29895 2.5 0.663008 2.5 0 
C 2.5 -0.663008 2.236584 -1.29895 1.767767 -1.767767 
C 1.29895 -2.236584 0.663008 -2.5 0 -2.5 
C -0.663008 -2.5 -1.29895 -2.236584 -1.767767 -1.767767 
C -2.236584 -1.29895 -2.5 -0.663008 -2.5 0 
C -2.5 0.663008 -2.236584 1.29895 -1.767767 1.767767 
C -1.29895 2.236584 -0.663008 2.5 0 2.5 
z
" id="mef97c68603" style="stroke:#000000;stroke-opacity:0;"/>
    </defs>
    <g clip-path="url(#p112adcb4c9)">
     <use style="fill:#f59210;stroke:#000000;stroke-opacity:0;" x="159.766427" xlink:href="#mef97c68603" y="39.645894"/>
     <use style="fill:#f59210;stroke:#000000;stroke-opacity:0;" x="159.766427" xlink:href="#mef97c68603" y="36.235362"/>
     <use style="fill:#f59210;stroke:#000000;stroke-opacity:0;" x="159.766427" xlink:href="#mef97c68603" y="17.388167"/>
     <use style="fill:#f59210;stroke:#000000;stroke-opacity:0;" x="159.766427" xlink:href="#mef97c68603" y="37.92822"/>
    </g>
   </g>
   <g id="line2d_43">
    <path clip-path="url(#p112adcb4c9)" d="M 206.449498 127.765003 
L 206.449498 145.319678 
" style="fill:none;stroke:#fa4343;stroke-linecap:square;stroke-width:2;"/>
   </g>
   <g id="line2d_44">
    <path clip-path="url(#p112adcb4c9)" d="M 206.449498 108.940478 
L 206.449498 87.064947 
" style="fill:none;stroke:#fa4343;stroke-linecap:square;stroke-width:2;"/>
   </g>
   <g id="line2d_45">
    <path clip-path="url(#p112adcb4c9)" d="M 200.614114 145.319678 
L 212.284882 145.319678 
" style="fill:none;stroke:#fa4343;stroke-linecap:square;stroke-width:2;"/>
   </g>
   <g id="line2d_46">
    <path clip-path="url(#p112adcb4c9)" d="M 200.614114 87.064947 
L 212.284882 87.064947 
" style="fill:none;stroke:#fa4343;stroke-linecap:square;stroke-width:2;"/>
   </g>
   <g id="line2d_47">
    <defs>
     <path d="M 0 2.5 
C 0.663008 2.5 1.29895 2.236584 1.767767 1.767767 
C 2.236584 1.29895 2.5 0.663008 2.5 0 
C 2.5 -0.663008 2.236584 -1.29895 1.767767 -1.767767 
C 1.29895 -2.236584 0.663008 -2.5 0 -2.5 
C -0.663008 -2.5 -1.29895 -2.236584 -1.767767 -1.767767 
C -2.236584 -1.29895 -2.5 -0.663008 -2.5 0 
C -2.5 0.663008 -2.236584 1.29895 -1.767767 1.767767 
C -1.29895 2.236584 -0.663008 2.5 0 2.5 
z
" id="maf028dada7" style="stroke:#000000;stroke-opacity:0;"/>
    </defs>
    <g clip-path="url(#p112adcb4c9)">
     <use style="fill:#fa4343;stroke:#000000;stroke-opacity:0;" x="206.449498" xlink:href="#maf028dada7" y="191.541519"/>
     <use style="fill:#fa4343;stroke:#000000;stroke-opacity:0;" x="206.449498" xlink:href="#maf028dada7" y="191.108023"/>
     <use style="fill:#fa4343;stroke:#000000;stroke-opacity:0;" x="206.449498" xlink:href="#maf028dada7" y="21.767605"/>
     <use style="fill:#fa4343;stroke:#000000;stroke-opacity:0;" x="206.449498" xlink:href="#maf028dada7" y="80.245917"/>
     <use style="fill:#fa4343;stroke:#000000;stroke-opacity:0;" x="206.449498" xlink:href="#maf028dada7" y="21.403913"/>
     <use style="fill:#fa4343;stroke:#000000;stroke-opacity:0;" x="206.449498" xlink:href="#maf028dada7" y="24.049595"/>
    </g>
   </g>
   <g id="line2d_48">
    <path clip-path="url(#p112adcb4c9)" d="M 253.132569 169.055458 
L 253.132569 214.771642 
" style="fill:none;stroke:#16b0cc;stroke-linecap:square;stroke-width:2;"/>
   </g>
   <g id="line2d_49">
    <path clip-path="url(#p112adcb4c9)" d="M 253.132569 114.998125 
L 253.132569 84.194011 
" style="fill:none;stroke:#16b0cc;stroke-linecap:square;stroke-width:2;"/>
   </g>
   <g id="line2d_50">
    <path clip-path="url(#p112adcb4c9)" d="M 247.297185 214.771642 
L 258.967953 214.771642 
" style="fill:none;stroke:#16b0cc;stroke-linecap:square;stroke-width:2;"/>
   </g>
   <g id="line2d_51">
    <path clip-path="url(#p112adcb4c9)" d="M 247.297185 84.194011 
L 258.967953 84.194011 
" style="fill:none;stroke:#16b0cc;stroke-linecap:square;stroke-width:2;"/>
   </g>
   <g id="line2d_52">
    <defs>
     <path d="M 0 2.5 
C 0.663008 2.5 1.29895 2.236584 1.767767 1.767767 
C 2.236584 1.29895 2.5 0.663008 2.5 0 
C 2.5 -0.663008 2.236584 -1.29895 1.767767 -1.767767 
C 1.29895 -2.236584 0.663008 -2.5 0 -2.5 
C -0.663008 -2.5 -1.29895 -2.236584 -1.767767 -1.767767 
C -2.236584 -1.29895 -2.5 -0.663008 -2.5 0 
C -2.5 0.663008 -2.236584 1.29895 -1.767767 1.767767 
C -1.29895 2.236584 -0.663008 2.5 0 2.5 
z
" id="maeff07c659" style="stroke:#000000;stroke-opacity:0;"/>
    </defs>
    <g clip-path="url(#p112adcb4c9)">
     <use style="fill:#16b0cc;stroke:#000000;stroke-opacity:0;" x="253.132569" xlink:href="#maeff07c659" y="24.094839"/>
    </g>
   </g>
   <g id="line2d_53">
    <path clip-path="url(#p112adcb4c9)" d="M 299.81564 152.554728 
L 299.81564 202.342223 
" style="fill:none;stroke:#92d151;stroke-linecap:square;stroke-width:2;"/>
   </g>
   <g id="line2d_54">
    <path clip-path="url(#p112adcb4c9)" d="M 299.81564 118.649234 
L 299.81564 105.468072 
" style="fill:none;stroke:#92d151;stroke-linecap:square;stroke-width:2;"/>
   </g>
   <g id="line2d_55">
    <path clip-path="url(#p112adcb4c9)" d="M 293.980256 202.342223 
L 305.651024 202.342223 
" style="fill:none;stroke:#92d151;stroke-linecap:square;stroke-width:2;"/>
   </g>
   <g id="line2d_56">
    <path clip-path="url(#p112adcb4c9)" d="M 293.980256 105.468072 
L 305.651024 105.468072 
" style="fill:none;stroke:#92d151;stroke-linecap:square;stroke-width:2;"/>
   </g>
   <g id="line2d_57"/>
   <g id="line2d_58">
    <path clip-path="url(#p112adcb4c9)" d="M 346.498711 129.094546 
L 346.498711 142.784562 
" style="fill:none;stroke:#5f6694;stroke-linecap:square;stroke-width:2;"/>
   </g>
   <g id="line2d_59">
    <path clip-path="url(#p112adcb4c9)" d="M 346.498711 110.56947 
L 346.498711 100.345498 
" style="fill:none;stroke:#5f6694;stroke-linecap:square;stroke-width:2;"/>
   </g>
   <g id="line2d_60">
    <path clip-path="url(#p112adcb4c9)" d="M 340.663327 142.784562 
L 352.334094 142.784562 
" style="fill:none;stroke:#5f6694;stroke-linecap:square;stroke-width:2;"/>
   </g>
   <g id="line2d_61">
    <path clip-path="url(#p112adcb4c9)" d="M 340.663327 100.345498 
L 352.334094 100.345498 
" style="fill:none;stroke:#5f6694;stroke-linecap:square;stroke-width:2;"/>
   </g>
   <g id="line2d_62">
    <defs>
     <path d="M 0 2.5 
C 0.663008 2.5 1.29895 2.236584 1.767767 1.767767 
C 2.236584 1.29895 2.5 0.663008 2.5 0 
C 2.5 -0.663008 2.236584 -1.29895 1.767767 -1.767767 
C 1.29895 -2.236584 0.663008 -2.5 0 -2.5 
C -0.663008 -2.5 -1.29895 -2.236584 -1.767767 -1.767767 
C -2.236584 -1.29895 -2.5 -0.663008 -2.5 0 
C -2.5 0.663008 -2.236584 1.29895 -1.767767 1.767767 
C -1.29895 2.236584 -0.663008 2.5 0 2.5 
z
" id="m0d0f6ddc94" style="stroke:#000000;stroke-opacity:0;"/>
    </defs>
    <g clip-path="url(#p112adcb4c9)">
     <use style="fill:#5f6694;stroke:#000000;stroke-opacity:0;" x="346.498711" xlink:href="#m0d0f6ddc94" y="191.578995"/>
    </g>
   </g>
   <g id="line2d_63">
    <path clip-path="url(#p112adcb4c9)" d="M 393.181781 121.727532 
L 393.181781 144.379599 
" style="fill:none;stroke:#e93781;stroke-linecap:square;stroke-width:2;"/>
   </g>
   <g id="line2d_64">
    <path clip-path="url(#p112adcb4c9)" d="M 393.181781 97.90991 
L 393.181781 97.90991 
" style="fill:none;stroke:#e93781;stroke-linecap:square;stroke-width:2;"/>
   </g>
   <g id="line2d_65">
    <path clip-path="url(#p112adcb4c9)" d="M 387.346398 144.379599 
L 399.017165 144.379599 
" style="fill:none;stroke:#e93781;stroke-linecap:square;stroke-width:2;"/>
   </g>
   <g id="line2d_66">
    <path clip-path="url(#p112adcb4c9)" d="M 387.346398 97.90991 
L 399.017165 97.90991 
" style="fill:none;stroke:#e93781;stroke-linecap:square;stroke-width:2;"/>
   </g>
   <g id="line2d_67">
    <defs>
     <path d="M 0 2.5 
C 0.663008 2.5 1.29895 2.236584 1.767767 1.767767 
C 2.236584 1.29895 2.5 0.663008 2.5 0 
C 2.5 -0.663008 2.236584 -1.29895 1.767767 -1.767767 
C 1.29895 -2.236584 0.663008 -2.5 0 -2.5 
C -0.663008 -2.5 -1.29895 -2.236584 -1.767767 -1.767767 
C -2.236584 -1.29895 -2.5 -0.663008 -2.5 0 
C -2.5 0.663008 -2.236584 1.29895 -1.767767 1.767767 
C -1.29895 2.236584 -0.663008 2.5 0 2.5 
z
" id="mdbc1470236" style="stroke:#000000;stroke-opacity:0;"/>
    </defs>
    <g clip-path="url(#p112adcb4c9)">
     <use style="fill:#e93781;stroke:#000000;stroke-opacity:0;" x="393.181781" xlink:href="#mdbc1470236" y="26.465753"/>
    </g>
   </g>
   <g id="patch_3">
    <path clip-path="url(#p112adcb4c9)" d="M 54.729518 149.454294 
L 78.071053 149.454294 
L 78.071053 117.462855 
L 54.729518 117.462855 
L 54.729518 149.454294 
z
" style="fill:#3682be;stroke:#3682be;stroke-linejoin:miter;stroke-width:2;"/>
   </g>
   <g id="patch_4">
    <path clip-path="url(#p112adcb4c9)" d="M 101.412589 137.440746 
L 124.754124 137.440746 
L 124.754124 116.084558 
L 101.412589 116.084558 
L 101.412589 137.440746 
z
" style="fill:#47a576;stroke:#47a576;stroke-linejoin:miter;stroke-width:2;"/>
   </g>
   <g id="patch_5">
    <path clip-path="url(#p112adcb4c9)" d="M 148.095659 165.222617 
L 171.437195 165.222617 
L 171.437195 116.498589 
L 148.095659 116.498589 
L 148.095659 165.222617 
z
" style="fill:#f59210;stroke:#f59210;stroke-linejoin:miter;stroke-width:2;"/>
   </g>
   <g id="patch_6">
    <path clip-path="url(#p112adcb4c9)" d="M 194.77873 127.765003 
L 218.120266 127.765003 
L 218.120266 108.940478 
L 194.77873 108.940478 
L 194.77873 127.765003 
z
" style="fill:#fa4343;stroke:#fa4343;stroke-linejoin:miter;stroke-width:2;"/>
   </g>
   <g id="patch_7">
    <path clip-path="url(#p112adcb4c9)" d="M 241.461801 169.055458 
L 264.803337 169.055458 
L 264.803337 114.998125 
L 241.461801 114.998125 
L 241.461801 169.055458 
z
" style="fill:#16b0cc;stroke:#16b0cc;stroke-linejoin:miter;stroke-width:2;"/>
   </g>
   <g id="patch_8">
    <path clip-path="url(#p112adcb4c9)" d="M 288.144872 152.554728 
L 311.486407 152.554728 
L 311.486407 118.649234 
L 288.144872 118.649234 
L 288.144872 152.554728 
z
" style="fill:#92d151;stroke:#92d151;stroke-linejoin:miter;stroke-width:2;"/>
   </g>
   <g id="patch_9">
    <path clip-path="url(#p112adcb4c9)" d="M 334.827943 129.094546 
L 358.169478 129.094546 
L 358.169478 110.56947 
L 334.827943 110.56947 
L 334.827943 129.094546 
z
" style="fill:#5f6694;stroke:#5f6694;stroke-linejoin:miter;stroke-width:2;"/>
   </g>
   <g id="patch_10">
    <path clip-path="url(#p112adcb4c9)" d="M 381.511014 121.727532 
L 404.852549 121.727532 
L 404.852549 97.90991 
L 381.511014 97.90991 
L 381.511014 121.727532 
z
" style="fill:#e93781;stroke:#e93781;stroke-linejoin:miter;stroke-width:2;"/>
   </g>
   <g id="line2d_68">
    <path clip-path="url(#p112adcb4c9)" d="M 54.729518 128.603701 
L 78.071053 128.603701 
" style="fill:none;stroke:#000000;stroke-linecap:square;stroke-width:2;"/>
   </g>
   <g id="line2d_69">
    <path clip-path="url(#p112adcb4c9)" d="M 101.412589 123.703389 
L 124.754124 123.703389 
" style="fill:none;stroke:#000000;stroke-linecap:square;stroke-width:2;"/>
   </g>
   <g id="line2d_70">
    <path clip-path="url(#p112adcb4c9)" d="M 148.095659 128.177439 
L 171.437195 128.177439 
" style="fill:none;stroke:#000000;stroke-linecap:square;stroke-width:2;"/>
   </g>
   <g id="line2d_71">
    <path clip-path="url(#p112adcb4c9)" d="M 194.77873 117.737415 
L 218.120266 117.737415 
" style="fill:none;stroke:#000000;stroke-linecap:square;stroke-width:2;"/>
   </g>
   <g id="line2d_72">
    <path clip-path="url(#p112adcb4c9)" d="M 241.461801 128.222353 
L 264.803337 128.222353 
" style="fill:none;stroke:#000000;stroke-linecap:square;stroke-width:2;"/>
   </g>
   <g id="line2d_73">
    <path clip-path="url(#p112adcb4c9)" d="M 288.144872 129.837534 
L 311.486407 129.837534 
" style="fill:none;stroke:#000000;stroke-linecap:square;stroke-width:2;"/>
   </g>
   <g id="line2d_74">
    <path clip-path="url(#p112adcb4c9)" d="M 334.827943 117.521862 
L 358.169478 117.521862 
" style="fill:none;stroke:#000000;stroke-linecap:square;stroke-width:2;"/>
   </g>
   <g id="line2d_75">
    <path clip-path="url(#p112adcb4c9)" d="M 381.511014 99.806663 
L 404.852549 99.806663 
" style="fill:none;stroke:#000000;stroke-linecap:square;stroke-width:2;"/>
   </g>
  </g>
 </g>
 <defs>
  <clipPath id="p112adcb4c9">
   <rect height="214.015748" width="373.464567" x="43.05875" y="7.2"/>
  </clipPath>
 </defs>
</svg>
