<svg id="svg" version="1.1" xmlns="http://www.w3.org/2000/svg" xmlns:xlink="http://www.w3.org/1999/xlink" width="400" height="400" viewBox="0, 0, 400,400"><g id="svgg"><path id="path0" d="M181.800 23.797 C 176.826 24.364,175.575 24.553,167.200 26.005 C 129.208 32.590,90.149 55.253,65.168 85.205 C 41.940 113.054,29.421 141.598,24.116 178.800 C 23.075 186.103,23.075 213.897,24.116 221.200 C 36.028 304.738,95.262 363.972,178.800 375.884 C 186.103 376.925,213.897 376.925,221.200 375.884 C 296.458 365.153,354.156 314.187,371.762 242.890 C 375.827 226.430,376.597 219.600,376.597 200.000 C 376.597 180.400,375.827 173.570,371.762 157.110 C 354.178 85.905,296.470 34.868,221.400 24.132 C 215.244 23.251,188.568 23.026,181.800 23.797 M215.225 33.404 C 307.237 41.857,374.993 123.241,366.600 215.225 C 357.482 315.156,262.983 384.544,164.600 363.545 C 74.464 344.307,16.874 254.500,36.620 163.971 C 51.901 93.910,112.204 40.138,182.800 33.622 C 185.330 33.389,188.030 33.137,188.800 33.063 C 193.024 32.656,209.382 32.867,215.225 33.404 M195.089 45.499 C 188.894 48.769,185.438 53.842,181.801 65.000 C 179.298 72.682,177.539 76.800,176.761 76.800 C 176.210 76.800,176.620 74.876,177.791 71.966 C 179.152 68.584,180.280 62.140,179.679 61.177 C 179.415 60.756,179.200 59.598,179.200 58.605 C 179.200 57.287,179.042 56.800,178.614 56.800 C 177.776 56.800,177.200 58.090,177.200 59.964 C 177.200 61.255,176.995 61.716,176.184 62.248 C 173.167 64.224,172.286 68.894,174.721 70.000 C 176.323 70.728,176.277 71.615,174.335 77.472 C 173.004 81.487,173.028 82.006,174.589 83.029 C 176.946 84.574,179.890 78.836,182.759 67.107 C 185.055 57.717,188.202 52.788,195.223 47.583 C 199.099 44.710,199.384 44.967,197.553 49.687 C 195.417 55.196,192.800 59.234,192.800 57.021 C 192.800 55.786,191.396 54.667,190.470 55.163 C 189.497 55.683,189.577 56.971,190.691 58.753 C 191.730 60.412,191.808 68.644,190.809 71.177 C 189.530 74.422,189.737 75.924,191.271 74.536 C 192.325 73.582,192.527 74.017,192.777 77.778 C 193.095 82.569,194.750 84.112,198.174 82.810 C 200.251 82.020,198.916 79.200,196.464 79.200 C 195.718 79.200,195.551 79.031,195.707 78.436 C 196.568 75.143,197.699 68.436,197.487 67.882 C 197.177 67.074,194.437 66.923,193.687 67.673 C 192.955 68.405,192.847 68.043,192.555 63.880 C 192.291 60.133,192.310 60.000,193.111 60.000 C 194.015 60.000,197.694 55.431,199.914 51.550 C 203.663 44.998,201.405 42.165,195.089 45.499 M178.105 47.331 C 176.610 47.873,167.058 57.772,167.306 58.523 C 167.401 58.810,168.501 59.046,170.075 59.117 L 172.687 59.234 175.188 56.317 C 177.751 53.328,179.999 49.302,180.000 47.700 C 180.000 46.690,179.917 46.673,178.105 47.331 M138.425 54.935 C 137.202 58.150,133.402 79.166,132.394 88.283 C 131.095 100.031,130.060 105.162,128.539 107.389 C 127.310 109.188,128.566 109.333,130.520 107.617 C 132.103 106.226,132.985 103.809,133.807 98.600 C 134.589 93.652,135.600 85.109,135.600 83.453 C 135.600 82.336,135.779 82.042,136.583 81.840 C 137.247 81.673,138.435 80.330,140.249 77.697 C 143.909 72.382,145.654 70.569,145.058 72.700 C 144.951 73.085,144.744 74.950,144.600 76.846 L 144.337 80.291 142.687 81.046 C 140.065 82.244,139.459 85.958,141.975 85.405 C 143.118 85.154,143.192 85.235,144.590 88.261 C 146.652 92.724,146.678 92.948,145.247 93.967 L 144.032 94.832 143.216 94.016 C 142.570 93.370,142.400 92.683,142.400 90.720 C 142.400 87.735,142.330 87.805,139.630 93.497 C 137.198 98.623,137.254 99.200,140.187 99.200 C 141.968 99.200,142.869 98.564,143.498 96.864 C 143.788 96.080,144.170 95.923,146.080 95.807 C 151.006 95.506,151.128 93.411,146.589 87.055 C 144.864 84.639,144.794 83.001,146.248 79.048 C 147.454 75.770,147.814 69.644,146.855 68.707 C 146.122 67.990,139.867 74.544,138.084 77.897 C 136.844 80.229,136.150 81.084,135.790 80.724 C 135.350 80.283,138.342 64.430,139.963 58.617 C 140.762 55.749,140.630 54.727,139.398 54.255 C 138.985 54.096,138.656 54.326,138.425 54.935 M235.679 56.021 C 234.732 56.441,232.221 57.065,230.098 57.406 C 225.900 58.082,225.782 58.124,226.209 58.814 C 226.838 59.833,229.120 60.396,231.578 60.139 C 234.911 59.791,234.821 60.942,231.071 66.614 C 226.373 73.719,225.221 74.559,218.256 75.961 C 212.958 77.027,212.790 77.335,216.708 78.814 C 220.218 80.139,223.403 79.789,229.335 77.429 C 231.940 76.392,235.765 75.160,237.835 74.690 C 241.457 73.868,241.600 73.794,241.600 72.746 C 241.600 70.055,239.830 69.687,234.177 71.206 C 227.471 73.008,227.501 72.908,236.182 64.494 C 242.779 58.099,243.168 57.462,241.346 56.029 C 240.033 54.996,237.992 54.993,235.679 56.021 M132.720 61.500 C 131.927 62.325,130.813 63.697,130.244 64.548 C 128.727 66.820,123.813 71.878,122.816 72.195 C 121.606 72.579,121.939 73.769,123.301 73.926 C 127.178 74.374,133.491 67.423,134.253 61.868 C 134.561 59.616,134.537 59.610,132.720 61.500 M176.954 66.500 C 176.668 68.399,176.281 69.021,175.635 68.622 C 175.033 68.249,175.091 67.371,175.810 65.980 C 176.704 64.252,177.254 64.503,176.954 66.500 M195.450 69.900 C 195.337 70.285,195.031 71.729,194.769 73.110 C 194.193 76.142,193.781 76.516,193.224 74.510 C 192.667 72.506,192.644 72.637,193.900 70.821 C 195.054 69.153,195.796 68.712,195.450 69.900 M278.017 73.982 C 272.632 79.738,273.054 79.580,267.711 77.857 C 265.340 77.093,262.740 76.345,261.934 76.195 L 260.467 75.924 260.781 77.315 C 261.330 79.749,262.499 80.355,266.800 80.438 C 270.902 80.516,271.259 80.822,268.968 82.292 C 264.888 84.910,260.469 86.205,253.292 86.886 C 246.730 87.508,247.192 88.808,254.000 88.879 C 257.690 88.918,260.390 88.217,267.708 85.322 C 274.498 82.636,277.065 82.343,284.529 83.403 C 288.770 84.005,290.138 84.004,289.533 83.400 C 289.423 83.290,286.663 82.705,283.399 82.100 C 276.211 80.768,276.223 80.791,280.981 77.214 C 285.296 73.971,285.574 73.325,283.786 70.693 C 282.517 68.825,283.211 68.430,278.017 73.982 M150.900 80.283 C 151.285 80.712,151.600 81.320,151.600 81.634 C 151.600 82.734,156.422 84.258,157.075 83.365 C 158.293 81.699,156.480 80.311,152.400 79.786 C 150.239 79.508,150.212 79.517,150.900 80.283 M137.049 84.321 C 136.695 84.894,137.180 87.820,137.760 88.613 C 138.804 90.041,140.447 88.100,139.428 86.644 C 137.964 84.553,137.304 83.908,137.049 84.321 M272.660 89.909 C 270.646 100.913,270.724 101.577,274.142 102.559 C 281.368 104.635,284.360 104.837,280.992 103.023 C 276.391 100.546,272.907 93.295,273.758 87.970 C 274.269 84.776,273.279 86.524,272.660 89.909 M96.516 92.881 C 96.289 93.166,95.286 95.284,94.289 97.587 C 92.033 102.798,92.239 102.773,89.399 98.181 C 87.419 94.982,86.895 94.387,86.215 94.570 C 85.767 94.691,84.828 94.792,84.129 94.795 C 81.106 94.808,80.898 96.727,83.744 98.334 C 85.985 99.598,87.856 101.632,89.015 104.063 C 89.864 105.844,89.261 107.907,85.316 116.705 C 82.762 122.401,82.598 123.200,83.982 123.200 C 85.098 123.200,86.772 121.029,89.151 116.497 C 91.643 111.752,91.699 111.720,92.668 114.500 C 94.744 120.455,93.198 130.771,89.184 137.752 L 87.601 140.504 89.431 140.298 C 95.349 139.631,98.179 125.661,95.164 112.000 C 94.703 109.910,94.238 107.747,94.131 107.193 C 94.001 106.520,94.701 104.465,96.241 100.996 C 98.802 95.228,99.255 92.694,97.765 92.481 C 97.306 92.415,96.744 92.595,96.516 92.881 M192.297 94.798 C 101.773 101.849,61.736 212.725,126.915 275.866 C 193.486 340.356,304.993 292.851,304.993 200.000 C 304.993 138.448,253.156 90.058,192.297 94.798 M316.598 102.459 C 315.155 105.379,315.057 106.147,316.254 105.157 C 316.968 104.566,318.790 100.943,318.796 100.100 C 318.806 98.857,317.895 99.835,316.598 102.459 M327.580 103.100 C 326.610 106.124,320.921 107.824,319.138 105.623 C 318.445 104.767,317.317 104.819,317.851 105.683 C 317.996 105.918,317.684 106.444,317.158 106.852 L 316.200 107.595 317.081 107.839 C 318.084 108.117,319.355 109.826,318.993 110.411 C 318.676 110.925,313.718 110.915,313.400 110.400 C 312.962 109.691,312.000 109.975,312.000 110.813 C 312.000 111.259,311.730 111.729,311.400 111.855 C 310.543 112.184,310.658 112.800,311.576 112.800 C 312.475 112.800,313.001 113.428,312.410 113.794 C 311.918 114.098,306.162 112.525,305.016 111.774 C 303.509 110.786,302.849 111.702,303.800 113.461 C 304.560 114.868,304.840 115.015,309.400 116.400 C 316.060 118.423,317.690 119.163,316.503 119.624 C 315.373 120.062,307.319 119.355,304.565 118.576 C 301.973 117.843,299.830 117.841,299.224 118.571 C 298.447 119.508,299.700 121.439,301.463 122.021 C 302.815 122.467,302.879 122.553,302.219 123.035 C 301.603 123.486,301.201 123.411,299.449 122.521 C 295.737 120.634,288.846 117.687,288.637 117.896 C 287.775 118.758,290.900 122.264,293.600 123.464 C 298.101 125.465,298.365 126.460,295.063 128.979 C 293.304 130.320,292.916 130.270,292.119 128.600 C 291.208 126.688,290.799 126.843,290.806 129.100 C 290.822 134.318,294.213 134.037,297.635 128.535 C 299.225 125.979,303.265 126.400,306.455 129.454 L 307.510 130.464 308.125 129.586 C 308.869 128.524,308.653 127.793,307.111 126.149 L 305.937 124.897 306.975 122.849 C 307.546 121.722,308.145 120.804,308.307 120.809 C 308.468 120.814,310.649 121.340,313.153 121.979 C 319.555 123.612,321.902 122.290,319.790 118.240 C 319.031 116.784,318.899 116.883,323.041 115.778 C 327.152 114.681,327.928 114.095,327.371 112.510 C 326.853 111.038,325.767 110.903,324.596 112.166 C 323.977 112.835,323.215 113.200,322.440 113.200 L 321.241 113.200 321.804 111.852 C 322.350 110.546,322.329 110.469,321.143 109.412 C 319.588 108.027,319.941 107.707,323.400 107.364 C 327.974 106.909,328.370 106.603,328.916 103.100 C 329.089 101.988,329.009 101.600,328.606 101.600 C 328.307 101.600,327.845 102.275,327.580 103.100 M194.200 116.400 L 194.200 129.000 164.823 129.103 C 148.665 129.159,135.305 129.065,135.134 128.894 C 134.130 127.890,148.847 117.585,157.200 113.443 C 168.526 107.826,184.333 103.438,192.200 103.727 L 194.200 103.800 194.200 116.400 M213.286 104.220 C 230.528 106.587,247.826 114.246,261.557 125.591 C 263.548 127.237,265.037 128.723,264.866 128.894 C 264.695 129.065,251.335 129.159,235.177 129.103 L 205.800 129.000 205.694 116.804 C 205.636 110.096,205.675 104.381,205.781 104.104 C 206.036 103.441,207.812 103.468,213.286 104.220 M308.051 106.664 C 306.596 108.153,306.033 108.993,306.309 109.269 C 306.934 109.894,308.173 109.484,308.343 108.595 C 308.427 108.158,309.014 107.209,309.648 106.486 C 310.764 105.213,311.116 104.365,310.500 104.433 C 310.335 104.452,309.233 105.456,308.051 106.664 M311.305 107.260 C 310.697 108.173,310.026 109.154,309.814 109.441 C 309.270 110.175,309.858 110.616,310.582 110.015 C 310.912 109.741,311.725 108.635,312.388 107.558 C 313.924 105.061,312.948 104.792,311.305 107.260 M101.436 108.101 C 100.724 108.644,100.841 108.740,103.156 109.522 C 107.019 110.827,109.600 112.908,109.600 114.720 L 109.600 116.173 111.801 113.999 C 114.936 110.903,115.032 109.961,112.355 108.577 C 110.678 107.709,102.423 107.350,101.436 108.101 M292.568 110.754 C 289.553 112.592,289.390 117.121,292.400 115.400 C 292.950 115.086,293.945 114.822,294.611 114.814 C 295.277 114.806,296.199 114.536,296.660 114.213 C 297.121 113.890,298.245 113.506,299.158 113.360 C 302.658 112.801,301.113 111.887,297.000 112.085 C 294.698 112.195,294.600 112.161,294.600 111.235 C 294.600 109.966,294.068 109.840,292.568 110.754 M318.400 111.990 C 318.400 112.459,316.289 113.600,315.420 113.600 C 314.351 113.600,314.745 112.427,315.900 112.173 C 316.505 112.039,317.180 111.870,317.400 111.797 C 318.143 111.549,318.400 111.598,318.400 111.990 M101.400 119.499 C 98.546 119.774,98.634 120.596,101.760 122.867 C 104.218 124.652,106.793 124.279,107.322 122.061 C 107.752 120.256,107.427 120.027,103.600 119.438 C 103.270 119.387,102.280 119.415,101.400 119.499 M269.200 146.778 C 269.200 162.307,266.770 178.434,262.344 192.279 L 260.770 197.200 200.000 197.200 L 139.230 197.200 137.656 192.279 C 133.230 178.434,130.800 162.307,130.800 146.778 L 130.800 140.000 200.000 140.000 L 269.200 140.000 269.200 146.778 M120.213 156.000 C 125.569 213.807,151.718 263.316,193.300 294.378 C 196.130 296.492,196.152 296.727,193.500 296.515 C 128.837 291.358,87.234 226.988,109.476 166.508 C 112.746 157.614,119.274 145.688,119.496 148.200 C 119.554 148.860,119.877 152.370,120.213 156.000 M284.173 152.754 C 318.790 214.458,277.515 290.852,206.500 296.515 C 203.848 296.727,203.870 296.492,206.700 294.378 C 247.741 263.720,273.667 215.286,279.589 158.206 C 280.035 153.909,280.406 149.630,280.413 148.697 L 280.427 147.000 281.221 147.954 C 281.658 148.478,282.986 150.638,284.173 152.754 M234.959 153.578 C 231.448 154.417,228.406 157.425,227.758 160.700 C 227.358 162.715,228.825 162.501,229.748 160.410 C 231.561 156.300,236.972 155.632,239.170 159.246 C 241.885 163.711,240.289 167.200,231.461 176.098 C 224.869 182.742,224.594 182.400,236.548 182.400 L 246.295 182.400 246.748 178.873 C 246.996 176.933,247.200 175.133,247.200 174.873 C 247.200 173.919,246.082 174.435,245.594 175.615 C 244.848 177.416,244.166 177.600,238.226 177.600 C 231.756 177.600,231.834 177.805,236.700 173.595 C 245.244 166.203,246.889 163.420,245.557 158.619 C 244.505 154.832,239.559 152.480,234.959 153.578 M160.400 155.263 C 159.410 156.159,157.309 157.649,155.732 158.574 C 153.629 159.807,152.953 160.400,153.198 160.796 C 153.528 161.331,154.005 161.205,158.500 159.396 C 159.156 159.132,159.200 159.767,159.200 169.477 C 159.200 181.103,159.277 180.800,156.320 180.800 C 154.660 180.800,154.400 180.909,154.400 181.609 C 154.400 182.396,154.603 182.414,162.100 182.309 C 168.629 182.217,169.800 182.109,169.800 181.600 C 169.800 181.155,169.235 180.968,167.609 180.876 C 164.663 180.709,164.813 181.468,164.806 166.700 L 164.800 153.600 163.500 153.616 C 162.554 153.628,161.710 154.077,160.400 155.263 M183.197 153.950 C 177.273 155.893,174.735 161.800,177.500 167.208 C 179.277 170.683,184.860 172.431,188.376 170.612 C 190.137 169.702,190.257 169.996,189.192 172.619 C 187.926 175.738,184.937 178.885,181.752 180.454 C 178.364 182.121,178.825 182.894,182.616 181.900 C 193.834 178.957,199.986 168.721,195.981 159.663 C 193.941 155.050,187.975 152.383,183.197 153.950 M208.910 154.262 C 199.751 157.505,199.563 178.050,208.658 181.850 C 215.128 184.553,221.406 179.585,222.322 171.038 C 223.581 159.290,217.211 151.322,208.910 154.262 M188.793 155.932 C 191.076 158.214,191.763 166.784,189.788 168.338 C 185.626 171.612,182.604 169.113,182.609 162.400 C 182.613 155.559,185.452 152.590,188.793 155.932 M214.524 155.833 C 217.722 159.032,217.109 179.765,213.772 181.286 C 212.149 182.025,209.991 181.259,209.020 179.600 C 208.030 177.910,207.553 161.547,208.401 158.396 C 209.335 154.929,212.356 153.665,214.524 155.833 M318.961 158.151 C 319.086 158.618,319.192 159.203,319.195 159.451 C 319.198 159.699,320.876 160.289,322.923 160.762 C 324.971 161.235,327.317 161.807,328.135 162.033 L 329.624 162.444 326.025 166.304 C 322.485 170.101,321.978 171.153,323.091 172.400 C 323.189 172.510,325.404 170.410,328.013 167.734 C 330.623 165.057,333.082 162.773,333.479 162.658 C 340.105 160.732,341.200 160.309,341.194 159.676 C 341.179 157.998,340.694 157.954,336.400 159.238 C 331.787 160.619,332.379 160.647,324.267 158.658 C 318.842 157.328,318.738 157.318,318.961 158.151 M57.052 160.900 C 56.675 162.308,56.701 162.344,58.500 162.810 C 62.069 163.736,74.606 167.277,74.724 167.393 C 74.792 167.459,74.550 168.537,74.187 169.787 C 73.459 172.290,73.441 172.190,74.677 172.570 C 75.625 172.861,75.777 172.486,78.004 164.301 C 78.899 161.015,78.863 160.614,77.646 160.296 C 77.001 160.127,76.773 160.471,76.219 162.448 C 75.470 165.116,75.569 165.082,71.799 163.988 C 68.285 162.969,57.576 160.000,57.414 160.000 C 57.348 160.000,57.185 160.405,57.052 160.900 M55.043 167.833 C 54.561 169.087,54.833 169.538,56.865 170.858 C 58.001 171.596,59.101 172.313,59.309 172.451 C 59.706 172.714,58.658 180.275,58.004 181.866 C 57.745 182.497,57.055 182.865,55.456 183.222 C 54.251 183.492,53.084 183.824,52.864 183.960 C 52.291 184.315,51.823 186.400,52.316 186.400 C 52.766 186.400,74.531 180.382,74.720 180.205 C 74.849 180.085,55.772 167.200,55.467 167.200 C 55.367 167.200,55.176 167.485,55.043 167.833 M334.147 170.706 C 333.732 170.976,334.484 178.217,334.979 178.712 C 335.932 179.665,336.766 178.181,336.686 175.678 L 336.600 173.000 337.800 173.116 C 342.600 173.580,345.267 179.890,342.533 184.312 C 336.582 193.938,322.113 186.182,327.416 176.209 C 328.392 174.373,328.404 174.267,327.724 173.516 C 325.277 170.812,322.950 180.756,325.052 184.934 C 331.006 196.773,349.556 189.713,345.397 177.191 C 343.915 172.730,337.090 168.795,334.147 170.706 M66.260 177.027 C 70.264 179.611,70.403 179.308,64.520 180.824 C 60.167 181.946,60.230 181.982,60.784 178.742 C 61.675 173.525,61.107 173.703,66.260 177.027 M52.081 191.780 L 52.200 193.000 62.296 193.570 C 67.849 193.884,72.467 194.064,72.557 193.970 C 72.648 193.877,72.784 193.350,72.861 192.800 L 73.000 191.800 65.000 191.331 C 60.600 191.072,55.866 190.793,54.481 190.710 L 51.961 190.560 52.081 191.780 M332.174 193.136 C 321.188 198.265,324.704 214.243,336.800 214.157 C 347.968 214.078,351.434 198.294,341.361 193.389 C 339.079 192.277,334.295 192.145,332.174 193.136 M340.217 195.552 C 341.106 195.956,342.348 196.897,342.977 197.643 C 350.160 206.162,338.226 217.129,330.342 209.254 C 323.488 202.408,331.336 191.518,340.217 195.552 M66.400 200.199 L 61.000 203.562 56.300 203.840 C 52.366 204.072,51.601 204.222,51.606 204.759 C 51.622 206.379,52.139 206.538,56.533 206.269 L 60.741 206.011 66.794 209.249 C 73.427 212.797,73.186 212.731,72.913 210.940 C 72.740 209.803,72.296 209.452,68.360 207.343 C 65.962 206.057,64.000 204.897,64.000 204.765 C 64.000 204.633,65.950 203.333,68.333 201.877 C 72.494 199.333,72.659 199.181,72.487 198.014 C 72.258 196.448,72.644 196.309,66.400 200.199 M64.416 214.826 C 58.929 215.777,57.569 216.153,56.257 217.083 C 51.485 220.468,52.308 227.931,57.702 230.185 C 60.788 231.474,75.487 229.316,75.291 227.601 C 75.134 226.224,75.477 226.231,67.585 227.435 C 58.062 228.888,55.932 228.245,55.327 223.730 C 54.791 219.737,56.953 218.399,66.299 216.937 C 73.651 215.787,73.676 215.779,73.340 214.493 C 73.046 213.366,72.780 213.376,64.416 214.826 M343.643 219.453 C 343.390 221.157,343.115 222.618,343.033 222.700 C 342.914 222.819,336.639 221.952,325.336 220.255 C 323.767 220.019,323.801 222.332,325.370 222.599 C 327.208 222.911,342.418 225.116,343.784 225.268 L 344.968 225.400 345.601 221.100 C 346.085 217.816,346.120 216.800,345.750 216.800 C 345.483 216.800,345.004 216.700,344.685 216.577 C 344.229 216.402,344.005 217.023,343.643 219.453 M327.870 227.425 C 323.355 228.868,319.974 234.141,320.533 238.866 C 322.165 252.642,342.178 251.656,342.178 237.800 C 342.178 230.128,335.213 225.077,327.870 227.425 M334.000 229.594 C 340.113 231.295,342.031 239.623,337.337 244.079 C 331.970 249.172,322.800 245.340,322.800 238.003 C 322.800 231.937,328.105 227.954,334.000 229.594 M55.774 236.238 C 56.145 237.716,56.379 237.842,59.320 238.149 C 62.335 238.465,62.054 238.117,63.599 243.430 L 64.888 247.860 62.784 249.866 C 60.852 251.709,60.005 254.528,61.563 253.928 C 62.097 253.723,78.800 238.682,78.800 238.407 C 78.800 238.270,73.985 237.566,68.100 236.843 C 62.215 236.120,56.969 235.428,56.442 235.306 C 55.558 235.101,55.506 235.173,55.774 236.238 M69.586 239.256 C 74.414 239.806,74.383 239.640,70.335 243.160 C 66.371 246.608,66.741 246.613,65.707 243.100 C 65.237 241.505,64.732 239.885,64.584 239.500 C 64.259 238.656,64.291 238.654,69.586 239.256 M317.605 246.791 C 316.901 248.106,317.063 248.223,323.982 251.444 C 327.712 253.180,330.721 254.752,330.669 254.938 C 330.617 255.124,325.810 256.867,319.987 258.811 L 309.400 262.346 314.086 264.564 C 316.663 265.783,321.070 267.873,323.879 269.207 C 328.590 271.443,329.027 271.578,329.494 270.939 C 330.431 269.658,330.020 269.349,323.191 266.196 C 319.446 264.467,316.443 262.870,316.517 262.648 C 316.591 262.426,321.275 260.706,326.926 258.828 C 332.577 256.949,337.194 255.319,337.186 255.206 C 337.178 255.093,334.925 253.953,332.178 252.673 C 329.432 251.393,325.120 249.376,322.597 248.190 C 318.281 246.162,317.986 246.079,317.605 246.791 M72.200 252.666 C 61.414 258.087,62.667 257.271,63.227 258.500 L 63.684 259.503 70.672 256.115 C 74.515 254.251,77.720 252.788,77.794 252.863 C 77.868 252.938,76.222 257.652,74.136 263.338 C 72.049 269.024,70.425 273.758,70.526 273.859 C 70.745 274.079,89.600 264.709,89.600 264.380 C 89.600 262.364,88.626 262.557,81.618 265.956 C 77.842 267.788,74.691 269.222,74.614 269.143 C 74.538 269.064,75.346 266.660,76.411 263.800 C 82.524 247.370,82.321 247.977,81.700 248.021 C 81.535 248.033,77.260 250.123,72.200 252.666 M308.244 265.659 C 307.554 266.644,307.503 266.590,311.900 269.548 C 314.932 271.588,314.954 270.967,311.678 275.884 L 308.958 279.968 305.404 277.602 C 301.970 275.317,301.831 275.264,301.295 276.029 C 300.460 277.221,300.401 277.169,309.334 283.186 C 318.573 289.409,317.913 289.061,318.643 288.100 C 319.451 287.035,319.481 287.069,315.017 284.030 L 310.833 281.183 313.662 276.991 C 315.217 274.686,316.566 272.800,316.658 272.800 C 316.751 272.800,318.694 274.053,320.977 275.585 L 325.128 278.370 325.796 277.350 C 326.163 276.789,326.405 276.281,326.332 276.221 C 325.782 275.763,309.173 264.800,309.030 264.800 C 308.928 264.800,308.575 265.187,308.244 265.659 M89.575 278.700 C 82.895 284.137,81.842 285.599,82.105 289.076 C 82.503 294.340,88.305 297.703,92.920 295.346 C 96.158 293.693,105.204 285.954,104.794 285.189 C 104.047 283.792,103.649 283.990,97.927 288.606 C 90.327 294.735,87.879 295.334,85.391 291.673 C 82.971 288.111,83.853 286.516,91.827 280.036 C 96.956 275.868,97.130 275.678,96.553 274.854 C 95.708 273.648,95.934 273.524,89.575 278.700 M297.569 280.563 C 294.493 282.653,292.797 286.065,292.804 290.150 C 292.822 301.797,308.939 304.831,313.693 294.083 L 314.470 292.326 313.577 291.375 C 312.475 290.203,312.172 290.364,311.862 292.291 C 311.231 296.217,306.250 299.308,302.067 298.370 C 293.710 296.497,292.314 285.770,299.932 281.964 L 302.033 280.914 301.031 280.257 C 299.699 279.384,299.244 279.424,297.569 280.563 M99.660 294.906 C 92.542 302.610,92.342 302.872,93.022 303.625 C 94.029 304.738,93.802 304.910,99.372 298.800 C 102.179 295.720,104.639 293.200,104.838 293.200 C 105.045 293.200,105.200 297.998,105.200 304.433 C 105.200 310.612,105.336 315.607,105.503 315.533 C 105.670 315.460,108.131 312.880,110.972 309.800 C 113.813 306.720,117.046 303.254,118.157 302.099 L 120.175 299.997 119.281 299.103 L 118.386 298.208 114.896 302.004 C 112.977 304.092,110.554 306.700,109.512 307.800 L 107.617 309.800 107.558 307.000 C 107.525 305.460,107.386 300.322,107.249 295.582 L 107.000 286.963 99.660 294.906 M285.200 293.712 C 284.210 294.643,282.369 296.304,281.108 297.403 L 278.816 299.400 285.642 307.200 C 289.397 311.490,292.589 315.000,292.737 315.000 C 292.884 315.000,294.848 313.384,297.100 311.409 C 301.162 307.846,301.189 307.811,300.414 307.036 C 299.639 306.261,299.611 306.274,296.916 308.631 C 295.422 309.938,293.919 311.224,293.576 311.490 C 292.980 311.950,288.000 306.816,288.000 305.740 C 288.000 305.551,289.333 304.243,290.962 302.833 C 293.544 300.598,293.866 300.174,293.466 299.534 C 292.784 298.442,292.470 298.583,289.200 301.443 L 286.200 304.067 284.304 301.934 C 282.549 299.957,281.971 298.823,282.700 298.784 C 283.994 298.716,288.463 293.690,287.954 292.875 C 287.250 291.747,287.307 291.729,285.200 293.712 M272.200 304.245 C 266.886 308.022,267.000 307.900,267.793 308.949 C 268.335 309.666,268.446 309.634,270.369 308.222 L 272.379 306.747 273.690 308.616 C 283.303 322.326,283.315 322.340,284.551 321.405 C 285.259 320.870,285.017 320.433,280.207 313.594 C 274.376 305.303,274.351 305.249,275.879 304.303 C 278.255 302.831,278.497 302.529,278.018 301.633 C 277.409 300.496,277.589 300.415,272.200 304.245 M116.880 310.197 C 113.536 314.705,110.800 318.569,110.800 318.783 C 110.800 319.352,112.432 320.132,112.797 319.737 C 113.660 318.801,124.800 303.608,124.800 303.368 C 124.800 303.074,123.558 302.035,123.180 302.013 C 123.059 302.006,120.224 305.689,116.880 310.197 M126.228 306.500 C 125.094 313.521,123.194 327.055,123.287 327.449 C 123.349 327.716,127.597 324.818,132.727 321.009 C 141.940 314.168,142.043 314.076,141.138 313.442 C 139.822 312.520,140.142 312.348,132.944 317.837 C 129.312 320.607,126.281 322.812,126.209 322.737 C 126.137 322.661,126.683 318.910,127.422 314.400 L 128.766 306.200 127.883 305.509 C 126.637 304.534,126.535 304.595,126.228 306.500 M253.800 315.048 C 251.380 316.211,249.449 317.362,249.508 317.605 C 249.651 318.192,257.940 335.673,258.197 335.930 C 258.307 336.040,258.839 335.929,259.379 335.682 L 260.361 335.235 258.181 330.612 C 256.981 328.070,256.000 325.927,256.000 325.850 C 256.000 325.774,257.440 325.053,259.200 324.249 C 262.353 322.808,262.752 322.376,262.015 321.210 C 261.700 320.712,261.137 320.866,258.430 322.186 C 256.663 323.047,255.145 323.672,255.056 323.576 C 254.837 323.337,252.400 318.464,252.400 318.263 C 252.400 318.175,253.930 317.422,255.800 316.588 C 259.458 314.958,259.409 315.007,258.686 313.767 C 258.208 312.948,258.125 312.970,253.800 315.048 M139.086 323.917 C 135.502 331.966,134.952 333.469,135.449 333.856 C 137.150 335.184,144.881 338.116,145.229 337.566 C 145.930 336.460,145.560 336.109,142.100 334.596 C 137.486 332.577,137.658 332.935,139.412 328.998 C 141.317 324.725,140.833 324.904,145.207 326.846 C 148.167 328.160,148.970 328.377,149.250 327.943 C 149.949 326.857,149.336 326.263,146.021 324.809 C 142.020 323.053,142.043 323.096,143.426 320.014 C 144.712 317.148,144.158 317.231,148.700 319.223 C 152.506 320.893,152.966 320.938,153.296 319.677 C 153.482 318.964,151.898 318.110,144.555 314.968 L 143.309 314.435 139.086 323.917 M155.801 321.196 C 155.656 321.854,154.301 326.309,152.788 331.095 C 151.275 335.882,150.164 339.913,150.319 340.054 C 151.106 340.771,152.344 340.806,152.544 340.117 C 155.356 330.432,155.473 330.380,157.799 337.774 C 159.382 342.803,160.690 344.644,161.854 343.480 C 162.011 343.322,160.052 336.838,158.898 333.700 C 158.774 333.361,159.160 333.200,160.098 333.200 C 163.210 333.200,165.773 330.093,165.479 326.677 C 165.241 323.915,163.635 322.382,159.574 321.040 C 155.748 319.775,156.116 319.760,155.801 321.196 M236.000 321.632 C 229.435 324.604,227.581 333.431,232.377 338.879 C 237.757 344.991,248.375 342.921,250.989 335.251 C 254.072 326.202,244.706 317.691,236.000 321.632 M161.000 323.956 C 164.608 325.975,163.459 331.200,159.406 331.200 C 157.587 331.200,155.511 330.408,155.743 329.803 C 155.849 329.528,156.330 327.974,156.811 326.351 C 158.018 322.281,158.013 322.284,161.000 323.956 M243.240 323.255 C 251.222 325.928,251.013 337.592,242.940 340.006 C 236.026 342.074,229.650 334.307,232.845 327.708 C 234.675 323.927,239.314 321.940,243.240 323.255 M171.719 325.584 C 167.671 328.052,168.462 332.083,173.696 335.657 C 176.975 337.896,177.695 339.437,176.569 341.809 C 174.853 345.425,168.800 344.442,168.800 340.546 C 168.800 339.753,168.598 339.600,167.548 339.600 C 166.325 339.600,166.301 339.636,166.537 341.091 C 167.481 346.906,175.951 348.286,178.674 343.068 C 180.315 339.925,179.398 337.030,175.963 334.504 C 171.321 331.092,170.668 329.815,172.623 327.979 C 174.204 326.493,176.544 326.640,178.046 328.321 C 179.894 330.390,181.668 329.211,179.965 327.046 C 178.153 324.743,174.237 324.049,171.719 325.584 M216.963 326.274 C 216.340 326.397,215.583 327.615,214.002 331.033 C 211.504 336.435,211.925 336.399,208.515 331.492 L 205.800 327.584 198.100 327.371 L 190.400 327.158 190.400 328.379 L 190.400 329.600 193.016 329.600 L 195.632 329.600 195.354 339.000 L 195.076 348.400 196.338 348.400 L 197.600 348.400 197.602 343.500 C 197.603 340.805,197.720 336.575,197.863 334.100 L 198.122 329.600 200.632 329.600 C 202.506 329.600,203.174 329.452,203.271 329.016 C 203.342 328.695,205.013 330.719,206.984 333.515 C 210.846 338.989,210.644 338.434,211.419 345.735 C 211.646 347.875,212.868 348.746,213.850 347.467 C 213.879 347.430,213.724 345.420,213.505 343.000 L 213.109 338.600 215.954 332.438 C 217.519 329.049,218.800 326.214,218.800 326.138 C 218.800 325.984,218.214 326.027,216.963 326.274 M185.427 327.700 C 185.175 328.903,183.600 345.160,183.600 346.555 C 183.600 347.517,183.736 347.637,184.700 347.527 L 185.800 347.400 186.674 338.800 C 187.860 327.133,187.858 326.800,186.608 326.800 C 185.901 326.800,185.561 327.059,185.427 327.700 " stroke="none" fill="#153684" fill-rule="evenodd"></path><path id="path1" d="M0.000 200.000 L 0.000 400.000 200.000 400.000 L 400.000 400.000 400.000 200.000 L 400.000 0.000 200.000 0.000 L 0.000 0.000 0.000 200.000 M222.600 23.941 C 304.789 35.928,365.140 96.746,376.268 178.800 C 377.335 186.673,377.335 213.327,376.268 221.200 C 365.068 303.782,304.309 364.544,221.200 376.275 C 213.911 377.303,186.089 377.303,178.800 376.275 C 128.594 369.188,87.658 345.434,57.884 306.111 C 28.336 267.088,16.407 215.086,25.832 166.387 C 40.927 88.384,106.058 29.952,185.600 23.051 C 191.500 22.539,217.230 23.158,222.600 23.941 M191.800 33.033 C 100.206 39.882,33.077 110.498,33.077 200.000 C 33.077 314.156,145.310 394.798,253.400 358.307 C 366.262 320.206,403.993 179.228,325.316 89.600 C 292.275 51.960,239.230 29.486,191.800 33.033 M201.300 44.461 C 203.625 45.680,196.553 59.850,193.308 60.475 C 192.759 60.580,192.646 60.993,192.723 62.603 C 192.903 66.349,193.219 67.683,193.810 67.192 C 194.573 66.558,197.241 66.875,197.730 67.657 C 198.028 68.132,197.843 69.680,197.063 73.257 C 195.761 79.227,195.748 78.681,197.200 79.000 C 199.728 79.555,200.374 82.117,198.213 83.020 C 194.692 84.491,192.400 82.475,192.400 77.907 C 192.400 74.591,192.189 74.105,191.158 75.038 C 189.538 76.504,189.201 74.885,190.400 71.400 C 191.456 68.332,191.565 60.266,190.566 59.163 C 189.471 57.953,189.349 55.363,190.361 54.821 C 191.435 54.246,191.817 54.484,192.773 56.326 L 193.538 57.800 195.333 54.000 C 198.802 46.652,199.002 45.220,196.307 47.024 C 189.692 51.453,185.627 57.560,183.234 66.664 C 179.862 79.492,177.611 84.091,175.021 83.441 C 172.793 82.882,172.561 81.615,173.933 77.479 C 175.707 72.127,175.937 70.400,174.874 70.400 C 171.993 70.400,172.286 65.703,175.352 62.725 C 176.557 61.555,176.800 61.041,176.800 59.660 C 176.800 56.358,179.373 55.276,179.436 58.551 C 179.456 59.586,179.681 60.641,179.936 60.896 C 180.801 61.761,179.892 67.464,178.198 71.800 C 177.682 73.120,177.148 74.740,177.012 75.400 C 176.366 78.516,178.946 72.486,181.033 66.000 C 183.861 57.212,185.765 53.472,189.310 49.739 C 193.834 44.976,198.425 42.955,201.300 44.461 M180.400 47.536 C 180.400 49.325,178.255 53.162,175.379 56.520 L 172.740 59.600 170.184 59.600 C 168.047 59.600,167.559 59.470,167.205 58.809 C 166.606 57.690,175.731 47.908,178.188 47.035 C 180.394 46.252,180.400 46.253,180.400 47.536 M140.254 54.618 C 140.922 55.286,141.180 55.870,141.005 56.318 C 139.837 59.307,135.688 79.821,136.156 80.290 C 136.248 80.381,136.925 79.326,137.662 77.944 C 139.205 75.047,145.317 68.400,146.438 68.400 C 148.129 68.400,148.248 74.222,146.651 78.830 C 145.067 83.396,145.196 84.487,147.770 88.355 C 151.629 94.154,151.104 96.136,145.695 96.185 C 144.345 96.197,143.940 96.366,143.749 97.000 C 143.003 99.474,139.413 100.582,137.825 98.828 C 137.154 98.087,137.219 97.857,139.463 93.042 C 142.138 87.302,142.800 86.802,142.800 90.524 C 142.800 93.847,143.419 94.799,144.933 93.807 C 146.306 92.908,146.287 92.696,144.500 88.815 C 143.176 85.939,142.892 85.577,142.077 85.727 C 139.113 86.275,139.581 81.797,142.592 80.803 C 143.919 80.365,143.920 80.361,144.189 77.082 C 144.336 75.277,144.555 73.440,144.674 73.000 C 145.022 71.713,144.137 72.740,140.789 77.510 C 138.839 80.289,137.485 81.842,136.946 81.920 C 136.226 82.025,136.080 82.405,135.870 84.720 C 134.439 100.556,133.128 105.994,130.205 108.224 C 128.192 109.759,127.321 109.316,128.357 107.284 C 129.906 104.249,131.082 98.110,132.191 87.284 C 132.985 79.521,136.162 61.870,137.874 55.700 C 138.535 53.319,138.824 53.187,140.254 54.618 M241.631 55.969 C 243.404 57.743,243.286 57.934,236.100 64.967 C 232.415 68.573,229.519 71.644,229.664 71.792 C 229.809 71.940,231.670 71.597,233.800 71.031 C 238.852 69.686,240.101 69.694,241.190 71.078 C 242.776 73.095,242.201 74.084,239.113 74.651 C 236.702 75.094,234.003 75.969,225.600 79.032 C 221.576 80.498,217.105 80.075,214.387 77.970 C 213.098 76.972,213.610 76.624,217.600 75.794 C 224.441 74.369,226.353 73.313,228.685 69.670 C 229.483 68.421,230.828 66.379,231.672 65.131 C 232.517 63.883,233.319 62.304,233.455 61.623 L 233.703 60.384 230.883 60.492 C 228.533 60.582,227.874 60.459,226.931 59.758 C 224.816 58.183,225.195 57.736,229.079 57.226 C 231.016 56.972,233.680 56.339,235.000 55.820 C 238.427 54.474,240.175 54.513,241.631 55.969 M134.670 61.344 C 133.744 68.101,126.652 75.541,122.605 74.002 C 121.578 73.611,121.605 72.000,122.638 72.000 C 123.299 72.000,128.352 66.782,129.819 64.584 C 131.076 62.702,134.012 59.600,134.538 59.600 C 134.746 59.600,134.804 60.367,134.670 61.344 M176.080 66.080 C 175.524 66.636,175.430 68.400,175.956 68.400 C 176.152 68.400,176.386 67.770,176.476 67.000 C 176.566 66.230,176.622 65.600,176.600 65.600 C 176.578 65.600,176.344 65.816,176.080 66.080 M284.237 71.027 C 285.723 73.562,285.412 74.211,281.211 77.348 C 276.381 80.955,276.122 80.674,285.700 82.222 C 291.060 83.089,292.107 84.300,287.100 83.842 C 285.505 83.696,281.949 83.470,279.197 83.339 L 274.194 83.101 270.788 84.511 C 262.772 87.829,257.970 89.200,254.373 89.198 C 247.268 89.193,245.253 87.208,251.879 86.741 C 258.900 86.247,264.879 84.658,268.533 82.316 L 270.587 81.000 266.878 80.714 C 262.029 80.341,261.122 79.893,260.561 77.597 C 259.978 75.208,260.099 75.199,266.357 77.171 C 273.551 79.440,272.437 79.811,278.565 73.104 C 282.853 68.412,282.731 68.457,284.237 71.027 M194.027 71.162 C 193.172 72.363,193.024 73.615,193.574 75.000 C 193.820 75.620,193.999 75.261,194.369 73.400 C 194.632 72.080,194.921 70.775,195.011 70.500 C 195.281 69.676,194.905 69.929,194.027 71.162 M155.906 80.392 C 158.281 81.470,158.628 84.000,156.401 84.000 C 154.905 84.000,151.200 82.364,151.200 81.703 C 151.200 81.351,150.902 80.734,150.538 80.331 C 149.574 79.266,153.524 79.311,155.906 80.392 M139.114 85.673 C 140.626 87.640,140.644 87.756,139.600 88.800 C 138.186 90.214,137.109 89.249,136.652 86.162 C 136.248 83.423,137.235 83.227,139.114 85.673 M275.393 96.303 C 276.560 98.861,279.023 101.611,281.300 102.899 C 284.418 104.663,282.960 105.071,277.904 103.851 C 270.170 101.984,270.261 102.149,271.828 92.924 C 273.137 85.217,273.695 84.494,274.072 90.016 C 274.280 93.061,274.593 94.551,275.393 96.303 M98.796 92.596 C 99.540 93.492,99.024 95.440,96.504 101.248 L 94.257 106.425 95.142 110.112 C 98.889 125.724,95.744 140.800,88.741 140.800 C 86.962 140.800,86.922 140.713,88.005 139.193 C 92.877 132.351,94.875 118.281,91.715 113.068 C 91.604 112.886,90.454 114.686,89.158 117.068 C 86.156 122.589,84.448 124.251,82.829 123.226 C 82.361 122.930,82.771 121.717,85.091 116.532 C 86.650 113.050,88.231 109.090,88.606 107.734 L 89.287 105.267 88.191 103.254 C 86.898 100.879,86.086 100.075,83.400 98.510 C 79.998 96.527,80.886 94.400,85.116 94.400 L 87.433 94.400 89.600 98.000 C 92.242 102.389,91.863 102.433,93.978 97.500 C 96.325 92.027,97.409 90.923,98.796 92.596 M211.516 94.813 C 289.573 103.121,331.571 192.767,288.070 258.223 C 245.977 321.560,154.023 321.560,111.930 258.223 C 62.693 184.137,122.878 85.380,211.516 94.813 M318.907 99.700 C 319.491 101.385,315.943 106.877,314.927 105.860 C 314.509 105.443,317.779 99.200,318.416 99.200 C 318.590 99.200,318.811 99.425,318.907 99.700 M329.200 102.613 C 329.200 106.212,328.282 107.087,323.935 107.632 C 319.983 108.127,319.908 108.178,321.378 109.350 C 322.432 110.191,322.490 110.367,322.084 111.532 C 321.495 113.221,323.064 113.344,324.563 111.726 C 325.775 110.419,327.325 110.849,327.768 112.615 C 328.177 114.246,327.216 114.971,323.291 115.991 C 320.131 116.811,318.276 117.600,319.504 117.600 C 320.440 117.600,320.988 120.654,320.253 121.776 C 319.212 123.363,317.915 123.442,312.898 122.218 C 307.849 120.987,307.928 120.967,306.772 123.695 C 306.354 124.680,306.434 124.933,307.576 126.234 C 309.634 128.578,308.486 131.747,306.317 129.710 C 303.101 126.689,299.475 126.341,297.787 128.891 C 294.261 134.220,291.267 134.787,290.533 130.264 C 290.025 127.136,291.143 125.816,292.281 128.200 C 293.054 129.821,293.493 129.914,294.954 128.765 C 297.865 126.475,297.329 124.969,293.126 123.626 C 290.805 122.884,287.556 118.710,288.538 117.729 C 288.833 117.434,292.226 118.775,297.517 121.279 C 299.781 122.350,301.841 123.098,302.095 122.942 C 302.372 122.770,302.007 122.472,301.180 122.193 C 300.332 121.908,299.507 121.222,299.031 120.406 L 298.258 119.083 299.173 118.341 C 300.276 117.448,301.227 117.415,303.827 118.180 C 305.388 118.639,313.368 119.575,315.900 119.596 C 318.257 119.615,312.735 117.457,305.741 115.626 C 303.237 114.970,301.892 111.200,304.163 111.200 C 304.645 111.200,305.222 111.382,305.445 111.605 C 305.984 112.144,311.583 113.682,312.152 113.447 C 312.399 113.346,312.206 113.249,311.724 113.232 C 310.552 113.189,310.118 112.395,310.939 111.795 C 311.303 111.529,311.600 111.011,311.600 110.643 C 311.600 109.648,312.721 109.405,313.609 110.208 C 314.329 110.860,318.045 110.888,318.687 110.247 C 319.037 109.896,317.986 108.449,317.200 108.200 C 316.261 107.902,316.137 106.876,317.000 106.545 C 317.330 106.418,317.600 105.984,317.600 105.581 C 317.600 104.404,318.449 104.205,319.204 105.205 C 319.854 106.067,320.079 106.108,322.819 105.853 C 326.220 105.537,326.470 105.380,327.381 102.994 C 328.220 100.797,329.200 100.591,329.200 102.613 M186.230 104.623 C 174.411 106.232,160.721 111.120,150.200 117.488 C 145.516 120.323,135.600 127.857,135.600 128.581 C 135.600 128.701,148.740 128.800,164.800 128.800 L 194.000 128.800 194.000 116.400 L 194.000 104.000 192.100 104.041 C 191.055 104.064,188.414 104.326,186.230 104.623 M206.000 116.400 L 206.000 128.800 235.200 128.800 C 251.260 128.800,264.400 128.701,264.400 128.581 C 264.400 127.226,250.191 117.318,243.210 113.804 C 233.062 108.697,215.898 104.000,207.380 104.000 L 206.000 104.000 206.000 116.400 M311.096 104.687 C 311.176 104.928,310.692 105.750,310.021 106.515 C 309.349 107.280,308.800 108.175,308.800 108.504 C 308.800 109.996,306.345 110.498,306.069 109.063 C 305.795 107.641,310.667 103.401,311.096 104.687 M313.600 105.629 C 313.600 107.060,310.390 111.088,309.625 110.616 C 308.971 110.211,309.118 109.398,309.990 108.609 C 310.424 108.216,310.900 107.514,311.048 107.049 C 311.486 105.669,313.600 104.493,313.600 105.629 M112.576 108.517 C 115.127 109.920,115.033 111.137,112.145 114.056 C 109.559 116.669,109.009 116.912,109.316 115.304 C 109.704 113.274,107.525 111.349,103.124 109.833 C 98.455 108.226,100.070 107.091,106.576 107.409 C 110.081 107.581,111.274 107.801,112.576 108.517 M294.662 110.100 C 294.831 110.374,294.977 110.935,294.985 111.347 C 294.998 112.007,295.364 112.100,298.098 112.147 C 301.583 112.207,302.147 112.742,299.539 113.515 C 298.583 113.799,297.290 114.294,296.668 114.615 C 296.045 114.937,294.954 115.200,294.244 115.200 C 293.534 115.200,292.604 115.464,292.176 115.787 C 290.308 117.201,289.122 115.159,290.445 112.805 C 291.720 110.537,294.020 109.061,294.662 110.100 M316.600 112.285 C 316.160 112.391,315.620 112.663,315.400 112.890 C 314.888 113.419,317.232 112.908,317.780 112.372 C 318.187 111.973,317.964 111.957,316.600 112.285 M106.601 119.673 C 109.346 120.924,106.942 124.816,103.790 124.224 C 101.759 123.844,98.442 120.713,99.157 119.852 C 99.817 119.056,104.975 118.932,106.601 119.673 M131.208 147.900 C 131.225 163.216,133.622 178.583,138.204 192.759 L 139.640 197.200 200.000 197.200 L 260.360 197.200 261.796 192.759 C 266.378 178.583,268.775 163.216,268.792 147.900 L 268.800 140.400 200.000 140.400 L 131.200 140.400 131.208 147.900 M117.348 150.607 C 80.906 212.233,122.265 291.483,193.267 296.080 C 194.294 296.146,195.104 296.177,195.067 296.147 C 195.030 296.118,193.200 294.695,191.000 292.986 C 151.016 261.913,125.972 214.445,120.191 158.773 C 119.839 155.378,119.426 151.523,119.275 150.207 L 119.000 147.813 117.348 150.607 M280.605 151.100 C 275.449 211.756,250.880 260.440,209.000 292.986 C 206.800 294.695,204.970 296.118,204.933 296.147 C 204.896 296.177,205.706 296.146,206.733 296.080 C 277.671 291.487,319.102 212.207,282.706 150.700 C 280.754 147.401,280.922 147.369,280.605 151.100 M165.295 166.700 L 165.400 180.200 167.700 180.320 C 169.957 180.438,170.000 180.462,170.000 181.628 L 170.000 182.817 162.100 182.708 L 154.200 182.600 154.200 181.600 C 154.200 180.679,154.373 180.584,156.400 180.400 L 158.600 180.200 158.707 169.900 C 158.765 164.235,158.743 159.600,158.658 159.600 C 158.572 159.600,157.714 159.941,156.751 160.357 C 153.740 161.659,153.291 161.717,152.831 160.858 C 152.463 160.170,152.662 159.948,154.507 158.990 C 156.982 157.704,159.817 155.682,161.170 154.236 C 161.885 153.472,162.540 153.200,163.664 153.200 L 165.189 153.200 165.295 166.700 M189.845 153.791 C 198.279 156.296,199.982 168.789,192.929 176.408 C 189.468 180.145,181.141 183.845,179.414 182.412 C 178.466 181.625,178.618 181.457,181.377 180.256 C 185.002 178.676,188.202 175.096,189.372 171.311 C 189.643 170.436,189.623 170.431,188.236 171.011 C 184.512 172.567,179.271 171.028,177.396 167.829 C 172.719 159.849,180.542 151.028,189.845 153.791 M215.600 154.031 C 225.724 158.609,225.262 179.527,214.973 182.408 C 207.804 184.415,202.305 179.156,201.700 169.717 C 200.976 158.432,207.944 150.570,215.600 154.031 M242.760 154.526 C 243.937 155.305,244.758 156.290,245.426 157.726 C 247.765 162.748,246.063 165.722,235.600 174.898 L 233.000 177.178 238.651 177.189 C 244.693 177.201,244.899 177.137,245.411 175.098 C 245.819 173.475,247.764 173.477,247.453 175.100 C 247.337 175.705,247.130 177.370,246.992 178.800 C 246.564 183.257,247.717 182.829,236.471 182.707 L 226.600 182.600 226.466 181.649 C 226.359 180.893,227.106 179.952,230.117 177.049 C 239.033 168.454,240.886 165.250,239.541 160.761 C 238.139 156.080,232.001 155.984,229.954 160.611 C 228.586 163.704,226.645 162.872,227.773 159.676 C 229.845 153.805,237.630 151.129,242.760 154.526 M184.292 155.900 C 181.402 159.101,182.660 168.802,186.007 169.130 C 189.846 169.507,190.756 168.005,190.445 161.800 C 190.178 156.473,186.746 153.182,184.292 155.900 M209.655 156.221 C 208.102 158.195,207.809 177.431,209.297 179.700 C 210.652 181.766,213.920 181.637,215.104 179.472 C 215.976 177.878,216.367 162.341,215.620 158.959 C 214.801 155.250,211.581 153.772,209.655 156.221 M325.854 158.753 L 331.909 160.287 336.367 158.992 C 340.586 157.767,340.845 157.737,341.212 158.423 C 342.184 160.238,341.805 160.565,337.309 161.797 L 333.019 162.972 328.254 167.886 C 322.914 173.393,323.084 173.286,322.531 171.485 C 322.136 170.200,322.207 170.084,325.641 166.385 L 329.156 162.600 324.340 161.459 C 319.492 160.310,318.400 159.566,318.400 157.413 C 318.400 156.979,319.949 157.257,325.854 158.753 M66.483 162.194 C 76.105 164.887,75.364 164.886,75.965 162.200 C 76.378 160.354,76.597 160.001,77.329 160.006 C 79.329 160.020,79.344 160.336,77.639 166.555 C 75.747 173.455,75.895 173.146,74.604 172.899 C 73.197 172.630,73.129 172.383,73.825 170.040 C 74.634 167.316,75.205 167.659,65.369 164.970 C 60.601 163.667,56.624 162.406,56.533 162.169 C 56.188 161.272,57.175 159.538,57.900 159.767 C 58.285 159.888,62.147 160.980,66.483 162.194 M65.543 173.400 C 70.818 176.920,75.147 179.980,75.165 180.200 C 75.199 180.640,52.125 187.058,51.773 186.706 C 50.724 185.657,52.360 183.779,55.015 182.982 L 57.782 182.151 58.507 177.805 C 59.371 172.623,59.428 172.827,56.582 171.006 C 54.691 169.796,54.357 169.412,54.553 168.679 C 54.683 168.195,54.792 167.562,54.795 167.271 C 54.804 166.330,55.802 166.899,65.543 173.400 M340.699 171.256 C 347.148 174.348,348.206 182.785,342.808 188.071 C 333.652 197.038,319.250 186.546,325.037 175.126 C 326.207 172.818,326.974 172.396,328.047 173.469 C 328.821 174.243,328.819 174.265,327.844 176.025 C 324.393 182.253,328.701 188.905,335.804 188.316 C 343.603 187.670,346.222 177.303,339.418 174.009 C 336.935 172.807,336.405 173.065,336.831 175.269 C 337.396 178.195,337.305 178.687,336.142 178.979 C 334.665 179.349,334.536 179.100,333.893 174.664 C 333.331 170.783,333.335 170.724,334.162 170.370 C 335.368 169.853,338.722 170.308,340.699 171.256 M61.313 177.900 C 61.067 179.605,60.933 181.066,61.014 181.147 C 61.218 181.352,68.797 179.450,68.799 179.194 C 68.800 178.978,62.293 174.800,61.955 174.800 C 61.847 174.800,61.558 176.195,61.313 177.900 M62.400 190.813 C 73.513 191.379,73.200 191.315,73.200 193.018 C 73.200 194.682,74.002 194.629,61.400 193.798 C 56.560 193.479,52.375 193.214,52.100 193.209 C 51.797 193.203,51.600 192.649,51.600 191.800 C 51.600 190.132,50.686 190.216,62.400 190.813 M341.454 193.121 C 349.757 197.378,349.677 209.368,341.317 213.458 C 331.755 218.136,321.687 207.695,326.536 198.127 C 329.228 192.815,336.255 190.456,341.454 193.121 M334.536 195.174 C 328.362 196.688,325.993 203.975,330.139 208.697 C 335.180 214.438,344.827 210.855,344.791 203.254 C 344.766 197.946,339.656 193.920,334.536 195.174 M72.800 197.908 C 72.800 199.391,72.732 199.458,68.604 202.008 C 66.296 203.434,64.409 204.690,64.411 204.800 C 64.413 204.910,66.392 206.041,68.808 207.314 L 73.200 209.628 73.200 211.214 C 73.200 213.209,73.764 213.354,66.725 209.546 L 60.710 206.292 56.192 206.492 L 51.675 206.691 51.485 205.446 C 51.207 203.619,51.253 203.600,56.124 203.595 L 60.600 203.590 66.200 200.030 C 72.680 195.910,72.800 195.871,72.800 197.908 M73.524 214.685 L 73.400 216.170 66.467 217.282 C 56.083 218.947,53.873 220.755,56.301 225.594 C 57.663 228.311,59.221 228.493,68.321 227.000 C 75.891 225.758,75.470 225.741,75.704 227.300 C 75.959 229.008,76.302 228.885,67.697 230.171 C 56.625 231.827,52.841 230.025,52.809 223.084 C 52.785 217.793,55.164 216.095,65.000 214.387 C 73.830 212.853,73.678 212.848,73.524 214.685 M346.353 216.643 C 346.591 216.845,345.534 224.520,345.171 225.227 C 344.883 225.789,344.043 225.736,337.125 224.716 C 322.657 222.584,324.000 222.920,324.000 221.431 C 324.000 219.581,323.571 219.597,333.483 221.060 C 343.656 222.561,342.972 222.699,343.383 219.065 C 343.723 216.062,344.717 215.252,346.353 216.643 M336.081 227.506 C 343.165 230.640,344.866 240.091,339.366 245.754 C 332.368 252.959,320.276 247.927,320.255 237.800 C 320.237 229.647,328.610 224.201,336.081 227.506 M327.800 230.160 C 322.840 232.346,321.350 239.009,324.913 243.068 C 331.005 250.006,342.095 243.773,339.211 235.032 C 337.783 230.705,332.084 228.272,327.800 230.160 M68.390 236.622 C 74.434 237.405,79.427 238.094,79.485 238.152 C 79.674 238.341,61.920 254.196,61.375 254.325 C 59.009 254.883,61.495 249.435,64.048 248.467 C 64.861 248.159,62.193 238.899,61.216 238.633 C 60.877 238.541,59.555 238.347,58.278 238.201 C 56.292 237.975,55.902 237.793,55.578 236.942 C 54.929 235.234,55.090 234.801,56.300 235.009 C 56.905 235.113,62.345 235.839,68.390 236.622 M65.821 242.227 C 66.343 243.919,66.846 245.379,66.939 245.473 C 67.033 245.566,68.500 244.424,70.200 242.935 C 73.753 239.824,73.816 239.932,68.131 239.436 L 64.872 239.151 65.821 242.227 M327.632 250.222 C 333.004 252.764,337.552 254.995,337.737 255.179 C 337.923 255.363,333.292 257.104,327.448 259.048 C 321.603 260.991,316.952 262.707,317.111 262.860 C 317.270 263.014,320.190 264.434,323.600 266.016 C 330.941 269.423,330.633 269.189,329.831 270.740 L 329.194 271.971 325.497 270.250 C 311.742 263.847,309.200 262.615,309.200 262.357 C 309.200 262.197,311.765 261.208,314.900 260.158 C 318.035 259.109,322.850 257.493,325.600 256.567 L 330.600 254.885 328.800 254.085 C 322.977 251.497,316.800 248.385,316.800 248.039 C 316.800 247.667,317.644 245.600,317.796 245.600 C 317.834 245.600,322.260 247.680,327.632 250.222 M81.764 250.100 C 79.405 256.219,74.907 268.611,75.006 268.724 C 75.065 268.792,78.011 267.397,81.552 265.624 C 88.413 262.189,88.969 262.009,89.354 263.100 C 89.489 263.485,89.707 264.031,89.838 264.313 C 90.081 264.839,70.535 274.668,70.103 274.237 C 69.989 274.122,71.611 269.387,73.708 263.714 C 75.805 258.041,77.468 253.344,77.403 253.276 C 77.339 253.208,74.211 254.692,70.452 256.574 L 63.618 259.995 63.009 258.818 C 62.674 258.170,62.400 257.527,62.400 257.390 C 62.400 257.093,81.588 247.660,82.264 247.625 C 82.559 247.609,82.377 248.511,81.764 250.100 M317.920 270.237 C 322.694 273.447,326.663 276.135,326.739 276.209 C 326.945 276.410,325.453 278.373,325.085 278.387 C 324.911 278.394,323.153 277.313,321.177 275.984 C 319.201 274.656,317.350 273.479,317.064 273.369 C 316.740 273.245,315.533 274.686,313.874 277.177 L 311.205 281.186 315.415 284.010 L 319.625 286.835 318.921 288.025 C 318.036 289.524,318.683 289.833,308.783 283.169 C 300.270 277.439,299.989 277.176,300.994 275.850 C 301.691 274.928,302.014 275.046,305.774 277.583 L 308.751 279.592 309.521 278.496 C 314.883 270.856,314.784 271.727,310.609 268.949 L 307.218 266.692 307.895 265.546 C 308.814 263.990,308.208 263.707,317.920 270.237 M96.752 274.629 L 97.561 275.659 96.281 276.751 C 95.576 277.353,93.560 278.989,91.800 280.388 C 84.033 286.561,82.939 288.723,85.952 291.948 C 88.586 294.768,90.601 294.142,97.991 288.207 C 103.950 283.421,104.194 283.320,105.213 285.225 C 105.636 286.014,95.364 294.671,92.669 295.797 C 85.658 298.726,78.811 290.658,82.973 284.370 C 83.823 283.084,94.973 273.637,95.671 273.610 C 95.820 273.605,96.306 274.063,96.752 274.629 M301.216 280.075 C 302.521 281.040,302.730 281.600,301.784 281.600 C 297.296 281.600,293.832 288.367,295.948 293.000 C 299.429 300.621,310.291 299.584,311.810 291.486 C 312.135 289.753,312.243 289.713,313.474 290.870 C 316.670 293.872,309.788 301.199,303.771 301.200 C 292.618 301.201,288.115 286.329,297.473 280.395 C 299.724 278.967,299.718 278.967,301.216 280.075 M107.635 295.700 C 107.654 300.815,107.789 305.869,107.935 306.931 L 108.200 308.863 113.200 303.433 C 118.811 297.340,118.346 297.665,119.578 298.976 L 120.495 299.952 113.147 307.940 C 105.908 315.811,104.933 316.684,104.940 315.300 C 104.941 314.915,104.906 309.830,104.862 304.000 L 104.781 293.400 103.091 295.200 C 102.161 296.190,99.740 298.800,97.712 301.000 L 94.025 305.000 92.957 303.936 L 91.890 302.872 99.445 294.661 C 103.600 290.145,107.135 286.438,107.300 286.425 C 107.465 286.411,107.616 290.585,107.635 295.700 M288.069 292.662 C 289.126 293.619,289.102 293.661,285.650 296.707 L 282.501 299.487 284.391 301.630 L 286.281 303.774 289.240 301.091 C 292.530 298.110,292.839 297.990,293.729 299.347 C 294.337 300.275,294.285 300.350,291.203 303.023 L 288.056 305.751 289.084 306.975 C 289.650 307.649,290.798 308.980,291.637 309.934 L 293.161 311.668 295.281 309.749 C 300.071 305.411,299.485 305.772,300.393 306.594 C 300.837 306.995,301.200 307.524,301.200 307.768 C 301.200 308.214,293.591 315.086,292.871 315.291 C 292.353 315.438,278.774 299.924,278.900 299.330 C 279.003 298.846,286.654 292.000,287.092 292.000 C 287.227 292.000,287.666 292.298,288.069 292.662 M278.154 301.386 C 278.990 302.661,279.084 302.464,276.900 304.002 C 275.855 304.737,274.926 305.396,274.836 305.467 C 274.745 305.537,274.950 305.911,275.291 306.298 C 275.632 306.684,278.108 310.137,280.792 313.970 L 285.674 320.941 284.737 321.662 C 283.377 322.708,283.162 322.605,281.431 320.085 C 280.568 318.828,278.171 315.407,276.104 312.482 L 272.347 307.163 270.309 308.627 L 268.272 310.091 267.545 309.145 C 266.553 307.854,266.394 308.037,272.000 304.013 C 277.703 299.920,277.305 300.090,278.154 301.386 M124.234 302.259 C 124.813 302.638,125.149 303.157,125.025 303.480 C 124.812 304.035,113.943 318.897,112.987 319.940 C 112.360 320.623,110.239 319.397,110.567 318.541 C 110.825 317.869,122.818 301.600,123.055 301.600 C 123.150 301.600,123.681 301.897,124.234 302.259 M127.977 305.184 L 129.078 305.968 128.323 310.684 C 126.647 321.144,126.486 322.203,126.555 322.281 C 126.595 322.325,129.554 320.120,133.130 317.381 C 140.495 311.739,139.710 312.139,141.261 313.243 L 142.445 314.087 132.792 321.280 C 127.483 325.236,123.036 328.369,122.910 328.243 C 122.783 328.117,123.329 323.735,124.121 318.507 C 124.914 313.278,125.684 308.100,125.832 307.000 C 126.231 304.041,126.295 303.986,127.977 305.184 M259.151 313.852 C 259.414 314.430,259.578 314.949,259.515 315.005 C 259.452 315.061,257.928 315.843,256.129 316.743 L 252.858 318.380 253.924 320.790 C 255.177 323.625,255.008 323.590,258.776 321.785 C 261.799 320.336,262.112 320.345,262.579 321.891 C 262.845 322.771,262.194 323.193,256.480 325.850 C 256.415 325.881,257.348 328.000,258.556 330.560 L 260.751 335.214 259.779 335.851 C 258.215 336.875,257.988 336.550,253.305 326.609 L 248.839 317.127 253.320 314.978 C 258.536 312.475,258.525 312.477,259.151 313.852 M152.750 318.373 C 153.723 318.894,153.823 319.542,153.085 320.552 C 152.601 321.213,152.379 321.170,149.515 319.865 C 144.710 317.675,144.980 317.670,143.818 319.965 C 142.376 322.809,142.409 322.869,146.400 324.692 C 150.021 326.346,150.451 326.830,149.479 328.159 C 148.990 328.828,148.739 328.772,145.327 327.236 C 143.329 326.336,141.612 325.600,141.510 325.600 C 141.102 325.600,138.260 332.554,138.616 332.682 C 144.144 334.665,146.471 336.403,145.455 337.792 C 144.826 338.652,134.156 334.386,134.542 333.429 C 135.075 332.111,142.521 315.321,142.827 314.750 C 143.171 314.108,148.233 315.956,152.750 318.373 M159.737 320.787 C 167.291 323.280,168.084 332.282,160.853 333.438 C 159.944 333.583,159.200 333.771,159.200 333.855 C 159.200 333.940,159.920 336.097,160.800 338.649 C 162.819 344.503,162.819 344.499,160.900 343.853 C 159.412 343.353,159.386 343.306,157.657 338.055 C 155.608 331.830,155.433 331.780,153.772 336.935 C 153.086 339.066,152.435 340.898,152.327 341.007 C 151.961 341.373,149.550 340.309,149.712 339.852 C 149.800 339.604,151.283 334.938,153.006 329.484 C 154.846 323.659,156.317 319.633,156.569 319.725 C 156.806 319.812,158.232 320.290,159.737 320.787 M244.015 320.852 C 250.449 322.779,253.833 330.930,250.613 336.744 C 244.883 347.089,229.541 343.489,229.427 331.773 C 229.353 324.086,236.629 318.639,244.015 320.852 M157.021 326.641 C 155.773 330.645,155.678 330.413,158.668 330.673 C 163.571 331.100,164.901 326.555,160.588 324.113 C 158.284 322.808,158.198 322.869,157.021 326.641 M237.000 323.956 C 229.073 327.614,231.804 339.769,240.558 339.793 C 245.685 339.807,248.600 336.837,248.600 331.598 C 248.600 325.159,242.747 321.304,237.000 323.956 M177.978 325.189 C 180.946 326.703,181.972 328.853,180.048 329.523 C 179.019 329.882,178.804 329.802,178.049 328.781 C 176.954 327.300,174.810 326.839,173.377 327.778 C 171.265 329.162,171.607 331.029,174.303 332.840 C 178.954 335.965,180.452 338.435,179.605 341.582 C 177.916 347.853,169.440 348.535,166.752 342.617 C 165.531 339.928,165.711 339.200,167.600 339.200 C 169.083 339.200,169.200 339.282,169.200 340.311 C 169.200 344.085,174.561 345.198,176.191 341.762 C 177.300 339.426,176.754 338.268,173.361 335.758 C 169.772 333.104,168.987 332.003,169.039 329.695 C 169.132 325.528,173.917 323.117,177.978 325.189 M219.200 326.148 C 219.200 326.230,217.932 328.975,216.381 332.248 L 213.563 338.200 213.824 342.600 C 213.967 345.020,214.110 347.160,214.142 347.355 C 214.218 347.819,211.906 348.466,211.526 348.086 C 211.365 347.925,211.043 345.775,210.810 343.309 L 210.387 338.825 206.894 333.830 C 204.972 331.084,203.342 329.098,203.271 329.418 C 203.175 329.847,202.519 330.000,200.771 330.000 C 197.895 330.000,198.308 328.580,198.034 339.400 L 197.800 348.600 196.400 348.600 L 195.000 348.600 195.147 339.100 L 195.294 329.600 192.914 329.600 C 190.133 329.600,190.084 329.571,190.311 328.022 L 190.485 326.840 198.142 327.032 L 205.800 327.225 208.600 331.206 C 211.594 335.463,211.804 335.647,212.208 334.374 C 212.352 333.920,213.258 331.850,214.222 329.774 L 215.974 326.000 217.587 326.000 C 218.474 326.000,219.200 326.067,219.200 326.148 M188.000 327.472 C 188.000 328.710,186.470 344.760,186.167 346.700 C 185.857 348.686,183.200 348.695,183.200 346.709 C 183.200 345.282,184.690 329.760,185.025 327.700 C 185.320 325.884,188.000 325.678,188.000 327.472 " stroke="none" fill="#f4f4f4" fill-rule="evenodd"></path><path id="path2" d="M164.979 166.600 C 164.979 173.860,165.033 176.886,165.099 173.325 C 165.165 169.764,165.166 163.824,165.099 160.125 C 165.033 156.426,164.979 159.340,164.979 166.600 M216.161 168.800 C 216.161 172.210,216.222 173.605,216.297 171.900 C 216.372 170.195,216.372 167.405,216.297 165.700 C 216.222 163.995,216.161 165.390,216.161 168.800 M131.600 268.200 C 132.346 268.970,133.047 269.600,133.157 269.600 C 133.267 269.600,132.746 268.970,132.000 268.200 C 131.254 267.430,130.553 266.800,130.443 266.800 C 130.333 266.800,130.854 267.430,131.600 268.200 M267.978 268.300 L 266.600 269.800 268.100 268.422 C 269.496 267.138,269.784 266.800,269.478 266.800 C 269.412 266.800,268.737 267.475,267.978 268.300 " stroke="none" fill="#8495bc" fill-rule="evenodd"></path><path id="path3" d="M189.781 49.300 L 188.200 51.000 189.900 49.419 C 190.835 48.549,191.600 47.784,191.600 47.719 C 191.600 47.416,191.252 47.719,189.781 49.300 M172.181 52.500 L 170.600 54.200 172.300 52.619 C 173.235 51.749,174.000 50.984,174.000 50.919 C 174.000 50.616,173.652 50.919,172.181 52.500 M169.107 59.490 C 169.826 59.579,170.906 59.577,171.507 59.486 C 172.108 59.395,171.520 59.322,170.200 59.324 C 168.880 59.326,168.388 59.401,169.107 59.490 M237.188 63.500 L 234.600 66.200 237.300 63.612 C 239.808 61.207,240.183 60.800,239.888 60.800 C 239.827 60.800,238.612 62.015,237.188 63.500 M126.987 68.100 L 124.600 70.600 127.100 68.213 C 129.422 65.995,129.783 65.600,129.487 65.600 C 129.426 65.600,128.301 66.725,126.987 68.100 M194.800 66.956 C 194.800 67.042,195.417 67.185,196.172 67.273 C 196.927 67.361,197.456 67.290,197.348 67.116 C 197.155 66.803,194.800 66.655,194.800 66.956 M142.981 71.300 L 141.400 73.000 143.100 71.419 C 144.681 69.948,144.984 69.600,144.681 69.600 C 144.616 69.600,143.851 70.365,142.981 71.300 M192.531 77.800 C 192.533 79.340,192.605 79.921,192.692 79.091 C 192.779 78.261,192.777 77.001,192.689 76.291 C 192.600 75.581,192.529 76.260,192.531 77.800 M312.800 76.525 C 312.800 76.594,313.385 77.179,314.100 77.825 L 315.400 79.000 314.225 77.700 C 313.130 76.488,312.800 76.216,312.800 76.525 M77.375 86.100 L 76.200 87.400 77.500 86.225 C 78.712 85.130,78.984 84.800,78.675 84.800 C 78.606 84.800,78.021 85.385,77.375 86.100 M321.200 84.925 C 321.200 84.994,321.785 85.579,322.500 86.225 L 323.800 87.400 322.625 86.100 C 321.530 84.888,321.200 84.616,321.200 84.925 M273.714 89.400 C 273.717 90.500,273.795 90.903,273.887 90.295 C 273.979 89.686,273.977 88.786,273.882 88.295 C 273.787 87.803,273.711 88.300,273.714 89.400 M142.493 92.000 C 142.493 92.770,142.575 93.085,142.676 92.700 C 142.776 92.315,142.776 91.685,142.676 91.300 C 142.575 90.915,142.493 91.230,142.493 92.000 M193.900 94.682 C 194.395 94.778,195.205 94.778,195.700 94.682 C 196.195 94.587,195.790 94.509,194.800 94.509 C 193.810 94.509,193.405 94.587,193.900 94.682 M204.300 94.682 C 204.795 94.778,205.605 94.778,206.100 94.682 C 206.595 94.587,206.190 94.509,205.200 94.509 C 204.210 94.509,203.805 94.587,204.300 94.682 M139.700 99.476 C 140.085 99.576,140.715 99.576,141.100 99.476 C 141.485 99.375,141.170 99.293,140.400 99.293 C 139.630 99.293,139.315 99.375,139.700 99.476 M194.094 116.300 L 194.000 128.800 164.576 128.800 C 142.437 128.800,135.223 128.686,135.438 128.338 C 135.616 128.050,135.548 127.985,135.255 128.166 C 134.998 128.325,134.891 128.623,135.017 128.828 C 135.400 129.447,193.980 129.317,194.219 128.696 C 194.325 128.419,194.362 122.704,194.300 115.996 L 194.188 103.800 194.094 116.300 M205.791 116.500 L 205.800 129.000 235.177 129.103 C 262.475 129.198,266.226 129.081,264.773 128.183 C 264.453 127.985,264.378 128.041,264.562 128.338 C 264.777 128.686,257.564 128.800,235.429 128.800 L 206.011 128.800 205.897 116.400 L 205.783 104.000 205.791 116.500 M103.505 107.483 C 104.002 107.579,104.722 107.575,105.105 107.475 C 105.487 107.375,105.080 107.296,104.200 107.301 C 103.320 107.305,103.007 107.387,103.505 107.483 M125.385 125.300 L 123.400 127.400 125.500 125.415 C 126.655 124.323,127.600 123.378,127.600 123.315 C 127.600 123.017,127.229 123.349,125.385 125.300 M274.200 125.200 C 275.283 126.300,276.260 127.200,276.370 127.200 C 276.480 127.200,275.683 126.300,274.600 125.200 C 273.517 124.100,272.540 123.200,272.430 123.200 C 272.320 123.200,273.117 124.100,274.200 125.200 M295.375 131.300 L 294.200 132.600 295.500 131.425 C 296.215 130.779,296.800 130.194,296.800 130.125 C 296.800 129.816,296.470 130.088,295.375 131.300 M88.100 140.676 C 88.485 140.776,89.115 140.776,89.500 140.676 C 89.885 140.575,89.570 140.493,88.800 140.493 C 88.030 140.493,87.715 140.575,88.100 140.676 M130.901 154.200 C 130.905 155.080,130.987 155.393,131.083 154.895 C 131.179 154.398,131.175 153.678,131.075 153.295 C 130.975 152.913,130.896 153.320,130.901 154.200 M268.901 154.200 C 268.905 155.080,268.987 155.393,269.083 154.895 C 269.179 154.398,269.175 153.678,269.075 153.295 C 268.975 152.913,268.896 153.320,268.901 154.200 M162.900 153.476 C 163.285 153.576,163.915 153.576,164.300 153.476 C 164.685 153.375,164.370 153.293,163.600 153.293 C 162.830 153.293,162.515 153.375,162.900 153.476 M208.172 168.200 C 208.172 173.260,208.229 175.275,208.299 172.677 C 208.369 170.080,208.368 165.940,208.298 163.477 C 208.228 161.015,208.171 163.140,208.172 168.200 M182.534 162.400 C 182.534 164.050,182.605 164.725,182.691 163.900 C 182.778 163.075,182.778 161.725,182.691 160.900 C 182.605 160.075,182.534 160.750,182.534 162.400 M216.109 161.200 C 216.109 162.190,216.187 162.595,216.282 162.100 C 216.378 161.605,216.378 160.795,216.282 160.300 C 216.187 159.805,216.109 160.210,216.109 161.200 M201.714 168.200 C 201.717 169.300,201.795 169.703,201.887 169.095 C 201.979 168.486,201.977 167.586,201.882 167.095 C 201.787 166.603,201.711 167.100,201.714 168.200 M323.375 168.900 L 322.200 170.200 323.500 169.025 C 324.215 168.379,324.800 167.794,324.800 167.725 C 324.800 167.416,324.470 167.688,323.375 168.900 M222.493 169.600 C 222.493 170.370,222.575 170.685,222.676 170.300 C 222.776 169.915,222.776 169.285,222.676 168.900 C 222.575 168.515,222.493 168.830,222.493 169.600 M324.723 171.009 C 323.691 171.994,322.979 172.800,323.140 172.800 C 323.301 172.800,324.228 171.990,325.200 171.000 C 327.477 168.680,327.158 168.686,324.723 171.009 M184.500 171.476 C 184.885 171.576,185.515 171.576,185.900 171.476 C 186.285 171.375,185.970 171.293,185.200 171.293 C 184.430 171.293,184.115 171.375,184.500 171.476 M232.575 174.900 L 231.400 176.200 232.700 175.025 C 233.415 174.379,234.000 173.794,234.000 173.725 C 234.000 173.416,233.670 173.688,232.575 174.900 M216.093 176.000 C 216.093 176.770,216.175 177.085,216.276 176.700 C 216.376 176.315,216.376 175.685,216.276 175.300 C 216.175 174.915,216.093 175.230,216.093 176.000 M192.175 176.900 L 191.000 178.200 192.300 177.025 C 193.512 175.930,193.784 175.600,193.475 175.600 C 193.406 175.600,192.821 176.185,192.175 176.900 M211.700 181.476 C 212.085 181.576,212.715 181.576,213.100 181.476 C 213.485 181.375,213.170 181.293,212.400 181.293 C 211.630 181.293,211.315 181.375,211.700 181.476 M211.300 182.676 C 211.685 182.776,212.315 182.776,212.700 182.676 C 213.085 182.575,212.770 182.493,212.000 182.493 C 211.230 182.493,210.915 182.575,211.300 182.676 M326.000 186.925 C 326.000 186.994,326.585 187.579,327.300 188.225 L 328.600 189.400 327.425 188.100 C 326.330 186.888,326.000 186.616,326.000 186.925 M342.575 188.100 L 341.400 189.400 342.700 188.225 C 343.415 187.579,344.000 186.994,344.000 186.925 C 344.000 186.616,343.670 186.888,342.575 188.100 M51.600 191.776 C 51.600 192.313,51.747 192.844,51.928 192.955 C 52.108 193.067,52.177 192.627,52.082 191.979 C 51.872 190.549,51.600 190.435,51.600 191.776 M335.905 192.283 C 336.402 192.379,337.122 192.375,337.505 192.275 C 337.887 192.175,337.480 192.096,336.600 192.101 C 335.720 192.105,335.407 192.187,335.905 192.283 M72.832 193.075 C 72.807 193.753,72.508 193.986,71.500 194.111 L 70.200 194.272 71.513 194.336 C 72.847 194.401,73.482 193.740,73.069 192.713 C 72.956 192.431,72.849 192.594,72.832 193.075 M72.315 197.600 C 72.412 198.260,72.560 198.800,72.645 198.800 C 72.730 198.800,72.800 198.260,72.800 197.600 C 72.800 196.940,72.651 196.400,72.469 196.400 C 72.287 196.400,72.218 196.940,72.315 197.600 M94.540 200.000 C 94.540 201.870,94.609 202.635,94.693 201.700 C 94.777 200.765,94.777 199.235,94.693 198.300 C 94.609 197.365,94.540 198.130,94.540 200.000 M305.340 200.000 C 305.340 201.870,305.409 202.635,305.493 201.700 C 305.577 200.765,305.577 199.235,305.493 198.300 C 305.409 197.365,305.340 198.130,305.340 200.000 M325.293 203.200 C 325.293 203.970,325.375 204.285,325.476 203.900 C 325.576 203.515,325.576 202.885,325.476 202.500 C 325.375 202.115,325.293 202.430,325.293 203.200 M327.701 203.400 C 327.705 204.280,327.787 204.593,327.883 204.095 C 327.979 203.598,327.975 202.878,327.875 202.495 C 327.775 202.113,327.696 202.520,327.701 203.400 M54.700 203.882 C 55.195 203.978,56.005 203.978,56.500 203.882 C 56.995 203.787,56.590 203.709,55.600 203.709 C 54.610 203.709,54.205 203.787,54.700 203.882 M58.700 206.282 C 59.195 206.378,60.005 206.378,60.500 206.282 C 60.995 206.187,60.590 206.109,59.600 206.109 C 58.610 206.109,58.205 206.187,58.700 206.282 M335.500 211.882 C 335.995 211.978,336.805 211.978,337.300 211.882 C 337.795 211.787,337.390 211.709,336.400 211.709 C 335.410 211.709,335.005 211.787,335.500 211.882 M52.901 223.000 C 52.905 223.880,52.987 224.193,53.083 223.695 C 53.179 223.198,53.175 222.478,53.075 222.095 C 52.975 221.713,52.896 222.120,52.901 223.000 M133.200 269.725 C 133.200 269.794,133.785 270.379,134.500 271.025 L 135.800 272.200 134.625 270.900 C 133.530 269.688,133.200 269.416,133.200 269.725 M265.375 270.900 L 264.200 272.200 265.500 271.025 C 266.215 270.379,266.800 269.794,266.800 269.725 C 266.800 269.416,266.470 269.688,265.375 270.900 M125.400 274.800 C 126.483 275.900,127.460 276.800,127.570 276.800 C 127.680 276.800,126.883 275.900,125.800 274.800 C 124.717 273.700,123.740 272.800,123.630 272.800 C 123.520 272.800,124.317 273.700,125.400 274.800 M274.185 274.900 L 272.200 277.000 274.300 275.015 C 275.455 273.923,276.400 272.978,276.400 272.915 C 276.400 272.617,276.029 272.949,274.185 274.900 M174.200 278.000 C 176.833 280.640,179.077 282.800,179.187 282.800 C 179.297 282.800,177.233 280.640,174.600 278.000 C 171.967 275.360,169.723 273.200,169.613 273.200 C 169.503 273.200,171.567 275.360,174.200 278.000 M225.400 278.000 C 222.767 280.640,220.703 282.800,220.813 282.800 C 220.923 282.800,223.167 280.640,225.800 278.000 C 228.433 275.360,230.497 273.200,230.387 273.200 C 230.277 273.200,228.033 275.360,225.400 278.000 M292.509 290.000 C 292.509 290.990,292.587 291.395,292.682 290.900 C 292.778 290.405,292.778 289.595,292.682 289.100 C 292.587 288.605,292.509 289.010,292.509 290.000 M107.355 297.000 C 107.356 299.860,107.420 300.978,107.497 299.483 C 107.574 297.989,107.574 295.649,107.496 294.283 C 107.418 292.918,107.355 294.140,107.355 297.000 M287.971 292.900 C 288.407 293.479,288.407 293.721,287.971 294.300 C 287.469 294.967,287.480 294.967,288.208 294.300 C 288.959 293.611,288.959 293.589,288.208 292.900 C 287.480 292.233,287.469 292.233,287.971 292.900 M104.944 296.800 C 104.944 298.890,105.012 299.745,105.094 298.700 C 105.176 297.655,105.176 295.945,105.094 294.900 C 105.012 293.855,104.944 294.710,104.944 296.800 M102.175 295.700 L 101.000 297.000 102.300 295.825 C 103.512 294.730,103.784 294.400,103.475 294.400 C 103.406 294.400,102.821 294.985,102.175 295.700 M88.705 296.283 C 89.202 296.379,89.922 296.375,90.305 296.275 C 90.687 296.175,90.280 296.096,89.400 296.101 C 88.520 296.105,88.207 296.187,88.705 296.283 M95.775 298.900 L 94.600 300.200 95.900 299.025 C 96.615 298.379,97.200 297.794,97.200 297.725 C 97.200 297.416,96.870 297.688,95.775 298.900 M193.900 305.482 C 194.395 305.578,195.205 305.578,195.700 305.482 C 196.195 305.387,195.790 305.309,194.800 305.309 C 193.810 305.309,193.405 305.387,193.900 305.482 M204.300 305.482 C 204.795 305.578,205.605 305.578,206.100 305.482 C 206.595 305.387,206.190 305.309,205.200 305.309 C 204.210 305.309,203.805 305.387,204.300 305.482 M111.775 308.900 L 110.600 310.200 111.900 309.025 C 113.112 307.930,113.384 307.600,113.075 307.600 C 113.006 307.600,112.421 308.185,111.775 308.900 M76.400 312.925 C 76.400 312.994,76.985 313.579,77.700 314.225 L 79.000 315.400 77.825 314.100 C 76.730 312.888,76.400 312.616,76.400 312.925 M322.175 314.100 L 321.000 315.400 322.300 314.225 C 323.512 313.130,323.784 312.800,323.475 312.800 C 323.406 312.800,322.821 313.385,322.175 314.100 M239.705 320.687 C 240.314 320.779,241.214 320.777,241.705 320.682 C 242.197 320.587,241.700 320.511,240.600 320.514 C 239.500 320.517,239.097 320.595,239.705 320.687 M313.775 322.500 L 312.600 323.800 313.900 322.625 C 315.112 321.530,315.384 321.200,315.075 321.200 C 315.006 321.200,314.421 321.785,313.775 322.500 M199.712 327.495 C 200.764 327.577,202.384 327.576,203.312 327.492 C 204.240 327.408,203.380 327.341,201.400 327.342 C 199.420 327.343,198.660 327.412,199.712 327.495 M195.344 333.200 C 195.344 335.290,195.412 336.145,195.494 335.100 C 195.576 334.055,195.576 332.345,195.494 331.300 C 195.412 330.255,195.344 331.110,195.344 333.200 M197.753 340.200 C 197.753 342.840,197.818 343.868,197.897 342.484 C 197.975 341.101,197.974 338.941,197.895 337.684 C 197.816 336.428,197.752 337.560,197.753 340.200 M166.252 339.516 C 166.144 339.690,166.673 339.761,167.428 339.673 C 168.183 339.585,168.800 339.442,168.800 339.356 C 168.800 339.055,166.445 339.203,166.252 339.516 M239.500 342.682 C 239.995 342.778,240.805 342.778,241.300 342.682 C 241.795 342.587,241.390 342.509,240.400 342.509 C 239.410 342.509,239.005 342.587,239.500 342.682 M183.334 346.800 C 183.399 347.781,186.000 348.654,186.000 347.695 C 186.000 347.499,185.475 347.416,184.833 347.510 C 183.864 347.652,183.633 347.521,183.468 346.741 C 183.277 345.839,183.272 345.841,183.334 346.800 " stroke="none" fill="#7c8cb4" fill-rule="evenodd"></path><path id="path4" d="M193.500 23.099 C 197.075 23.166,202.925 23.166,206.500 23.099 C 210.075 23.033,207.150 22.979,200.000 22.979 C 192.850 22.979,189.925 23.033,193.500 23.099 M182.705 23.483 C 183.202 23.579,183.922 23.575,184.305 23.475 C 184.687 23.375,184.280 23.296,183.400 23.301 C 182.520 23.305,182.207 23.387,182.705 23.483 M215.905 23.483 C 216.402 23.579,217.122 23.575,217.505 23.475 C 217.887 23.375,217.480 23.296,216.600 23.301 C 215.720 23.305,215.407 23.387,215.905 23.483 M174.981 49.300 L 173.400 51.000 175.100 49.419 C 176.035 48.549,176.800 47.784,176.800 47.719 C 176.800 47.416,176.452 47.719,174.981 49.300 M168.378 56.300 L 167.000 57.800 168.500 56.422 C 169.325 55.663,170.000 54.988,170.000 54.922 C 170.000 54.616,169.662 54.904,168.378 56.300 M173.375 58.500 L 172.200 59.800 173.500 58.625 C 174.712 57.530,174.984 57.200,174.675 57.200 C 174.606 57.200,174.021 57.785,173.375 58.500 M176.909 59.600 C 176.909 60.590,176.987 60.995,177.082 60.500 C 177.178 60.005,177.178 59.195,177.082 58.700 C 176.987 58.205,176.909 58.610,176.909 59.600 M132.383 61.500 L 130.600 63.400 132.593 61.600 C 133.688 60.610,134.663 59.755,134.759 59.700 C 134.855 59.645,134.761 59.600,134.550 59.600 C 134.339 59.600,133.364 60.455,132.383 61.500 M191.293 68.000 C 191.293 68.770,191.375 69.085,191.476 68.700 C 191.576 68.315,191.576 67.685,191.476 67.300 C 191.375 66.915,191.293 67.230,191.293 68.000 M231.785 68.900 L 229.800 71.000 231.900 69.015 C 233.851 67.171,234.183 66.800,233.885 66.800 C 233.822 66.800,232.877 67.745,231.785 68.900 M147.693 72.800 C 147.693 73.570,147.775 73.885,147.876 73.500 C 147.976 73.115,147.976 72.485,147.876 72.100 C 147.775 71.715,147.693 72.030,147.693 72.800 M74.388 74.700 L 71.800 77.400 74.500 74.812 C 75.985 73.388,77.200 72.173,77.200 72.112 C 77.200 71.817,76.793 72.192,74.388 74.700 M241.646 72.867 C 241.621 73.453,241.375 74.024,241.100 74.135 C 240.708 74.293,240.711 74.344,241.113 74.368 C 241.747 74.408,242.130 73.487,241.880 72.523 C 241.754 72.036,241.678 72.148,241.646 72.867 M325.200 74.600 C 326.617 76.030,327.867 77.200,327.977 77.200 C 328.087 77.200,327.017 76.030,325.600 74.600 C 324.183 73.170,322.933 72.000,322.823 72.000 C 322.713 72.000,323.783 73.170,325.200 74.600 M318.000 81.800 C 319.195 83.010,320.263 84.000,320.373 84.000 C 320.483 84.000,319.595 83.010,318.400 81.800 C 317.205 80.590,316.137 79.600,316.027 79.600 C 315.917 79.600,316.805 80.590,318.000 81.800 M81.600 81.800 C 80.628 82.790,79.923 83.600,80.033 83.600 C 80.143 83.600,81.028 82.790,82.000 81.800 C 82.972 80.810,83.677 80.000,83.567 80.000 C 83.457 80.000,82.572 80.810,81.600 81.800 M145.293 83.200 C 145.293 83.970,145.375 84.285,145.476 83.900 C 145.576 83.515,145.576 82.885,145.476 82.500 C 145.375 82.115,145.293 82.430,145.293 83.200 M275.500 83.093 C 276.435 83.177,277.965 83.177,278.900 83.093 C 279.835 83.009,279.070 82.940,277.200 82.940 C 275.330 82.940,274.565 83.009,275.500 83.093 M135.693 84.800 C 135.693 85.570,135.775 85.885,135.876 85.500 C 135.976 85.115,135.976 84.485,135.876 84.100 C 135.775 83.715,135.693 84.030,135.693 84.800 M278.000 100.600 C 278.746 101.370,279.447 102.000,279.557 102.000 C 279.667 102.000,279.146 101.370,278.400 100.600 C 277.654 99.830,276.953 99.200,276.843 99.200 C 276.733 99.200,277.254 99.830,278.000 100.600 M310.678 109.813 C 310.060 110.356,309.714 110.800,309.908 110.800 C 310.102 110.800,310.683 110.350,311.200 109.800 C 312.395 108.528,312.131 108.534,310.678 109.813 M311.738 110.217 C 311.608 110.557,311.613 110.947,311.751 111.084 C 311.888 111.221,312.000 111.047,312.000 110.696 C 312.000 110.345,312.315 109.976,312.700 109.876 C 313.356 109.704,313.355 109.690,312.687 109.646 C 312.296 109.621,311.868 109.878,311.738 110.217 M294.100 115.076 C 294.485 115.176,295.115 115.176,295.500 115.076 C 295.885 114.975,295.570 114.893,294.800 114.893 C 294.030 114.893,293.715 114.975,294.100 115.076 M96.528 121.200 C 96.528 122.630,96.601 123.215,96.689 122.500 C 96.778 121.785,96.778 120.615,96.689 119.900 C 96.601 119.185,96.528 119.770,96.528 121.200 M93.328 121.600 C 93.328 123.030,93.401 123.615,93.489 122.900 C 93.578 122.185,93.578 121.015,93.489 120.300 C 93.401 119.585,93.328 120.170,93.328 121.600 M96.509 126.000 C 96.509 126.990,96.587 127.395,96.682 126.900 C 96.778 126.405,96.778 125.595,96.682 125.100 C 96.587 124.605,96.509 125.010,96.509 126.000 M165.500 140.300 C 184.475 140.357,215.525 140.357,234.500 140.300 C 253.475 140.243,237.950 140.195,200.000 140.195 C 162.050 140.195,146.525 140.243,165.500 140.300 M130.951 147.600 C 130.951 150.130,131.016 151.165,131.096 149.900 C 131.175 148.635,131.175 146.565,131.096 145.300 C 131.016 144.035,130.951 145.070,130.951 147.600 M268.951 147.600 C 268.951 150.130,269.016 151.165,269.096 149.900 C 269.175 148.635,269.175 146.565,269.096 145.300 C 269.016 144.035,268.951 145.070,268.951 147.600 M131.293 158.000 C 131.293 158.770,131.375 159.085,131.476 158.700 C 131.576 158.315,131.576 157.685,131.476 157.300 C 131.375 156.915,131.293 157.230,131.293 158.000 M268.493 158.000 C 268.493 158.770,268.575 159.085,268.676 158.700 C 268.776 158.315,268.776 157.685,268.676 157.300 C 268.575 156.915,268.493 157.230,268.493 158.000 M158.703 165.899 C 158.898 178.589,159.034 179.774,159.117 169.500 C 159.163 163.835,159.065 159.200,158.900 159.199 C 158.735 159.199,158.646 162.214,158.703 165.899 M327.381 164.500 L 325.800 166.200 327.500 164.619 C 329.081 163.148,329.384 162.800,329.081 162.800 C 329.016 162.800,328.251 163.565,327.381 164.500 M329.200 166.600 C 328.228 167.590,327.523 168.400,327.633 168.400 C 327.743 168.400,328.628 167.590,329.600 166.600 C 330.572 165.610,331.277 164.800,331.167 164.800 C 331.057 164.800,330.172 165.610,329.200 166.600 M335.300 170.276 C 335.685 170.376,336.315 170.376,336.700 170.276 C 337.085 170.175,336.770 170.093,336.000 170.093 C 335.230 170.093,334.915 170.175,335.300 170.276 M229.200 177.800 C 228.228 178.790,227.523 179.600,227.633 179.600 C 227.743 179.600,228.628 178.790,229.600 177.800 C 230.572 176.810,231.277 176.000,231.167 176.000 C 231.057 176.000,230.172 176.810,229.200 177.800 M235.700 177.497 C 237.185 177.574,239.615 177.574,241.100 177.497 C 242.585 177.420,241.370 177.357,238.400 177.357 C 235.430 177.357,234.215 177.420,235.700 177.497 M323.709 180.400 C 323.709 181.390,323.787 181.795,323.882 181.300 C 323.978 180.805,323.978 179.995,323.882 179.500 C 323.787 179.005,323.709 179.410,323.709 180.400 M346.109 180.400 C 346.109 181.390,346.187 181.795,346.282 181.300 C 346.378 180.805,346.378 179.995,346.282 179.500 C 346.187 179.005,346.109 179.410,346.109 180.400 M156.400 180.365 C 154.383 180.581,154.200 180.683,154.200 181.600 L 154.200 182.600 162.000 182.613 L 169.800 182.625 162.100 182.504 C 154.735 182.388,154.400 182.349,154.400 181.592 C 154.400 180.910,154.674 180.800,156.376 180.800 C 157.463 180.800,158.464 180.620,158.600 180.400 C 158.736 180.180,158.792 180.029,158.724 180.065 C 158.656 180.101,157.610 180.236,156.400 180.365 M165.561 180.523 C 165.740 180.700,166.856 180.788,168.043 180.717 L 170.200 180.589 167.718 180.394 C 166.354 180.287,165.383 180.345,165.561 180.523 M23.301 183.400 C 23.305 184.280,23.387 184.593,23.483 184.095 C 23.579 183.598,23.575 182.878,23.475 182.495 C 23.375 182.113,23.296 182.520,23.301 183.400 M226.747 182.507 C 226.916 182.676,231.452 182.766,236.827 182.707 L 246.600 182.599 236.519 182.399 C 230.975 182.290,226.577 182.338,226.747 182.507 M376.501 183.400 C 376.505 184.280,376.587 184.593,376.683 184.095 C 376.779 183.598,376.775 182.878,376.675 182.495 C 376.575 182.113,376.496 182.520,376.501 183.400 M22.979 200.000 C 22.979 207.150,23.033 210.075,23.099 206.500 C 23.166 202.925,23.166 197.075,23.099 193.500 C 23.033 189.925,22.979 192.850,22.979 200.000 M376.979 200.000 C 376.979 207.150,377.033 210.075,377.099 206.500 C 377.166 202.925,377.166 197.075,377.099 193.500 C 377.033 189.925,376.979 192.850,376.979 200.000 M334.100 188.676 C 334.485 188.776,335.115 188.776,335.500 188.676 C 335.885 188.575,335.570 188.493,334.800 188.493 C 334.030 188.493,333.715 188.575,334.100 188.676 M55.700 190.676 C 56.085 190.776,56.715 190.776,57.100 190.676 C 57.485 190.575,57.170 190.493,56.400 190.493 C 55.630 190.493,55.315 190.575,55.700 190.676 M62.700 191.082 C 63.195 191.178,64.005 191.178,64.500 191.082 C 64.995 190.987,64.590 190.909,63.600 190.909 C 62.610 190.909,62.205 190.987,62.700 191.082 M69.500 191.482 C 69.995 191.578,70.805 191.578,71.300 191.482 C 71.795 191.387,71.390 191.309,70.400 191.309 C 69.410 191.309,69.005 191.387,69.500 191.482 M94.509 194.400 C 94.509 195.390,94.587 195.795,94.682 195.300 C 94.778 194.805,94.778 193.995,94.682 193.500 C 94.587 193.005,94.509 193.410,94.509 194.400 M305.309 194.400 C 305.309 195.390,305.387 195.795,305.482 195.300 C 305.578 194.805,305.578 193.995,305.482 193.500 C 305.387 193.005,305.309 193.410,305.309 194.400 M103.759 200.000 C 103.759 203.190,103.821 204.495,103.897 202.900 C 103.973 201.305,103.973 198.695,103.897 197.100 C 103.821 195.505,103.759 196.810,103.759 200.000 M296.159 200.000 C 296.159 203.190,296.221 204.495,296.297 202.900 C 296.373 201.305,296.373 198.695,296.297 197.100 C 296.221 195.505,296.159 196.810,296.159 200.000 M94.509 205.600 C 94.509 206.590,94.587 206.995,94.682 206.500 C 94.778 206.005,94.778 205.195,94.682 204.700 C 94.587 204.205,94.509 204.610,94.509 205.600 M305.309 205.600 C 305.309 206.590,305.387 206.995,305.482 206.500 C 305.578 206.005,305.578 205.195,305.482 204.700 C 305.387 204.205,305.309 204.610,305.309 205.600 M335.700 214.676 C 336.085 214.776,336.715 214.776,337.100 214.676 C 337.485 214.575,337.170 214.493,336.400 214.493 C 335.630 214.493,335.315 214.575,335.700 214.676 M23.301 216.600 C 23.305 217.480,23.387 217.793,23.483 217.295 C 23.579 216.798,23.575 216.078,23.475 215.695 C 23.375 215.313,23.296 215.720,23.301 216.600 M376.501 216.600 C 376.505 217.480,376.587 217.793,376.683 217.295 C 376.779 216.798,376.775 216.078,376.675 215.695 C 376.575 215.313,376.496 215.720,376.501 216.600 M330.505 226.687 C 331.114 226.779,332.014 226.777,332.505 226.682 C 332.997 226.587,332.500 226.511,331.400 226.514 C 330.300 226.517,329.897 226.595,330.505 226.687 M342.509 237.600 C 342.509 238.590,342.587 238.995,342.682 238.500 C 342.778 238.005,342.778 237.195,342.682 236.700 C 342.587 236.205,342.509 236.610,342.509 237.600 M320.101 237.800 C 320.105 238.680,320.187 238.993,320.283 238.495 C 320.379 237.998,320.375 237.278,320.275 236.895 C 320.175 236.513,320.096 236.920,320.101 237.800 M339.709 238.000 C 339.709 238.990,339.787 239.395,339.882 238.900 C 339.978 238.405,339.978 237.595,339.882 237.100 C 339.787 236.605,339.709 237.010,339.709 238.000 M330.900 246.276 C 331.285 246.376,331.915 246.376,332.300 246.276 C 332.685 246.175,332.370 246.093,331.600 246.093 C 330.830 246.093,330.515 246.175,330.900 246.276 M106.562 286.862 C 106.390 287.140,106.452 287.215,106.716 287.052 C 107.005 286.873,107.207 287.433,107.306 288.690 L 107.456 290.600 107.528 288.500 C 107.596 286.514,107.196 285.836,106.562 286.862 M102.378 291.500 L 101.000 293.000 102.500 291.622 C 103.896 290.338,104.184 290.000,103.878 290.000 C 103.812 290.000,103.137 290.675,102.378 291.500 M97.775 296.500 L 96.600 297.800 97.900 296.625 C 99.112 295.530,99.384 295.200,99.075 295.200 C 99.006 295.200,98.421 295.785,97.775 296.500 M193.600 296.000 L 192.200 296.295 193.476 296.347 C 194.178 296.376,194.864 296.220,195.000 296.000 C 195.136 295.780,195.192 295.624,195.124 295.653 C 195.056 295.682,194.370 295.838,193.600 296.000 M205.152 296.112 C 205.345 296.305,206.019 296.398,206.651 296.319 C 207.709 296.187,207.681 296.159,206.300 295.968 C 205.440 295.849,204.950 295.910,205.152 296.112 M310.975 298.100 L 309.800 299.400 311.100 298.225 C 311.815 297.579,312.400 296.994,312.400 296.925 C 312.400 296.616,312.070 296.888,310.975 298.100 M117.170 299.100 L 116.200 300.200 117.288 299.241 C 118.245 298.399,118.463 298.350,119.088 298.841 C 119.736 299.350,119.751 299.337,119.251 298.700 C 118.520 297.768,118.308 297.809,117.170 299.100 M119.234 300.953 L 118.269 302.200 119.413 301.112 C 120.043 300.514,120.477 299.953,120.379 299.865 C 120.280 299.777,119.765 300.267,119.234 300.953 M92.800 301.800 L 91.861 302.800 92.800 303.800 C 93.317 304.350,93.898 304.800,94.092 304.800 C 94.286 304.800,93.940 304.365,93.322 303.834 L 92.200 302.867 93.170 301.834 C 93.703 301.265,94.049 300.800,93.939 300.800 C 93.829 300.800,93.317 301.250,92.800 301.800 M104.960 308.600 C 104.961 311.900,105.022 313.197,105.098 311.482 C 105.173 309.767,105.172 307.067,105.097 305.482 C 105.021 303.897,104.959 305.300,104.960 308.600 M111.775 304.900 L 110.600 306.200 111.900 305.025 C 113.112 303.930,113.384 303.600,113.075 303.600 C 113.006 303.600,112.421 304.185,111.775 304.900 M107.670 307.300 C 107.603 309.111,108.023 309.734,108.638 308.738 C 108.810 308.461,108.748 308.385,108.485 308.547 C 108.201 308.723,107.993 308.218,107.893 307.109 L 107.740 305.400 107.670 307.300 M318.185 318.100 L 316.200 320.200 318.300 318.215 C 320.251 316.371,320.583 316.000,320.285 316.000 C 320.222 316.000,319.277 316.945,318.185 318.100 M81.583 318.100 C 82.564 319.145,83.419 320.000,83.483 320.000 C 83.784 320.000,83.466 319.641,81.700 317.983 L 79.800 316.200 81.583 318.100 M74.400 325.400 C 75.817 326.830,77.067 328.000,77.177 328.000 C 77.287 328.000,76.217 326.830,74.800 325.400 C 73.383 323.970,72.133 322.800,72.023 322.800 C 71.913 322.800,72.983 323.970,74.400 325.400 M325.188 325.500 L 322.600 328.200 325.300 325.612 C 326.785 324.188,328.000 322.973,328.000 322.912 C 328.000 322.617,327.593 322.992,325.188 325.500 M191.491 327.089 C 192.201 327.177,193.461 327.179,194.291 327.092 C 195.121 327.005,194.540 326.933,193.000 326.931 C 191.460 326.929,190.781 327.000,191.491 327.089 M198.150 330.187 C 198.026 330.510,198.017 331.005,198.131 331.287 C 198.244 331.569,198.351 331.404,198.368 330.921 C 198.396 330.151,198.660 330.024,200.500 329.895 L 202.600 329.748 200.487 329.674 C 198.949 329.620,198.314 329.759,198.150 330.187 M229.309 331.600 C 229.309 332.590,229.387 332.995,229.482 332.500 C 229.578 332.005,229.578 331.195,229.482 330.700 C 229.387 330.205,229.309 330.610,229.309 331.600 M184.493 332.800 C 184.493 333.570,184.575 333.885,184.676 333.500 C 184.776 333.115,184.776 332.485,184.676 332.100 C 184.575 331.715,184.493 332.030,184.493 332.800 M194.950 344.200 C 194.951 346.620,195.016 347.558,195.096 346.285 C 195.176 345.012,195.175 343.032,195.094 341.885 C 195.014 340.738,194.949 341.780,194.950 344.200 M197.568 347.300 C 197.449 348.160,197.510 348.650,197.712 348.448 C 197.905 348.255,197.998 347.581,197.919 346.949 C 197.787 345.891,197.759 345.919,197.568 347.300 M182.705 376.683 C 183.202 376.779,183.922 376.775,184.305 376.675 C 184.687 376.575,184.280 376.496,183.400 376.501 C 182.520 376.505,182.207 376.587,182.705 376.683 M215.905 376.683 C 216.402 376.779,217.122 376.775,217.505 376.675 C 217.887 376.575,217.480 376.496,216.600 376.501 C 215.720 376.505,215.407 376.587,215.905 376.683 M193.500 377.099 C 197.075 377.166,202.925 377.166,206.500 377.099 C 210.075 377.033,207.150 376.979,200.000 376.979 C 192.850 376.979,189.925 377.033,193.500 377.099 " stroke="none" fill="#9caac9" fill-rule="evenodd"></path></g></svg>