<?xml version="1.0" standalone="no"?>
<!DOCTYPE svg PUBLIC "-//W3C//DTD SVG 20010904//EN"
 "http://www.w3.org/TR/2001/REC-SVG-20010904/DTD/svg10.dtd">
<svg version="1.0" xmlns="http://www.w3.org/2000/svg"
 width="1000.000000pt" height="1000.000000pt" viewBox="0 0 1000.000000 1000.000000"
 preserveAspectRatio="xMidYMid meet">

<g transform="translate(0.000000,1000.000000) scale(0.100000,-0.100000)"
fill="#000000" stroke="none">
<path d="M4520 9404 c-577 -70 -1114 -233 -1580 -481 -795 -422 -1441 -1068
-1863 -1863 -255 -481 -429 -1066 -487 -1639 -16 -162 -13 -732 5 -886 46
-397 128 -743 257 -1090 375 -1006 1124 -1856 2088 -2368 481 -255 1066 -429
1639 -487 162 -16 732 -13 886 5 1047 122 1940 549 2666 1274 733 734 1174
1669 1279 2710 16 162 13 732 -5 886 -122 1047 -549 1940 -1274 2666 -726 725
-1619 1152 -2666 1274 -171 20 -778 19 -945 -1z m785 -234 c571 -49 1041 -176
1530 -415 292 -142 524 -289 770 -486 743 -593 1262 -1417 1470 -2335 75 -326
100 -565 100 -934 0 -369 -25 -608 -100 -934 -208 -918 -727 -1742 -1470
-2335 -984 -787 -2282 -1086 -3515 -811 -1253 279 -2304 1115 -2861 2275 -403
840 -513 1803 -309 2715 249 1116 938 2073 1922 2671 169 103 471 251 658 322
375 143 757 229 1175 266 143 12 489 13 630 1z"/>
<path d="M4885 8869 c-81 -43 -136 -90 -191 -163 -66 -88 -97 -154 -149 -322
-46 -149 -111 -304 -127 -304 -11 0 -1 40 28 115 13 33 33 105 44 159 19 91
19 101 4 117 -10 12 -15 32 -13 60 2 28 -1 44 -9 47 -24 8 -42 -20 -42 -65 0
-37 -5 -48 -29 -69 -49 -41 -73 -88 -69 -136 3 -37 7 -45 35 -58 38 -17 38
-19 -4 -155 -38 -124 -39 -133 -12 -161 29 -31 39 -30 72 4 49 51 102 191 162
432 51 203 164 359 343 471 32 21 32 21 32 1 0 -40 -104 -282 -122 -282 -4 0
-16 16 -25 35 -31 65 -82 37 -63 -34 6 -23 14 -41 19 -41 4 0 11 -54 14 -121
6 -112 4 -125 -19 -191 -28 -76 -23 -100 14 -77 12 7 24 10 28 6 4 -3 7 -40 8
-81 1 -69 4 -78 31 -106 31 -32 78 -40 116 -20 40 22 10 90 -39 90 -11 0 -23
3 -25 8 -2 4 9 63 24 132 15 69 25 133 23 142 -8 27 -53 34 -87 14 -16 -9 -31
-15 -32 -14 -1 2 -6 44 -9 94 -7 88 -7 90 17 101 13 6 48 44 79 84 108 142
161 268 124 298 -32 27 -88 23 -151 -10z m-469 -565 c-8 -20 -36 -17 -36 4 0
10 8 29 18 42 l17 25 3 -28 c2 -16 1 -35 -2 -43z m460 -86 c-10 -62 -26 -121
-33 -115 -2 3 -9 23 -13 44 -8 33 -6 43 17 76 14 20 28 37 31 37 2 0 2 -19 -2
-42z"/>
<path d="M4444 8815 c-32 -14 -264 -254 -264 -273 0 -21 42 -34 89 -29 41 4
52 12 101 66 72 78 120 159 127 210 6 46 0 49 -53 26z"/>
<path d="M3441 8563 c-22 -94 -93 -463 -110 -578 -6 -38 -20 -149 -30 -245
-24 -209 -44 -313 -78 -398 -14 -35 -23 -66 -20 -68 10 -11 77 42 95 76 36 64
62 217 91 523 5 59 9 69 31 80 13 7 63 66 110 132 96 135 98 135 83 -14 -8
-74 -8 -75 -48 -95 -64 -34 -78 -125 -16 -113 28 6 30 3 72 -90 l43 -95 -25
-19 c-48 -37 -65 -20 -75 76 l-8 70 -57 -120 c-32 -66 -58 -128 -58 -137 -1
-20 59 -42 89 -33 28 9 60 45 60 67 0 15 8 18 45 18 67 0 115 23 115 55 0 35
-24 89 -58 133 -40 51 -62 96 -62 128 0 15 12 59 27 98 21 57 27 89 27 163 1
116 -8 129 -61 83 -61 -52 -150 -160 -183 -222 -17 -32 -34 -58 -37 -58 -17 0
27 262 83 488 34 137 35 144 18 163 -30 34 -41 22 -63 -68z"/>
<path d="M5884 8600 c-23 -10 -86 -25 -139 -34 -54 -8 -99 -17 -101 -19 -2 -2
8 -14 22 -28 23 -21 34 -24 105 -23 l80 1 -6 -31 c-6 -28 -31 -71 -131 -221
-52 -78 -110 -111 -242 -138 -61 -13 -115 -27 -119 -31 -11 -11 34 -42 80 -56
44 -13 120 -15 169 -5 18 4 80 27 138 50 58 24 149 53 203 65 l98 23 -3 36
c-2 26 -10 39 -30 51 -25 14 -35 13 -115 -9 -155 -41 -153 -41 -153 -21 0 10
69 84 160 171 169 161 181 178 140 219 -26 26 -99 26 -156 0z"/>
<path d="M3309 8453 c-25 -27 -54 -60 -65 -74 -49 -67 -150 -175 -168 -179
-12 -3 -22 -16 -24 -28 -3 -19 1 -22 29 -22 67 0 169 73 223 158 33 53 75 192
58 192 -4 0 -28 -21 -53 -47z"/>
<path d="M6950 8153 c-58 -63 -115 -119 -128 -124 -16 -6 -40 -3 -80 11 -92
32 -226 69 -231 65 -8 -8 19 -82 34 -95 13 -11 122 -27 199 -29 56 -2 -91 -87
-199 -116 -33 -9 -121 -23 -195 -32 -74 -9 -139 -20 -144 -24 -19 -17 52 -32
149 -32 92 0 110 3 220 42 66 24 157 58 203 77 96 40 155 43 316 19 116 -18
156 -19 156 -5 0 6 -2 10 -3 10 -9 0 -284 52 -299 56 -10 3 -18 9 -18 13 0 4
39 36 86 71 119 89 123 96 88 160 -15 27 -32 50 -38 49 -6 0 -58 -52 -116
-116z"/>
<path d="M3760 8001 c0 -5 7 -11 15 -15 8 -3 15 -14 15 -24 0 -15 16 -25 61
-43 l62 -23 19 24 c18 23 18 23 -3 46 -29 31 -169 60 -169 35z"/>
<path d="M3424 7850 c4 -28 9 -57 12 -65 12 -29 64 -10 64 23 0 18 -58 92 -72
92 -7 0 -8 -18 -4 -50z"/>
<path d="M6821 7788 c-23 -112 -41 -232 -41 -267 0 -64 18 -77 144 -106 144
-33 165 -31 98 13 -114 73 -164 166 -170 315 -2 53 -8 97 -12 97 -5 0 -13 -24
-19 -52z"/>
<path d="M2407 7670 c-7 -11 -33 -65 -58 -121 l-43 -102 -21 27 c-11 15 -39
57 -61 94 l-42 67 -58 -3 c-64 -3 -84 -14 -84 -46 0 -15 15 -29 55 -50 57 -29
88 -63 123 -133 l21 -41 -28 -84 c-16 -45 -54 -138 -85 -205 -31 -67 -56 -129
-56 -138 0 -25 44 -18 73 13 14 15 50 72 80 127 30 54 59 101 65 103 23 7 47
-109 47 -223 0 -140 -21 -224 -90 -362 -57 -113 -56 -125 9 -103 48 15 82 53
105 114 65 174 69 435 10 658 l-21 76 55 124 c60 136 79 192 70 214 -8 21 -50
17 -66 -6z"/>
<path d="M4767 7629 c-789 -70 -1511 -499 -1958 -1164 -231 -344 -385 -769
-430 -1192 -15 -147 -7 -533 15 -673 23 -144 70 -330 117 -469 55 -159 201
-452 294 -591 360 -535 889 -917 1503 -1086 527 -144 1091 -119 1608 71 148
54 384 174 519 263 301 197 558 452 760 752 105 157 242 438 304 626 55 165
103 387 122 561 15 147 7 533 -15 673 -23 144 -70 330 -117 469 -55 159 -201
452 -294 591 -360 535 -889 917 -1503 1086 -295 80 -623 110 -925 83z m81
-536 l-3 -318 -22 1 c-13 0 -343 1 -735 2 l-711 2 19 21 c33 37 186 154 283
218 303 198 646 326 1006 375 55 8 115 14 133 15 l32 1 -2 -317z m532 291
c325 -50 670 -185 943 -367 119 -80 258 -187 286 -221 12 -15 -45 -16 -698
-18 -391 -1 -721 -2 -733 -2 l-23 -1 -3 319 -2 318 67 -6 c38 -4 111 -14 163
-22z m1344 -1109 c-3 -384 -54 -716 -166 -1072 l-41 -133 -1517 0 -1517 0 -41
133 c-107 338 -158 656 -169 1048 -3 119 -3 224 0 233 6 15 149 16 1729 14
l1723 -3 -1 -220z m-3734 -14 c0 -27 7 -113 15 -192 107 -1034 464 -1950 1040
-2669 226 -281 515 -562 779 -755 64 -47 66 -50 40 -53 -15 -2 -73 1 -128 8
-663 75 -1269 422 -1666 955 -99 133 -165 243 -241 400 -318 659 -319 1426 -4
2083 61 127 145 272 157 272 4 0 8 -22 8 -49z m4083 -30 c409 -687 448 -1548
103 -2266 -292 -609 -789 -1046 -1430 -1260 -190 -63 -519 -124 -610 -113 -26
3 -24 6 40 53 264 193 553 474 779 755 416 519 722 1149 894 1840 84 336 161
824 161 1021 0 27 4 49 8 49 5 0 29 -36 55 -79z"/>
<path d="M4017 6126 c-27 -24 -76 -59 -108 -77 -92 -52 -96 -56 -82 -70 12
-12 45 -3 136 36 16 7 17 -9 17 -245 0 -154 -4 -259 -10 -271 -8 -15 -22 -19
-60 -19 -43 0 -50 -3 -50 -20 0 -19 7 -20 195 -20 188 0 195 1 195 20 0 18 -7
20 -55 20 -43 0 -56 4 -65 19 -6 13 -10 140 -10 345 l0 326 -27 0 c-18 -1 -45
-16 -76 -44z"/>
<path d="M4610 6159 c-121 -23 -191 -99 -198 -215 -9 -143 64 -223 206 -227
36 -1 69 5 91 16 19 9 36 15 38 13 7 -7 -33 -96 -64 -140 -38 -53 -113 -111
-165 -128 -40 -12 -45 -17 -27 -35 8 -8 30 -6 81 8 184 51 301 158 343 313 45
166 -26 340 -155 380 -66 21 -100 24 -150 15z m89 -44 c40 -20 64 -77 69 -167
8 -143 -13 -178 -111 -178 -70 0 -81 20 -85 148 -5 125 7 176 46 196 34 19 46
19 81 1z"/>
<path d="M5258 6156 c-70 -19 -124 -59 -158 -119 -82 -144 -68 -413 28 -519
93 -103 244 -108 344 -11 93 90 121 284 67 459 -26 85 -67 137 -131 167 -71
34 -95 37 -150 23z m91 -42 c45 -32 54 -75 59 -274 7 -298 -13 -370 -104 -370
-34 0 -47 5 -67 29 -33 40 -38 93 -34 341 2 172 6 210 21 238 26 50 81 66 125
36z"/>
<path d="M5852 6156 c-81 -26 -137 -88 -163 -178 -7 -25 -5 -28 14 -28 16 0
29 13 46 45 17 31 36 50 65 65 50 24 66 25 109 6 42 -17 65 -53 77 -118 17
-85 -21 -148 -191 -323 -91 -93 -139 -150 -139 -164 0 -21 1 -21 244 -21 l243
0 6 38 c4 20 9 68 13 106 6 63 6 69 -10 63 -10 -4 -20 -7 -22 -7 -2 0 -4 -8
-4 -18 0 -10 -9 -28 -20 -40 -20 -21 -30 -22 -162 -22 l-141 0 24 26 c13 15
69 66 125 114 122 107 175 179 182 249 5 55 -9 107 -40 146 -47 60 -169 89
-256 61z"/>
<path d="M7909 7435 c-37 -75 -33 -97 9 -52 23 24 52 87 52 112 0 36 -28 9
-61 -60z"/>
<path d="M8187 7417 c-27 -60 -31 -63 -129 -72 -61 -7 -67 -5 -77 14 -15 28
-45 29 -36 1 3 -11 3 -20 -2 -20 -4 0 -15 -5 -23 -10 -12 -7 -7 -16 25 -44 33
-29 37 -37 25 -46 -19 -13 -127 -13 -135 0 -9 14 -35 13 -35 -2 0 -6 -10 -22
-22 -35 l-21 -23 21 0 c20 0 39 -16 29 -26 -7 -7 -160 38 -178 53 -38 32 -58
4 -36 -50 12 -27 23 -37 49 -42 68 -15 278 -86 278 -94 0 -5 -8 -11 -17 -13
-31 -7 -225 13 -303 32 -77 18 -107 15 -124 -13 -14 -22 20 -67 63 -82 18 -6
29 -14 25 -18 -13 -12 -42 -8 -76 12 -30 18 -264 121 -274 121 -27 0 47 -117
83 -132 84 -34 133 -61 133 -74 0 -24 -30 -62 -67 -85 -19 -12 -35 -20 -37
-18 -2 2 -11 19 -20 37 -20 39 -32 41 -40 7 -9 -34 9 -98 33 -119 19 -17 21
-17 51 6 18 12 54 51 81 86 41 51 54 62 80 62 34 0 122 -41 157 -74 23 -21 24
-21 38 -2 21 29 18 42 -22 85 l-35 40 17 33 c35 70 31 69 165 35 l120 -30 27
20 c32 24 40 74 18 108 -9 14 -16 26 -16 28 0 3 41 15 90 28 103 26 129 45
114 87 -12 34 -59 44 -66 14 -5 -19 -63 -41 -75 -28 -3 3 0 20 6 37 10 30 9
35 -15 54 -15 12 -24 26 -21 32 4 6 43 14 87 18 92 8 112 24 124 96 11 67 -9
70 -37 6z m-245 -232 c-10 -8 -31 -17 -47 -21 -41 -10 -28 18 16 32 40 14 58
7 31 -11z m-32 -49 c0 -3 -4 -8 -10 -11 -5 -3 -10 -1 -10 4 0 6 5 11 10 11 6
0 10 -2 10 -4z"/>
<path d="M7702 7337 c-55 -55 -62 -71 -37 -81 23 -8 45 4 45 25 0 10 14 34 30
52 29 34 38 57 22 57 -4 0 -31 -24 -60 -53z"/>
<path d="M7798 7349 c-10 -5 -18 -16 -18 -24 0 -7 -11 -27 -25 -43 -29 -34
-31 -42 -11 -42 16 0 60 48 82 91 16 31 6 38 -28 18z"/>
<path d="M2552 7309 c-18 -6 -32 -15 -30 -21 2 -6 31 -20 64 -32 33 -12 81
-37 107 -56 40 -29 47 -38 47 -68 l0 -35 49 44 c59 54 79 92 60 115 -22 27
-62 41 -129 48 -36 4 -81 9 -100 11 -19 2 -50 -1 -68 -6z"/>
<path d="M7302 7225 c-41 -34 -58 -79 -44 -111 l12 -24 37 20 c21 11 51 20 68
20 17 0 36 5 41 10 6 6 32 16 58 23 26 7 46 17 44 22 -2 6 -37 10 -78 10 l-75
0 3 28 c4 35 -25 37 -66 2z"/>
<path d="M2508 7013 c-40 -6 -35 -25 18 -72 39 -34 54 -41 89 -41 47 0 62 12
71 58 5 24 2 32 -14 41 -24 13 -124 21 -164 14z"/>
<path d="M7972 6038 c6 -18 12 -35 14 -36 1 -2 55 -16 118 -31 64 -16 120 -31
123 -35 4 -4 -32 -46 -80 -94 -48 -48 -87 -93 -87 -99 0 -6 5 -24 10 -38 10
-27 11 -26 129 97 128 133 115 125 284 173 52 15 57 19 51 38 -3 12 -10 26
-14 30 -4 5 -56 -6 -114 -23 l-107 -32 -165 41 c-90 23 -166 41 -168 41 -3 0
0 -15 6 -32z"/>
<path d="M1424 5975 c-4 -14 -4 -28 -1 -31 3 -3 101 -33 217 -65 117 -33 216
-61 220 -64 4 -2 1 -29 -8 -60 -17 -61 -16 -63 17 -67 22 -3 26 7 66 145 l43
148 -25 10 c-13 5 -26 9 -28 9 -3 0 -12 -26 -21 -57 -9 -32 -18 -59 -19 -61
-2 -2 -101 24 -220 57 -120 34 -222 61 -226 61 -5 0 -11 -11 -15 -25z"/>
<path d="M1376 5823 c-3 -4 -6 -19 -6 -34 0 -23 11 -36 60 -69 44 -30 60 -46
56 -58 -3 -9 -10 -55 -17 -102 -17 -122 -18 -124 -82 -139 -70 -15 -90 -30
-85 -62 l3 -26 278 78 c259 72 297 84 286 92 -94 68 -488 324 -493 320z m265
-240 c49 -32 89 -61 89 -64 0 -6 -187 -59 -209 -59 -7 0 -10 8 -7 18 2 9 10
50 16 90 7 39 14 72 17 72 2 0 45 -26 94 -57z"/>
<path d="M8345 5731 c-3 -5 -1 -43 5 -83 18 -120 17 -120 48 -116 15 2 26 8
26 13 -17 125 -17 125 11 125 54 0 137 -69 151 -126 11 -44 -2 -122 -27 -159
-29 -43 -100 -92 -146 -101 -127 -24 -253 79 -253 208 0 49 11 84 42 129 17
26 17 27 -6 42 -22 15 -25 15 -39 -1 -32 -35 -57 -107 -57 -163 0 -168 127
-288 293 -277 77 5 130 30 184 85 46 48 73 114 73 181 0 75 -20 123 -75 177
-31 32 -65 55 -91 63 -49 14 -130 16 -139 3z"/>
<path d="M1298 5210 c-3 -18 0 -33 6 -35 6 -2 106 -9 221 -15 116 -6 229 -13
251 -16 39 -4 42 -3 48 22 4 15 3 30 -1 34 -4 5 -100 13 -213 19 -113 6 -228
14 -256 17 l-52 5 -4 -31z"/>
<path d="M8360 5191 c-130 -27 -224 -144 -223 -278 2 -249 311 -366 478 -181
98 109 98 260 0 376 -50 60 -173 100 -255 83z m168 -94 c23 -14 53 -47 67 -72
54 -92 43 -178 -34 -255 -70 -70 -159 -85 -246 -42 -168 82 -155 325 20 390
53 20 147 10 193 -21z"/>
<path d="M1665 5000 c-133 -85 -143 -89 -196 -90 -31 0 -84 -3 -118 -6 -59 -7
-61 -8 -61 -36 l0 -29 119 2 119 1 143 -76 c79 -42 147 -76 152 -76 4 0 7 15
5 33 -3 30 -11 36 -115 92 -62 33 -112 62 -112 65 0 3 48 35 107 71 102 62
107 67 110 102 2 20 0 37 -5 36 -4 0 -71 -40 -148 -89z"/>
<path d="M1635 4636 c-99 -17 -194 -39 -211 -49 -116 -61 -134 -217 -37 -309
60 -57 99 -59 336 -21 l168 27 -3 30 c-2 21 -8 30 -18 29 -8 -1 -93 -14 -188
-29 -198 -31 -234 -27 -273 28 -33 45 -32 117 1 153 37 40 68 50 255 81 94 15
172 28 173 30 6 5 -9 64 -16 63 -4 -1 -88 -15 -187 -33z"/>
<path d="M8595 4543 c-13 -93 -20 -108 -46 -106 -13 1 -116 16 -228 33 -112
17 -205 29 -207 28 -1 -2 -5 -15 -9 -30 -6 -23 -3 -28 17 -33 68 -16 494 -73
500 -67 8 9 37 204 31 215 -2 4 -15 7 -28 7 -21 0 -25 -6 -30 -47z"/>
<path d="M8160 4299 c-96 -48 -148 -132 -149 -240 -2 -106 47 -194 136 -246
36 -21 63 -27 124 -31 70 -4 84 -2 133 22 170 83 209 314 77 446 -86 86 -208
105 -321 49z m235 -64 c81 -47 124 -162 95 -250 -7 -21 -31 -57 -54 -79 -82
-82 -202 -87 -292 -13 -99 82 -98 243 2 325 22 18 53 37 69 42 49 15 131 4
180 -25z"/>
<path d="M1393 4088 c13 -32 17 -33 85 -41 l71 -9 31 -101 c17 -56 33 -109 36
-118 3 -11 -15 -34 -51 -67 -55 -49 -56 -50 -43 -81 l13 -31 225 203 c123 111
218 203 210 204 -29 5 -568 73 -579 73 -8 0 -7 -10 2 -32z m370 -74 c42 -4 77
-10 77 -14 0 -9 -160 -146 -168 -143 -7 2 -52 141 -52 162 0 10 9 12 33 7 17
-3 67 -8 110 -12z"/>
<path d="M7931 3824 c-6 -15 -10 -28 -9 -29 2 -2 77 -38 168 -80 91 -42 169
-80 173 -84 4 -4 -112 -48 -258 -97 -146 -49 -265 -91 -265 -94 0 -3 109 -56
242 -118 223 -104 243 -112 255 -96 7 10 13 23 13 29 0 7 -76 47 -170 91 -93
43 -169 82 -170 86 0 3 119 46 265 95 145 48 261 91 257 94 -9 9 -473 229
-482 229 -4 0 -12 -12 -19 -26z"/>
<path d="M1813 3689 c-141 -68 -243 -124 -243 -132 0 -7 6 -21 13 -31 12 -17
25 -12 186 69 170 85 173 86 167 58 -6 -22 -154 -428 -181 -496 -5 -11 69 20
231 99 132 63 243 119 247 123 7 7 -3 40 -18 58 -1 2 -78 -35 -171 -81 -93
-46 -170 -80 -172 -76 -1 4 40 123 92 265 53 142 95 259 93 260 -1 1 -111 -51
-244 -116z"/>
<path d="M7706 3365 c-9 -13 -16 -26 -16 -28 0 -3 38 -30 85 -62 47 -31 85
-59 85 -61 0 -11 -134 -204 -142 -204 -5 0 -45 25 -90 56 l-81 57 -18 -24
c-10 -13 -19 -26 -19 -29 0 -5 415 -282 432 -289 9 -3 37 27 38 41 0 5 -45 38
-100 74 -55 37 -100 71 -100 76 0 8 112 181 130 201 3 4 53 -24 111 -63 l104
-70 17 22 c10 13 18 26 18 29 0 3 -99 72 -219 152 l-219 146 -16 -24z"/>
<path d="M2274 3064 c-198 -158 -224 -190 -224 -279 0 -85 60 -163 141 -185
37 -10 69 -8 122 7 23 6 317 240 317 251 0 5 -9 17 -20 27 -19 17 -23 15 -143
-83 -156 -127 -181 -142 -236 -142 -37 0 -49 6 -82 39 -32 32 -39 46 -39 77 0
60 28 93 167 204 172 138 160 125 138 150 -10 11 -21 20 -25 20 -5 0 -57 -39
-116 -86z"/>
<path d="M7465 3003 c-90 -46 -149 -146 -148 -253 0 -78 18 -123 70 -180 133
-148 373 -109 453 73 l22 49 -23 24 c-30 32 -35 31 -43 -14 -8 -54 -56 -115
-108 -141 -89 -43 -194 -19 -260 58 -94 110 -62 263 66 326 47 23 54 30 45 42
-23 27 -43 32 -74 16z"/>
<path d="M2540 2683 c-260 -283 -235 -251 -215 -273 10 -11 22 -20 26 -20 4 0
65 63 135 139 71 77 130 138 133 135 2 -2 7 -130 10 -285 l6 -280 146 158
c244 266 225 240 204 263 -10 11 -21 20 -26 20 -4 0 -62 -60 -129 -132 -67
-73 -126 -134 -131 -136 -5 -2 -10 60 -10 145 -1 81 -4 208 -8 280 l-6 133
-135 -147z"/>
<path d="M7075 2610 c-55 -49 -99 -94 -97 -100 4 -17 335 -391 343 -388 4 2
53 43 109 92 l102 89 -20 20 -21 20 -34 -29 c-20 -16 -57 -47 -83 -69 l-47
-40 -63 70 c-58 64 -76 94 -56 95 4 1 38 29 77 65 69 63 70 63 51 84 l-19 21
-33 -28 c-18 -15 -55 -46 -82 -69 l-49 -42 -48 56 -49 56 40 35 c136 122 127
112 108 133 -9 10 -20 19 -23 19 -3 -1 -51 -41 -106 -90z"/>
<path d="M6804 2395 c-65 -47 -120 -89 -122 -93 -1 -4 4 -17 12 -27 14 -19 15
-19 59 13 25 17 49 32 54 32 5 0 69 -85 142 -190 l133 -189 24 16 c14 9 23 22
20 30 -3 7 -60 91 -127 185 -66 94 -123 177 -126 184 -2 6 16 26 41 44 25 17
46 33 46 36 0 12 -21 44 -29 44 -4 0 -61 -38 -127 -85z"/>
<path d="M2917 2243 c-153 -206 -155 -208 -136 -228 14 -14 23 -17 34 -10 8 6
82 101 165 212 148 200 149 202 127 218 -12 8 -25 15 -28 15 -4 0 -77 -93
-162 -207z"/>
<path d="M3156 2353 c-3 -16 -21 -136 -41 -268 -19 -132 -37 -253 -40 -268
l-5 -29 38 29 c21 15 129 95 240 177 111 83 202 153 202 157 0 3 -14 12 -30
19 -30 12 -33 11 -191 -110 -88 -67 -163 -119 -166 -116 -4 3 8 95 26 203 l32
198 -22 18 c-29 23 -36 22 -43 -10z"/>
<path d="M6343 2125 c-62 -30 -113 -56 -113 -58 0 -4 220 -471 225 -475 4 -4
55 21 55 27 0 3 -23 53 -50 110 -28 57 -50 109 -50 115 0 7 36 29 79 51 75 36
79 39 68 62 -5 12 -13 23 -17 23 -4 0 -42 -16 -84 -35 -43 -19 -78 -35 -80
-35 -5 0 -56 116 -56 128 0 5 36 27 80 48 81 38 90 48 68 76 -12 14 -25 10
-125 -37z"/>
<path d="M3556 2088 c-12 -29 -60 -137 -106 -241 -46 -103 -81 -189 -79 -191
12 -10 234 -106 245 -106 12 0 40 38 32 45 -2 1 -47 22 -100 45 -54 24 -98 44
-98 45 0 2 18 43 40 91 24 54 45 88 52 86 7 -2 51 -20 97 -40 80 -34 84 -35
97 -17 8 10 14 22 14 25 0 4 -43 26 -95 50 -52 24 -95 46 -95 50 0 7 49 121
56 128 1 2 43 -15 93 -37 50 -23 95 -41 101 -41 10 0 34 39 28 45 -4 5 -248
115 -254 115 -2 0 -15 -24 -28 -52z"/>
<path d="M3883 1933 c-12 -38 -47 -151 -78 -251 -31 -101 -55 -185 -53 -187 2
-2 15 -6 30 -10 27 -7 27 -6 60 99 23 78 36 106 47 104 10 -2 29 -50 55 -135
26 -88 45 -134 55 -137 9 -2 26 -7 38 -11 21 -6 20 0 -23 127 -24 73 -44 133
-44 135 0 2 18 3 39 3 70 0 131 70 131 150 0 81 -39 120 -159 159 -35 12 -67
21 -71 21 -4 0 -16 -30 -27 -67z m168 -54 c38 -35 39 -86 5 -126 -21 -24 -32
-28 -73 -27 -26 0 -58 6 -69 12 l-21 11 24 78 c14 43 26 83 28 90 6 18 71 -6
106 -38z"/>
<path d="M5938 1977 c-206 -58 -266 -326 -106 -473 54 -50 103 -68 183 -68
251 0 372 310 185 477 -23 22 -57 45 -75 53 -50 21 -134 25 -187 11z m172 -72
c63 -33 120 -125 120 -194 0 -52 -22 -104 -62 -147 -173 -188 -463 40 -333
261 27 47 60 72 120 91 44 15 116 10 155 -11z"/>
<path d="M4330 1880 c-20 -5 -49 -24 -67 -44 -27 -29 -33 -44 -33 -79 0 -61
26 -95 122 -157 26 -17 53 -46 62 -65 15 -30 15 -38 2 -68 -18 -44 -51 -67
-96 -67 -53 1 -100 47 -100 99 0 17 -6 21 -30 21 -27 0 -30 -3 -30 -31 0 -82
62 -141 155 -147 50 -3 66 0 94 20 49 33 72 69 78 120 8 67 -17 110 -96 165
-106 75 -121 104 -76 148 36 37 98 35 134 -4 29 -31 71 -34 71 -5 0 28 -60 82
-104 93 -25 6 -46 11 -48 10 -2 -1 -19 -5 -38 -9z"/>
<path d="M5408 1838 c-8 -7 -37 -61 -64 -120 -27 -59 -51 -108 -54 -108 -3 1
-38 48 -77 105 l-73 104 -190 1 -190 0 0 -29 c0 -30 1 -30 62 -33 l61 -3 -2
-232 -3 -233 30 0 29 0 6 113 c4 61 7 167 7 235 l0 122 64 0 c41 0 66 4 68 12
2 6 45 -46 95 -117 l91 -129 7 -96 c3 -52 9 -103 11 -112 6 -19 48 -25 59 -8
3 5 1 58 -5 117 l-11 108 71 152 c38 83 70 154 70 157 0 11 -46 6 -62 -6z"/>
<path d="M4635 1826 c-2 -6 -13 -110 -24 -231 -12 -121 -24 -234 -27 -252 -4
-29 -2 -33 21 -39 15 -4 30 -3 35 2 4 5 17 108 29 229 12 121 24 236 27 256 5
35 4 37 -26 41 -18 3 -33 0 -35 -6z"/>
</g>
</svg>
