<?xml version="1.0" standalone="no"?>
<!DOCTYPE svg PUBLIC "-//W3C//DTD SVG 20010904//EN"
 "http://www.w3.org/TR/2001/REC-SVG-20010904/DTD/svg10.dtd">
<svg version="1.0" xmlns="http://www.w3.org/2000/svg"
 width="595.000000pt" height="649.000000pt" viewBox="0 0 595.000000 649.000000"
 preserveAspectRatio="xMidYMid meet">

<g transform="translate(0.000000,649.000000) scale(0.100000,-0.100000)"
fill="#000000" stroke="none">
<path d="M3388 4699 c-155 -17 -269 -70 -374 -175 -112 -110 -167 -240 -166
-389 1 -225 164 -397 378 -398 58 0 82 5 127 27 116 56 161 155 122 267 -49
137 -214 170 -270 53 -14 -29 -14 -38 -3 -61 16 -34 43 -41 69 -17 18 16 19
16 19 -9 0 -17 -9 -32 -26 -43 -23 -16 -28 -16 -60 -1 -39 19 -74 70 -74 107
0 44 42 113 88 145 38 26 52 30 110 30 78 -1 127 -23 183 -82 64 -67 84 -116
84 -213 0 -75 -3 -91 -29 -138 -129 -232 -421 -267 -693 -82 -82 55 -115 67
-153 52 -35 -14 -555 -412 -555 -425 0 -15 144 -138 226 -192 137 -92 299
-160 474 -201 63 -15 118 -19 260 -18 164 0 189 3 280 28 379 104 666 375 757
716 19 70 22 110 22 225 -1 122 -4 151 -27 228 -116 380 -420 604 -769 566z"/>
<path d="M5265 2386 c-53 -23 -108 -102 -135 -193 -12 -39 -15 -42 -53 -45
-52 -4 -63 -28 -13 -28 22 0 36 -5 36 -12 0 -16 -96 -376 -110 -412 -12 -34
-43 -34 -64 0 -23 34 -60 30 -64 -8 -2 -18 4 -31 20 -42 30 -21 53 -20 105 5
60 29 84 76 138 265 61 215 54 204 115 204 38 0 50 4 50 15 0 11 -12 15 -45
15 -53 0 -54 4 -24 93 42 127 86 161 115 92 15 -36 31 -44 52 -23 19 19 14 55
-10 72 -27 19 -72 20 -113 2z"/>
<path d="M3150 2328 c-52 -27 -80 -74 -80 -136 0 -59 17 -95 87 -182 96 -120
112 -166 73 -208 -24 -26 -65 -28 -117 -7 -19 8 -37 15 -39 15 -2 0 -4 -20 -4
-45 l0 -44 54 -16 c67 -20 116 -12 158 23 81 69 75 185 -16 296 -111 138 -124
167 -90 215 14 19 23 22 58 18 22 -2 51 -8 64 -12 20 -7 22 -4 22 34 0 38 -3
43 -35 57 -48 20 -84 18 -135 -8z"/>
<path d="M572 2073 c3 -247 5 -271 23 -302 32 -55 69 -76 130 -76 61 0 98 21
130 76 18 31 20 55 23 302 l3 267 -45 0 -46 0 0 -250 c0 -201 -3 -257 -15
-279 -24 -48 -76 -48 -100 -1 -12 23 -15 77 -15 280 l0 250 -46 0 -45 0 3
-267z"/>
<path d="M1050 2021 l0 -321 40 0 40 0 0 197 c0 108 3 193 8 189 4 -4 37 -92
73 -194 l67 -187 41 -3 41 -3 0 320 0 321 -45 0 -45 0 -2 -186 -3 -187 -66
184 -65 184 -42 3 -42 3 0 -320z"/>
<path d="M1530 2020 l0 -320 45 0 45 0 0 320 0 320 -45 0 -45 0 0 -320z"/>
<path d="M1771 2328 c0 -7 26 -150 57 -318 l58 -305 46 -3 c42 -3 48 -1 53 20
3 13 28 145 55 293 28 149 53 282 56 298 5 26 4 27 -40 27 -25 0 -46 -4 -46
-8 0 -11 -58 -368 -66 -405 -3 -16 -8 -27 -10 -25 -2 3 -17 89 -34 194 -43
271 -34 244 -86 244 -29 0 -44 -4 -43 -12z"/>
<path d="M2240 2020 l0 -320 120 0 120 0 0 40 0 40 -75 0 -75 0 0 100 0 100
65 0 65 0 0 45 0 45 -65 0 -65 0 0 95 0 95 75 0 75 0 0 40 0 40 -120 0 -120 0
0 -320z"/>
<path d="M2640 2020 l0 -320 45 0 45 0 0 115 c0 104 2 115 18 115 14 0 27 -26
58 -112 l41 -113 47 -3 c25 -2 46 1 46 6 0 4 -20 64 -46 131 -45 123 -45 123
-24 138 48 34 75 132 60 215 -20 104 -82 147 -212 148 l-78 0 0 -320z m178
204 c18 -20 22 -37 22 -88 0 -53 -4 -67 -25 -90 -16 -17 -34 -26 -55 -26 l-30
0 0 121 0 122 33 -7 c17 -3 42 -17 55 -32z"/>
<path d="M3490 2020 l0 -320 45 0 45 0 0 320 0 320 -45 0 -45 0 0 -320z"/>
<path d="M3720 2300 l0 -40 45 0 45 0 0 -280 0 -280 45 0 45 0 2 278 3 277 43
3 c42 3 42 3 42 43 l0 39 -135 0 -135 0 0 -40z"/>
<path d="M4093 2328 c3 -8 30 -92 61 -186 l56 -173 0 -134 0 -135 45 0 45 0 0
126 0 126 60 185 c33 102 60 190 60 194 0 5 -20 9 -43 9 l-44 0 -33 -120 c-18
-67 -36 -123 -40 -125 -4 -2 -22 51 -41 118 l-34 122 -49 3 c-38 3 -47 0 -43
-10z"/>
<path d="M4765 2144 c-74 -38 -128 -126 -129 -210 -2 -88 59 -124 149 -90 119
46 188 233 108 296 -31 24 -86 26 -128 4z m88 -68 c-1 -34 -13 -72 -38 -123
-40 -80 -72 -107 -100 -83 -47 39 59 267 120 258 17 -3 20 -10 18 -52z"/>
<path d="M3473 1402 c-35 -11 -73 -50 -94 -96 -27 -61 -42 -186 -35 -282 13
-178 69 -274 159 -274 121 0 173 112 165 361 -3 126 -5 139 -33 194 -42 83
-99 117 -162 97z m70 -99 c29 -33 39 -107 36 -255 -4 -122 -7 -148 -25 -178
-25 -43 -58 -47 -86 -9 -40 53 -42 353 -4 428 19 36 53 42 79 14z"/>
<path d="M574 1373 c8 -38 96 -602 96 -613 0 -6 22 -10 48 -10 l48 0 29 188
c15 103 31 198 35 212 4 17 18 -47 40 -187 l34 -213 48 0 c28 0 48 5 48 11 0
14 88 587 95 617 5 20 2 22 -40 22 -53 0 -46 22 -80 -234 -13 -104 -26 -190
-28 -192 -2 -2 -9 31 -15 74 -7 42 -22 139 -34 215 l-21 137 -42 0 -41 0 -34
-216 c-19 -119 -36 -211 -38 -204 -2 6 -16 103 -31 214 l-27 201 -48 3 c-48 3
-48 3 -42 -25z"/>
<path d="M1240 1075 l0 -325 120 0 120 0 0 45 0 45 -75 0 -75 0 0 100 0 100
65 0 65 0 0 40 0 40 -65 0 -65 0 0 95 0 95 75 0 75 0 0 45 0 45 -120 0 -120 0
0 -325z"/>
<path d="M1683 1380 c-42 -25 -64 -70 -65 -129 0 -61 18 -103 77 -175 77 -96
95 -126 95 -165 0 -42 -7 -54 -37 -70 -24 -12 -61 -7 -105 16 l-28 14 0 -46
c0 -43 2 -47 35 -61 44 -18 108 -18 143 0 54 28 75 62 80 125 6 79 -9 119 -77
204 -85 107 -91 118 -91 159 0 61 56 86 120 53 l30 -16 0 45 c0 55 -16 66 -92
66 -35 0 -64 -7 -85 -20z"/>
<path d="M1990 1355 l0 -45 45 0 45 0 0 -281 0 -280 43 3 42 3 3 278 2 277 40
0 40 0 0 45 0 45 -130 0 -130 0 0 -45z"/>
<path d="M2640 1075 l0 -325 45 0 45 0 0 140 0 140 60 0 60 0 0 45 0 45 -60 0
-60 0 0 95 0 94 68 3 67 3 3 43 3 42 -115 0 -116 0 0 -325z"/>
<path d="M3020 1075 l0 -325 110 0 110 0 0 45 0 45 -65 0 -65 0 0 280 0 280
-45 0 -45 0 0 -325z"/>
<path d="M3830 1075 l0 -325 45 0 45 0 0 120 c0 112 1 120 19 120 14 0 24 -13
35 -42 9 -24 28 -77 44 -118 l28 -75 47 -3 c26 -2 47 -1 47 2 0 3 -20 59 -45
126 -25 67 -45 125 -45 129 0 5 13 23 30 41 70 74 65 238 -8 303 -33 30 -92
46 -169 47 l-73 0 0 -325z m180 210 c28 -30 39 -110 20 -155 -13 -32 -55 -60
-90 -60 -19 0 -20 6 -20 120 l0 120 33 0 c23 0 41 -8 57 -25z"/>
<path d="M4290 1075 l0 -325 45 0 45 0 0 325 0 325 -45 0 -45 0 0 -325z"/>
<path d="M4552 1078 l3 -323 78 2 c100 2 151 29 189 100 74 135 58 390 -30
482 -43 45 -90 61 -180 61 l-62 0 2 -322z m136 231 c43 -15 69 -62 83 -149 26
-167 -23 -320 -103 -320 l-28 0 0 233 c0 199 3 247 15 247 1 0 16 -5 33 -11z"/>
<path d="M5105 1378 c-6 -25 -125 -620 -125 -625 0 -2 20 -3 44 -3 l43 0 13
75 13 75 62 0 62 0 12 -75 12 -75 45 0 c24 0 44 3 44 8 0 4 -28 150 -62 325
l-62 317 -48 0 c-41 0 -48 -3 -53 -22z m74 -273 c12 -60 21 -113 21 -117 0 -5
-20 -8 -45 -8 -25 0 -45 4 -45 8 0 5 9 57 20 117 11 60 20 111 20 114 0 23 12
-23 29 -114z"/>
</g>
</svg>
